<svg t="1615861284624" class="icon" viewBox="0 0 1024 1024" version="1.1" xmlns="http://www.w3.org/2000/svg" p-id="15261" width="128" height="128"><path d="M513.757867 605.6448m-394.494472 13.776051a394.734933 394.734933 0 1 0 788.988943-27.552102 394.734933 394.734933 0 1 0-788.988943 27.552102Z" fill="#C9C9C9" fill-opacity=".6" p-id="15262"></path><path d="M740.437333 395.656533l40.430934 10.069334c24.593067 6.161067 41.898667 21.794133 38.621866 34.935466l-44.458666-11.093333-34.1504-8.533333 7.953066 455.7824c0.785067 45.226667-102.1952 83.712-230.024533 85.947733-127.829333 2.218667-232.0896-32.631467-232.874667-77.858133l-0.443733-6.485334-7.816533-447.778133-32.3072 9.2672-44.032 12.6464c-3.7376-13.021867 13.0048-29.2352 37.376-36.232533l38.519466-11.0592-3.037866-173.806934 0.170666-9.472c-1.655467-94.685867 100.642133-173.2608 228.4544-175.496533 127.829333-2.218667 232.789333 72.721067 234.4448 167.424l3.1744 181.742933z" fill="#644835" opacity=".4" p-id="15263"></path><path d="M317.263769 87.382766a41.284267 61.917867 51 1 0 51.962062 64.167802 41.284267 61.917867 51 1 0-51.962062-64.167802Z" fill="#FFFFFF" p-id="15264"></path><path d="M630.661154 138.637399a61.917867 41.284267 52 1 0 65.064892-50.834265 61.917867 41.284267 52 1 0-65.064892 50.834265Z" fill="#FFFFFF" p-id="15265"></path><path d="M402.414933 224.529067l228.642134-4.096 90.794666 55.022933 17.92 426.922667-14.199466 103.543466-138.939734 36.420267-150.5792 0.426667-126.208-36.369067-13.397333-366.148267-3.6352-135.714133 80.247467-59.716267z" fill="#392B2B" p-id="15266"></path><path d="M711.611733 560.384l-4.539733-260.027733c-26.692267 16.896-37.034667 141.824-32.256 260.6592l36.795733-0.631467z m3.669334 210.4832l-3.242667-185.719467-37.137067 0.648534c4.778667 81.271467 17.271467 156.040533 37.034667 185.1392l3.345067-0.068267zM374.4256 692.565333L331.810133 799.402667c41.386667 37.905067 330.632533 30.429867 371.4048-9.591467l-48.759466-104.328533-1.041067-0.221867c-30.6176 30.037333-247.825067 35.669333-278.903467 7.202133l-0.1024 0.1024z m-55.364267 85.230934l3.345067-0.068267c18.7392-29.764267 28.603733-104.925867 30.549333-186.3168l-37.137066 0.648533 3.242666 185.736534z m-8.209066-470.528l4.539733 260.027733 36.778667-0.648533c0.631467-118.920533-14.08-243.4048-41.3184-259.3792z m61.9008-233.301334c-13.090133-8.6528-36.3008 2.594133-51.831467 25.088-15.530667 22.510933-17.493333 47.752533-4.386133 56.388267 13.090133 8.635733 36.3008-2.594133 51.831466-25.088 15.530667-22.528 17.493333-47.7696 4.386134-56.405333z m295.0144 289.006934l39.0656-76.544c-88.558933-78.933333-297.984-75.3152-383.8464 6.570666l40.7552 72.6528c86.186667-25.668267 220.381867-27.136 304.0256-2.679466z m21.9648-270.336c-16.298667-21.9648-39.8848-32.392533-52.667734-23.296-12.8 9.096533-9.949867 34.2528 6.3488 56.200533s39.8848 32.375467 52.6848 23.278933c12.8-9.096533 9.9328-34.2528-6.365866-56.200533z m51.0464 263.168l40.430933 10.0864c24.593067 6.161067 41.898667 21.794133 38.638933 34.935466l-44.475733-11.093333-34.133333-8.533333 7.953066 455.7824c0.785067 45.226667-102.212267 83.712-230.024533 85.947733-127.829333 2.218667-232.106667-32.631467-232.891733-77.8752l-0.443734-6.485333L278.016 390.826667l-32.290133 9.2672-44.066134 12.6464c-3.703467-13.021867 13.021867-29.2352 37.410134-36.232534l38.5024-11.0592-3.037867-173.806933 0.170667-9.472C273.0496 87.466667 375.3472 8.874667 503.176533 6.656 630.9888 4.437333 735.9488 79.36 737.621333 174.08l3.157334 181.742933z" fill="#FF900E" p-id="15267"></path></svg>