<svg id="图层_1" data-name="图层 1" xmlns="http://www.w3.org/2000/svg" xmlns:xlink="http://www.w3.org/1999/xlink" viewBox="0 0 1024 1024"><defs><style>.cls-1{fill:none;}.cls-2{fill:#fff;}.cls-3{fill:url(#未命名的渐变_39);}.cls-4{fill:url(#未命名的渐变_26);}.cls-5{fill:url(#未命名的渐变_39-2);}.cls-6{fill:url(#未命名的渐变_76);}.cls-7{fill:url(#未命名的渐变_76-2);}.cls-8{fill:url(#未命名的渐变_76-3);}.cls-9{fill:url(#未命名的渐变_76-4);}.cls-10{fill:url(#未命名的渐变_76-5);}.cls-11{fill:url(#未命名的渐变_76-6);}.cls-12{fill:url(#未命名的渐变_76-7);}.cls-13{fill:url(#未命名的渐变_76-8);}.cls-14{fill:url(#未命名的渐变_76-9);}.cls-15{fill:url(#未命名的渐变_76-10);}.cls-16{fill:url(#未命名的渐变_76-11);}.cls-17{fill:url(#未命名的渐变_76-12);}.cls-18{fill:url(#未命名的渐变_76-13);}.cls-19{fill:url(#未命名的渐变_76-14);}.cls-20{fill:url(#未命名的渐变_76-15);}.cls-21{fill:url(#未命名的渐变_76-16);}.cls-22{fill:url(#未命名的渐变_76-17);}.cls-23{fill:url(#未命名的渐变_76-18);}.cls-24{fill:url(#未命名的渐变_76-19);}.cls-25{fill:url(#未命名的渐变_76-20);}.cls-26{fill:url(#未命名的渐变_76-21);}.cls-27{fill:url(#未命名的渐变_76-22);}.cls-28{fill:url(#未命名的渐变_76-23);}.cls-29{fill:url(#未命名的渐变_76-24);}.cls-30{fill:url(#未命名的渐变_76-25);}.cls-31{fill:url(#未命名的渐变_76-26);}.cls-32{fill:url(#未命名的渐变_76-27);}.cls-33{fill:url(#未命名的渐变_76-28);}.cls-34{fill:url(#未命名的渐变_76-29);}.cls-35{fill:url(#未命名的渐变_76-30);}.cls-36{fill:url(#未命名的渐变_76-31);}.cls-37{fill:url(#未命名的渐变_76-32);}.cls-107,.cls-111,.cls-115,.cls-118,.cls-38,.cls-43{opacity:0.8;}.cls-38{fill:url(#未命名的渐变_26-2);}.cls-39{fill:url(#未命名的渐变_76-33);}.cls-40{fill:url(#未命名的渐变_39-3);}.cls-41{fill:url(#未命名的渐变_39-4);}.cls-42{fill:url(#未命名的渐变_76-34);}.cls-43{fill:url(#未命名的渐变_26-3);}.cls-44{fill:url(#未命名的渐变_39-6);}.cls-45{fill:url(#未命名的渐变_39-7);}.cls-46{fill:url(#未命名的渐变_39-8);}.cls-47{fill:url(#未命名的渐变_39-9);}.cls-48{fill:url(#未命名的渐变_39-10);}.cls-49{fill:url(#未命名的渐变_39-11);}.cls-50{fill:url(#未命名的渐变_39-12);}.cls-51{fill:url(#未命名的渐变_39-13);}.cls-52{fill:url(#未命名的渐变_39-14);}.cls-53{fill:url(#未命名的渐变_39-15);}.cls-54{fill:url(#未命名的渐变_39-16);}.cls-55{fill:url(#未命名的渐变_39-17);}.cls-56{fill:url(#未命名的渐变_39-18);}.cls-57{fill:url(#未命名的渐变_39-19);}.cls-58{fill:url(#未命名的渐变_39-20);}.cls-59{fill:url(#未命名的渐变_39-21);}.cls-60{fill:url(#未命名的渐变_39-22);}.cls-61{fill:url(#未命名的渐变_39-23);}.cls-62{fill:url(#未命名的渐变_39-24);}.cls-63{fill:url(#未命名的渐变_39-25);}.cls-64{fill:url(#未命名的渐变_39-26);}.cls-65{fill:url(#未命名的渐变_39-27);}.cls-66{fill:url(#未命名的渐变_39-28);}.cls-67{fill:url(#未命名的渐变_39-29);}.cls-68{fill:url(#未命名的渐变_39-30);}.cls-69{fill:url(#未命名的渐变_39-31);}.cls-70{fill:url(#未命名的渐变_39-32);}.cls-71{fill:url(#未命名的渐变_39-33);}.cls-72{fill:url(#未命名的渐变_39-34);}.cls-73{fill:url(#未命名的渐变_39-35);}.cls-74{fill:url(#未命名的渐变_39-36);}.cls-75{fill:url(#未命名的渐变_39-37);}.cls-76{fill:url(#未命名的渐变_39-38);}.cls-77{fill:url(#未命名的渐变_39-39);}.cls-78{fill:url(#未命名的渐变_39-40);}.cls-79{fill:url(#未命名的渐变_39-41);}.cls-80{fill:url(#未命名的渐变_39-42);}.cls-81{fill:url(#未命名的渐变_39-43);}.cls-82{fill:url(#未命名的渐变_39-44);}.cls-83{fill:url(#未命名的渐变_39-45);}.cls-84{fill:url(#未命名的渐变_39-46);}.cls-85{fill:url(#未命名的渐变_39-47);}.cls-86{fill:url(#未命名的渐变_39-48);}.cls-87{fill:url(#未命名的渐变_39-49);}.cls-88{fill:url(#未命名的渐变_39-50);}.cls-89{fill:url(#未命名的渐变_39-51);}.cls-90{fill:url(#未命名的渐变_39-52);}.cls-91{fill:url(#未命名的渐变_39-53);}.cls-92{fill:url(#未命名的渐变_39-54);}.cls-93{fill:url(#未命名的渐变_39-55);}.cls-94{fill:url(#未命名的渐变_39-56);}.cls-95{fill:url(#未命名的渐变_39-57);}.cls-96{fill:url(#未命名的渐变_39-58);}.cls-97{fill:url(#未命名的渐变_39-59);}.cls-98{fill:url(#未命名的渐变_39-60);}.cls-99{fill:url(#未命名的渐变_39-61);}.cls-100{fill:url(#未命名的渐变_39-62);}.cls-101{fill:url(#未命名的渐变_39-63);}.cls-102{fill:url(#未命名的渐变_39-64);}.cls-103{fill:url(#未命名的渐变_39-65);}.cls-104{fill:url(#未命名的渐变_39-66);}.cls-105{fill:url(#未命名的渐变_39-67);}.cls-106{fill:url(#未命名的渐变_76-36);}.cls-107{fill:url(#未命名的渐变_26-4);}.cls-108{fill:url(#未命名的渐变_76-37);}.cls-109{fill:url(#未命名的渐变_39-68);}.cls-110{fill:url(#未命名的渐变_39-69);}.cls-111{fill:url(#未命名的渐变_26-5);}.cls-112{fill:url(#未命名的渐变_76-38);}.cls-113{fill:url(#未命名的渐变_39-70);}.cls-114{fill:url(#未命名的渐变_39-71);}.cls-115{fill:url(#未命名的渐变_26-6);}.cls-116{fill:url(#未命名的渐变_76-39);}.cls-117{fill:url(#未命名的渐变_39-72);}.cls-118{fill:url(#未命名的渐变_26-7);}.cls-119{fill:url(#未命名的渐变_39-73);}.cls-120{fill:url(#未命名的渐变_39-74);}.cls-121{fill:url(#未命名的渐变_26-8);}.cls-122{fill:url(#未命名的渐变_127);}.cls-123{fill:url(#未命名的渐变_39-75);}.cls-124{fill:url(#未命名的渐变_127-2);}.cls-125{fill:url(#未命名的渐变_39-76);}.cls-126{fill:url(#未命名的渐变_127-3);}.cls-127{fill:url(#未命名的渐变_39-77);}.cls-128{fill:url(#未命名的渐变_127-4);}.cls-129{fill:url(#未命名的渐变_39-78);}.cls-130{fill:url(#未命名的渐变_127-5);}.cls-131{fill:url(#未命名的渐变_39-79);}.cls-132{fill:url(#未命名的渐变_127-6);}.cls-133{fill:url(#未命名的渐变_39-80);}.cls-134{fill:url(#未命名的渐变_127-7);}.cls-135{fill:url(#未命名的渐变_39-81);}.cls-136{fill:url(#未命名的渐变_127-8);}.cls-137{fill:url(#未命名的渐变_39-82);}.cls-138{fill:url(#未命名的渐变_127-9);}.cls-139{fill:url(#未命名的渐变_39-83);}.cls-140{fill:url(#未命名的渐变_127-10);}.cls-141{fill:url(#未命名的渐变_39-84);}.cls-142{fill:url(#未命名的渐变_127-11);}.cls-143{fill:url(#未命名的渐变_39-85);}.cls-144{fill:url(#未命名的渐变_127-12);}.cls-145{fill:url(#未命名的渐变_39-86);}.cls-146{fill:url(#未命名的渐变_127-13);}.cls-147{fill:url(#未命名的渐变_39-87);}.cls-148{fill:url(#未命名的渐变_127-14);}.cls-149{fill:url(#未命名的渐变_39-88);}.cls-150{fill:url(#未命名的渐变_127-15);}.cls-151{fill:url(#未命名的渐变_39-89);}.cls-152{fill:url(#未命名的渐变_127-16);}.cls-153{fill:url(#未命名的渐变_39-90);}.cls-154{fill:url(#未命名的渐变_127-17);}.cls-155{fill:url(#未命名的渐变_39-91);}.cls-156{fill:url(#未命名的渐变_127-18);}.cls-157{fill:url(#未命名的渐变_39-92);}.cls-158{fill:url(#未命名的渐变_127-19);}.cls-159{fill:url(#未命名的渐变_39-93);}.cls-160{fill:url(#未命名的渐变_127-20);}.cls-161{fill:url(#未命名的渐变_39-94);}.cls-162{fill:url(#未命名的渐变_127-21);}.cls-163{fill:url(#未命名的渐变_39-95);}.cls-164{fill:url(#未命名的渐变_127-22);}.cls-165{fill:url(#未命名的渐变_39-96);}.cls-166{fill:url(#未命名的渐变_127-23);}.cls-167{fill:url(#未命名的渐变_39-97);}.cls-168{fill:url(#未命名的渐变_127-24);}.cls-169{fill:url(#未命名的渐变_39-98);}.cls-170{fill:url(#未命名的渐变_127-25);}.cls-171{fill:url(#未命名的渐变_39-99);}.cls-172{fill:url(#未命名的渐变_127-26);}.cls-173{fill:url(#未命名的渐变_39-100);}.cls-174{fill:url(#未命名的渐变_127-27);}.cls-175{fill:url(#未命名的渐变_39-101);}.cls-176{fill:url(#未命名的渐变_127-28);}.cls-177{fill:url(#未命名的渐变_39-102);}.cls-178{fill:url(#未命名的渐变_127-29);}.cls-179{fill:url(#未命名的渐变_39-103);}.cls-180{fill:url(#未命名的渐变_127-30);}.cls-181{fill:url(#未命名的渐变_39-104);}.cls-182{fill:url(#未命名的渐变_127-31);}.cls-183{fill:url(#未命名的渐变_39-105);}.cls-184{fill:url(#未命名的渐变_127-32);}.cls-185{fill:url(#未命名的渐变_39-106);}.cls-186{fill:url(#未命名的渐变_127-33);}.cls-187{fill:url(#未命名的渐变_39-107);}.cls-188{fill:url(#未命名的渐变_127-34);}.cls-189{fill:url(#未命名的渐变_39-108);}.cls-190{fill:url(#未命名的渐变_127-35);}.cls-191{fill:url(#未命名的渐变_39-109);}.cls-192{fill:url(#未命名的渐变_127-36);}.cls-193{fill:url(#未命名的渐变_39-110);}.cls-194{fill:url(#未命名的渐变_127-37);}.cls-195{fill:url(#未命名的渐变_39-111);}.cls-196{fill:url(#未命名的渐变_127-38);}.cls-197{fill:url(#未命名的渐变_39-112);}.cls-198{fill:url(#未命名的渐变_127-39);}.cls-199{fill:url(#未命名的渐变_39-113);}.cls-200{fill:url(#未命名的渐变_127-40);}.cls-201{fill:url(#未命名的渐变_39-114);}.cls-202{fill:url(#未命名的渐变_127-41);}.cls-203{fill:url(#未命名的渐变_39-115);}.cls-204{fill:url(#未命名的渐变_127-42);}.cls-205{fill:url(#未命名的渐变_39-116);}.cls-206{fill:url(#未命名的渐变_127-43);}.cls-207{fill:url(#未命名的渐变_39-117);}.cls-208{fill:url(#未命名的渐变_127-44);}.cls-209{fill:url(#未命名的渐变_39-118);}.cls-210{fill:url(#未命名的渐变_127-45);}.cls-211{fill:url(#未命名的渐变_39-119);}.cls-212{fill:url(#未命名的渐变_127-46);}.cls-213{fill:url(#未命名的渐变_39-120);}.cls-214{fill:url(#未命名的渐变_127-47);}.cls-215{fill:url(#未命名的渐变_39-121);}.cls-216{fill:url(#未命名的渐变_127-48);}.cls-217{fill:url(#未命名的渐变_39-122);}.cls-218{fill:url(#未命名的渐变_127-49);}.cls-219{fill:url(#未命名的渐变_39-123);}.cls-220{fill:url(#未命名的渐变_127-50);}.cls-221{fill:url(#未命名的渐变_39-124);}.cls-222{fill:url(#未命名的渐变_127-51);}.cls-223{fill:url(#未命名的渐变_39-125);}.cls-224{fill:url(#未命名的渐变_127-52);}.cls-225{fill:url(#未命名的渐变_39-126);}.cls-226{fill:url(#未命名的渐变_127-53);}.cls-227{fill:url(#未命名的渐变_127-54);}.cls-228{fill:url(#未命名的渐变_39-127);}.cls-229{fill:url(#未命名的渐变_127-55);}.cls-230{fill:url(#未命名的渐变_39-128);}.cls-231{fill:url(#未命名的渐变_127-56);}.cls-232{fill:url(#未命名的渐变_39-129);}.cls-233{fill:url(#未命名的渐变_127-57);}.cls-234{fill:url(#未命名的渐变_39-130);}.cls-235{fill:url(#未命名的渐变_127-58);}.cls-236{fill:url(#未命名的渐变_39-131);}.cls-237{fill:url(#未命名的渐变_127-59);}.cls-238{fill:url(#未命名的渐变_39-132);}.cls-239{fill:url(#未命名的渐变_127-60);}.cls-240{fill:url(#未命名的渐变_39-133);}.cls-241{fill:url(#未命名的渐变_127-61);}.cls-242{fill:url(#未命名的渐变_39-134);}.cls-243{fill:url(#未命名的渐变_127-62);}.cls-244{fill:url(#未命名的渐变_39-135);}.cls-245{fill:url(#未命名的渐变_127-63);}.cls-246{fill:url(#未命名的渐变_39-136);}.cls-247{fill:url(#未命名的渐变_127-64);}.cls-248{fill:url(#未命名的渐变_39-137);}.cls-249{fill:url(#未命名的渐变_127-65);}.cls-250{fill:url(#未命名的渐变_39-138);}.cls-251{fill:url(#未命名的渐变_127-66);}.cls-252{fill:url(#未命名的渐变_39-139);}.cls-253{fill:url(#未命名的渐变_127-67);}.cls-254{fill:url(#未命名的渐变_39-140);}.cls-255{fill:url(#未命名的渐变_127-68);}.cls-256{fill:url(#未命名的渐变_39-141);}.cls-257{fill:url(#未命名的渐变_127-69);}.cls-258{fill:url(#未命名的渐变_39-142);}.cls-259{fill:url(#未命名的渐变_127-70);}.cls-260{fill:url(#未命名的渐变_39-143);}.cls-261{fill:url(#未命名的渐变_127-71);}.cls-262{fill:url(#未命名的渐变_39-144);}.cls-263{fill:url(#未命名的渐变_127-72);}.cls-264{fill:url(#未命名的渐变_39-145);}.cls-265{fill:url(#未命名的渐变_127-73);}.cls-266{fill:url(#未命名的渐变_39-146);}.cls-267{fill:url(#未命名的渐变_127-74);}.cls-268{fill:url(#未命名的渐变_39-147);}.cls-269{fill:url(#未命名的渐变_127-75);}.cls-270{fill:url(#未命名的渐变_39-148);}.cls-271{fill:url(#未命名的渐变_127-76);}.cls-272{fill:url(#未命名的渐变_39-149);}.cls-273{fill:url(#未命名的渐变_127-77);}.cls-274{fill:url(#未命名的渐变_39-150);}.cls-275{fill:url(#未命名的渐变_39-151);}.cls-276{fill:url(#未命名的渐变_127-78);}.cls-277{fill:url(#未命名的渐变_39-152);}.cls-278{fill:url(#未命名的渐变_127-79);}.cls-279{fill:url(#未命名的渐变_39-153);}.cls-280{fill:url(#未命名的渐变_127-80);}.cls-281{fill:url(#未命名的渐变_39-154);}.cls-282{fill:url(#未命名的渐变_127-81);}.cls-283{fill:url(#未命名的渐变_39-155);}.cls-284{fill:url(#未命名的渐变_127-82);}.cls-285{fill:url(#未命名的渐变_39-156);}.cls-286{fill:url(#未命名的渐变_48);}.cls-287{fill:url(#未命名的渐变_39-157);}.cls-288{fill:url(#未命名的渐变_48-2);}.cls-289{fill:url(#未命名的渐变_127-83);}.cls-290{fill:url(#未命名的渐变_48-3);}.cls-291{fill:url(#未命名的渐变_127-84);}.cls-292{fill:#0f82f8;opacity:0.32;}.cls-293{fill:url(#未命名的渐变_48-4);}.cls-294{fill:url(#未命名的渐变_127-85);}.cls-295{fill:url(#未命名的渐变_48-5);}.cls-296{fill:url(#未命名的渐变_127-86);}.cls-297{fill:url(#未命名的渐变_39-158);}.cls-298{fill:url(#未命名的渐变_39-159);}.cls-299{fill:url(#未命名的渐变_127-87);}.cls-300{fill:url(#未命名的渐变_39-160);}.cls-301{fill:url(#未命名的渐变_48-6);}.cls-302{fill:url(#未命名的渐变_39-161);}.cls-303{fill:url(#未命名的渐变_127-88);}.cls-304{fill:url(#未命名的渐变_39-162);}.cls-305{fill:url(#未命名的渐变_39-163);}.cls-306{fill:url(#未命名的渐变_39-164);}.cls-307{fill:url(#未命名的渐变_39-165);}.cls-308{fill:url(#未命名的渐变_39-166);}.cls-309{fill:url(#未命名的渐变_39-167);}.cls-310{fill:url(#未命名的渐变_48-7);}.cls-311{fill:url(#未命名的渐变_39-168);}.cls-312{fill:url(#未命名的渐变_127-89);}.cls-313{fill:url(#未命名的渐变_39-169);}.cls-314{fill:url(#未命名的渐变_127-90);}.cls-315{fill:url(#未命名的渐变_127-91);}.cls-316{fill:url(#未命名的渐变_127-92);}.cls-317{fill:url(#未命名的渐变_127-93);}.cls-318{fill:url(#未命名的渐变_127-94);}.cls-319{fill:url(#未命名的渐变_39-170);}.cls-320{fill:url(#未命名的渐变_127-95);}.cls-321{fill:#0753a0;}.cls-322{fill:url(#未命名的渐变_137);}.cls-323{fill:url(#未命名的渐变_137-2);}.cls-324{fill:url(#未命名的渐变_137-3);}.cls-325{fill:url(#未命名的渐变_137-4);}.cls-326{fill:url(#未命名的渐变_137-5);}.cls-327{fill:url(#未命名的渐变_137-6);}.cls-328{fill:url(#未命名的渐变_137-7);}.cls-329{fill:url(#未命名的渐变_137-8);}.cls-330{fill:url(#未命名的渐变_137-9);}.cls-331{fill:url(#未命名的渐变_137-10);}.cls-332{fill:url(#未命名的渐变_134);}.cls-333{fill:url(#未命名的渐变_137-11);}</style><linearGradient id="未命名的渐变_39" x1="614.89" y1="335.75" x2="653.96" y2="335.75" gradientUnits="userSpaceOnUse"><stop offset="0" stop-color="#007af8"/><stop offset="0.52" stop-color="#51a6f9"/><stop offset="1" stop-color="#0079f7"/></linearGradient><linearGradient id="未命名的渐变_26" x1="283.23" y1="335.75" x2="322.29" y2="335.75" gradientUnits="userSpaceOnUse"><stop offset="0" stop-color="#0089ff"/><stop offset="1" stop-color="#0070f3"/></linearGradient><linearGradient id="未命名的渐变_39-2" x1="283.23" y1="335.75" x2="322.29" y2="335.75" xlink:href="#未命名的渐变_39"/><linearGradient id="未命名的渐变_76" x1="288.19" y1="365.28" x2="470.23" y2="515.71" gradientUnits="userSpaceOnUse"><stop offset="0" stop-color="#4ca3f9"/><stop offset="1" stop-color="#0f82f8"/></linearGradient><linearGradient id="未命名的渐变_76-2" x1="291.42" y1="361.37" x2="473.46" y2="511.8" xlink:href="#未命名的渐变_76"/><linearGradient id="未命名的渐变_76-3" x1="292.11" y1="360.54" x2="474.15" y2="510.97" xlink:href="#未命名的渐变_76"/><linearGradient id="未命名的渐变_76-4" x1="292.85" y1="359.65" x2="474.89" y2="510.08" xlink:href="#未命名的渐变_76"/><linearGradient id="未命名的渐变_76-5" x1="293.62" y1="358.71" x2="475.66" y2="509.14" xlink:href="#未命名的渐变_76"/><linearGradient id="未命名的渐变_76-6" x1="290.78" y1="362.15" x2="472.82" y2="512.59" xlink:href="#未命名的渐变_76"/><linearGradient id="未命名的渐变_76-7" x1="289.61" y1="363.56" x2="471.65" y2="513.99" xlink:href="#未命名的渐变_76"/><linearGradient id="未命名的渐变_76-8" x1="290.17" y1="362.88" x2="472.21" y2="513.32" xlink:href="#未命名的渐变_76"/><linearGradient id="未命名的渐变_76-9" x1="298.15" y1="353.23" x2="480.19" y2="503.67" xlink:href="#未命名的渐变_76"/><linearGradient id="未命名的渐变_76-10" x1="289.1" y1="364.19" x2="471.14" y2="514.62" xlink:href="#未命名的渐变_76"/><linearGradient id="未命名的渐变_76-11" x1="294.44" y1="357.72" x2="476.48" y2="508.15" xlink:href="#未命名的渐变_76"/><linearGradient id="未命名的渐变_76-12" x1="298.8" y1="352.44" x2="480.84" y2="502.87" xlink:href="#未命名的渐变_76"/><linearGradient id="未命名的渐变_76-13" x1="299.18" y1="351.99" x2="481.22" y2="502.42" xlink:href="#未命名的渐变_76"/><linearGradient id="未命名的渐变_76-14" x1="297.16" y1="354.43" x2="479.2" y2="504.87" xlink:href="#未命名的渐变_76"/><linearGradient id="未命名的渐变_76-15" x1="295.3" y1="356.68" x2="477.34" y2="507.11" xlink:href="#未命名的渐变_76"/><linearGradient id="未命名的渐变_76-16" x1="296.21" y1="355.58" x2="478.25" y2="506.01" xlink:href="#未命名的渐变_76"/><linearGradient id="未命名的渐变_76-17" x1="286.25" y1="367.64" x2="468.29" y2="518.07" xlink:href="#未命名的渐变_76"/><linearGradient id="未命名的渐变_76-18" x1="286.28" y1="367.59" x2="468.33" y2="518.02" xlink:href="#未命名的渐变_76"/><linearGradient id="未命名的渐变_76-19" x1="286.24" y1="367.64" x2="468.28" y2="518.07" xlink:href="#未命名的渐变_76"/><linearGradient id="未命名的渐变_76-20" x1="286.88" y1="366.87" x2="468.92" y2="517.3" xlink:href="#未命名的渐变_76"/><linearGradient id="未命名的渐变_76-21" x1="286.29" y1="367.58" x2="468.33" y2="518.01" xlink:href="#未命名的渐变_76"/><linearGradient id="未命名的渐变_76-22" x1="286.66" y1="367.13" x2="468.7" y2="517.56" xlink:href="#未命名的渐变_76"/><linearGradient id="未命名的渐变_76-23" x1="286.49" y1="367.34" x2="468.53" y2="517.77" xlink:href="#未命名的渐变_76"/><linearGradient id="未命名的渐变_76-24" x1="286.37" y1="367.49" x2="468.41" y2="517.92" xlink:href="#未命名的渐变_76"/><linearGradient id="未命名的渐变_76-25" x1="287.16" y1="366.53" x2="469.2" y2="516.96" xlink:href="#未命名的渐变_76"/><linearGradient id="未命名的渐变_76-26" x1="286.38" y1="367.47" x2="468.42" y2="517.91" xlink:href="#未命名的渐变_76"/><linearGradient id="未命名的渐变_76-27" x1="287.46" y1="366.17" x2="469.5" y2="516.6" xlink:href="#未命名的渐变_76"/><linearGradient id="未命名的渐变_76-28" x1="287.8" y1="365.75" x2="469.85" y2="516.18" xlink:href="#未命名的渐变_76"/><linearGradient id="未命名的渐变_76-29" x1="288.62" y1="364.76" x2="470.66" y2="515.19" xlink:href="#未命名的渐变_76"/><linearGradient id="未命名的渐变_76-30" x1="286.51" y1="367.32" x2="468.55" y2="517.75" xlink:href="#未命名的渐变_76"/><linearGradient id="未命名的渐变_76-31" x1="286.9" y1="366.85" x2="468.94" y2="517.28" xlink:href="#未命名的渐变_76"/><linearGradient id="未命名的渐变_76-32" x1="286.68" y1="367.11" x2="468.72" y2="517.54" xlink:href="#未命名的渐变_76"/><linearGradient id="未命名的渐变_26-2" x1="283.23" y1="338.66" x2="634.43" y2="338.66" xlink:href="#未命名的渐变_26"/><linearGradient id="未命名的渐变_76-33" x1="299.32" y1="351.82" x2="481.36" y2="502.25" xlink:href="#未命名的渐变_76"/><linearGradient id="未命名的渐变_39-3" x1="283.23" y1="338.66" x2="634.43" y2="338.66" xlink:href="#未命名的渐变_39"/><linearGradient id="未命名的渐变_39-4" x1="283.23" y1="336.87" x2="599.14" y2="336.87" xlink:href="#未命名的渐变_39"/><linearGradient id="未命名的渐变_76-34" x1="300.14" y1="350.83" x2="482.18" y2="501.26" xlink:href="#未命名的渐变_76"/><linearGradient id="未命名的渐变_26-3" x1="283.23" y1="336.87" x2="599.14" y2="336.87" xlink:href="#未命名的渐变_26"/><linearGradient id="未命名的渐变_39-6" x1="283.23" y1="344.49" x2="536.16" y2="344.49" xlink:href="#未命名的渐变_39"/><linearGradient id="未命名的渐变_39-7" x1="157.43" y1="344.49" x2="410.36" y2="344.49" xlink:href="#未命名的渐变_39"/><linearGradient id="未命名的渐变_39-8" x1="283.23" y1="376.1" x2="634.43" y2="376.1" xlink:href="#未命名的渐变_39"/><linearGradient id="未命名的渐变_39-9" x1="-118.29" y1="376.1" x2="745.99" y2="376.1" xlink:href="#未命名的渐变_39"/><linearGradient id="未命名的渐变_39-10" x1="283.23" y1="398.01" x2="634.43" y2="398.01" xlink:href="#未命名的渐变_39"/><linearGradient id="未命名的渐变_39-11" x1="-118.29" y1="398.01" x2="745.99" y2="398.01" xlink:href="#未命名的渐变_39"/><linearGradient id="未命名的渐变_39-12" x1="283.23" y1="374.13" x2="634.43" y2="374.13" xlink:href="#未命名的渐变_39"/><linearGradient id="未命名的渐变_39-13" x1="-118.29" y1="374.13" x2="745.99" y2="374.13" xlink:href="#未命名的渐变_39"/><linearGradient id="未命名的渐变_39-14" x1="283.23" y1="378.06" x2="634.43" y2="378.06" xlink:href="#未命名的渐变_39"/><linearGradient id="未命名的渐变_39-15" x1="-118.29" y1="378.06" x2="745.99" y2="378.06" xlink:href="#未命名的渐变_39"/><linearGradient id="未命名的渐变_39-16" x1="283.23" y1="399.91" x2="634.43" y2="399.91" xlink:href="#未命名的渐变_39"/><linearGradient id="未命名的渐变_39-17" x1="-118.29" y1="399.91" x2="745.99" y2="399.91" xlink:href="#未命名的渐变_39"/><linearGradient id="未命名的渐变_39-18" x1="283.23" y1="372.13" x2="634.43" y2="372.13" xlink:href="#未命名的渐变_39"/><linearGradient id="未命名的渐变_39-19" x1="-118.29" y1="372.13" x2="745.99" y2="372.13" xlink:href="#未命名的渐变_39"/><linearGradient id="未命名的渐变_39-20" x1="283.23" y1="363.93" x2="634.43" y2="363.93" xlink:href="#未命名的渐变_39"/><linearGradient id="未命名的渐变_39-21" x1="-118.29" y1="363.93" x2="745.99" y2="363.93" xlink:href="#未命名的渐变_39"/><linearGradient id="未命名的渐变_39-22" x1="283.23" y1="366.01" x2="634.43" y2="366.01" xlink:href="#未命名的渐变_39"/><linearGradient id="未命名的渐变_39-23" x1="-118.29" y1="366.01" x2="745.99" y2="366.01" xlink:href="#未命名的渐变_39"/><linearGradient id="未命名的渐变_39-24" x1="283.23" y1="370.11" x2="634.43" y2="370.11" xlink:href="#未命名的渐变_39"/><linearGradient id="未命名的渐变_39-25" x1="-118.29" y1="370.11" x2="745.99" y2="370.11" xlink:href="#未命名的渐变_39"/><linearGradient id="未命名的渐变_39-26" x1="283.23" y1="368.07" x2="634.43" y2="368.07" xlink:href="#未命名的渐变_39"/><linearGradient id="未命名的渐变_39-27" x1="-118.29" y1="368.07" x2="745.99" y2="368.07" xlink:href="#未命名的渐变_39"/><linearGradient id="未命名的渐变_39-28" x1="283.23" y1="381.9" x2="634.43" y2="381.9" xlink:href="#未命名的渐变_39"/><linearGradient id="未命名的渐变_39-29" x1="-118.29" y1="381.9" x2="745.99" y2="381.9" xlink:href="#未命名的渐变_39"/><linearGradient id="未命名的渐变_39-30" x1="283.23" y1="391.08" x2="634.43" y2="391.08" xlink:href="#未命名的渐变_39"/><linearGradient id="未命名的渐变_39-31" x1="-118.29" y1="391.08" x2="745.99" y2="391.08" xlink:href="#未命名的渐变_39"/><linearGradient id="未命名的渐变_39-32" x1="283.23" y1="389.29" x2="634.43" y2="389.29" xlink:href="#未命名的渐变_39"/><linearGradient id="未命名的渐变_39-33" x1="-118.29" y1="389.29" x2="745.99" y2="389.29" xlink:href="#未命名的渐变_39"/><linearGradient id="未命名的渐变_39-34" x1="283.23" y1="379.99" x2="634.43" y2="379.99" xlink:href="#未命名的渐变_39"/><linearGradient id="未命名的渐变_39-35" x1="-118.29" y1="379.99" x2="745.99" y2="379.99" xlink:href="#未命名的渐变_39"/><linearGradient id="未命名的渐变_39-36" x1="283.23" y1="387.48" x2="634.43" y2="387.48" xlink:href="#未命名的渐变_39"/><linearGradient id="未命名的渐变_39-37" x1="-118.29" y1="387.48" x2="745.99" y2="387.48" xlink:href="#未命名的渐变_39"/><linearGradient id="未命名的渐变_39-38" x1="283.23" y1="385.65" x2="634.43" y2="385.65" xlink:href="#未命名的渐变_39"/><linearGradient id="未命名的渐变_39-39" x1="-118.29" y1="385.65" x2="745.99" y2="385.65" xlink:href="#未命名的渐变_39"/><linearGradient id="未命名的渐变_39-40" x1="283.23" y1="396.29" x2="634.43" y2="396.29" xlink:href="#未命名的渐变_39"/><linearGradient id="未命名的渐变_39-41" x1="-118.29" y1="396.29" x2="745.99" y2="396.29" xlink:href="#未命名的渐变_39"/><linearGradient id="未命名的渐变_39-42" x1="283.23" y1="394.57" x2="634.43" y2="394.57" xlink:href="#未命名的渐变_39"/><linearGradient id="未命名的渐变_39-43" x1="-118.29" y1="394.57" x2="745.99" y2="394.57" xlink:href="#未命名的渐变_39"/><linearGradient id="未命名的渐变_39-44" x1="283.23" y1="392.84" x2="634.43" y2="392.84" xlink:href="#未命名的渐变_39"/><linearGradient id="未命名的渐变_39-45" x1="-118.29" y1="392.84" x2="745.99" y2="392.84" xlink:href="#未命名的渐变_39"/><linearGradient id="未命名的渐变_39-46" x1="283.23" y1="361.83" x2="634.43" y2="361.83" xlink:href="#未命名的渐变_39"/><linearGradient id="未命名的渐变_39-47" x1="-118.29" y1="361.83" x2="745.99" y2="361.83" xlink:href="#未命名的渐变_39"/><linearGradient id="未命名的渐变_39-48" x1="283.23" y1="383.79" x2="634.43" y2="383.79" xlink:href="#未命名的渐变_39"/><linearGradient id="未命名的渐变_39-49" x1="-118.29" y1="383.79" x2="745.99" y2="383.79" xlink:href="#未命名的渐变_39"/><linearGradient id="未命名的渐变_39-50" x1="283.23" y1="346.7" x2="634.43" y2="346.7" xlink:href="#未命名的渐变_39"/><linearGradient id="未命名的渐变_39-51" x1="-118.29" y1="346.7" x2="285.04" y2="346.7" xlink:href="#未命名的渐变_39"/><linearGradient id="未命名的渐变_39-52" x1="283.23" y1="348.91" x2="634.43" y2="348.91" xlink:href="#未命名的渐变_39"/><linearGradient id="未命名的渐变_39-53" x1="-118.29" y1="348.91" x2="463.75" y2="348.91" xlink:href="#未命名的渐变_39"/><linearGradient id="未命名的渐变_39-54" x1="283.23" y1="340.03" x2="328.15" y2="340.03" xlink:href="#未命名的渐变_39"/><linearGradient id="未命名的渐变_39-55" x1="260.93" y1="340.03" x2="305.85" y2="340.03" xlink:href="#未命名的渐变_39"/><linearGradient id="未命名的渐变_39-56" x1="283.23" y1="353.27" x2="634.43" y2="353.27" xlink:href="#未命名的渐变_39"/><linearGradient id="未命名的渐变_39-57" x1="-118.29" y1="353.27" x2="745.99" y2="353.27" xlink:href="#未命名的渐变_39"/><linearGradient id="未命名的渐变_39-58" x1="283.23" y1="342.26" x2="414.57" y2="342.26" xlink:href="#未命名的渐变_39"/><linearGradient id="未命名的渐变_39-59" x1="217.92" y1="342.26" x2="349.27" y2="342.26" xlink:href="#未命名的渐变_39"/><linearGradient id="未命名的渐变_39-60" x1="283.23" y1="351.1" x2="634.43" y2="351.1" xlink:href="#未命名的渐变_39"/><linearGradient id="未命名的渐变_39-61" x1="-118.29" y1="351.1" x2="671.75" y2="351.1" xlink:href="#未命名的渐变_39"/><linearGradient id="未命名的渐变_39-62" x1="283.23" y1="359.72" x2="634.43" y2="359.72" xlink:href="#未命名的渐变_39"/><linearGradient id="未命名的渐变_39-63" x1="-118.29" y1="359.72" x2="745.99" y2="359.72" xlink:href="#未命名的渐变_39"/><linearGradient id="未命名的渐变_39-64" x1="283.23" y1="357.59" x2="634.43" y2="357.59" xlink:href="#未命名的渐变_39"/><linearGradient id="未命名的渐变_39-65" x1="-118.29" y1="357.59" x2="745.99" y2="357.59" xlink:href="#未命名的渐变_39"/><linearGradient id="未命名的渐变_39-66" x1="283.23" y1="355.44" x2="634.43" y2="355.44" xlink:href="#未命名的渐变_39"/><linearGradient id="未命名的渐变_39-67" x1="-118.29" y1="355.44" x2="745.99" y2="355.44" xlink:href="#未命名的渐变_39"/><linearGradient id="未命名的渐变_76-36" x1="305.32" y1="344.55" x2="487.36" y2="494.98" xlink:href="#未命名的渐变_76"/><linearGradient id="未命名的渐变_26-4" x1="283.23" y1="338.68" x2="634.43" y2="338.68" xlink:href="#未命名的渐变_26"/><linearGradient id="未命名的渐变_76-37" x1="299.28" y1="351.86" x2="481.32" y2="502.3" xlink:href="#未命名的渐变_76"/><linearGradient id="未命名的渐变_39-68" x1="283.23" y1="338.68" x2="634.43" y2="338.68" xlink:href="#未命名的渐变_39"/><linearGradient id="未命名的渐变_39-69" x1="-118.29" y1="338.68" x2="732.3" y2="338.68" xlink:href="#未命名的渐变_39"/><linearGradient id="未命名的渐变_26-5" x1="283.23" y1="340.69" x2="634.43" y2="340.69" xlink:href="#未命名的渐变_26"/><linearGradient id="未命名的渐变_76-38" x1="298.35" y1="352.98" x2="480.4" y2="503.42" xlink:href="#未命名的渐变_76"/><linearGradient id="未命名的渐变_39-70" x1="283.23" y1="340.69" x2="634.43" y2="340.69" xlink:href="#未命名的渐变_39"/><linearGradient id="未命名的渐变_39-71" x1="-118.29" y1="340.69" x2="745.99" y2="340.69" xlink:href="#未命名的渐变_39"/><linearGradient id="未命名的渐变_26-6" x1="283.23" y1="368.24" x2="634.43" y2="368.24" xlink:href="#未命名的渐变_26"/><linearGradient id="未命名的渐变_76-39" x1="418.02" y1="208.18" x2="600.06" y2="358.61" xlink:href="#未命名的渐变_76"/><linearGradient id="未命名的渐变_39-72" x1="-118.29" y1="368.24" x2="745.99" y2="368.24" xlink:href="#未命名的渐变_39"/><linearGradient id="未命名的渐变_26-7" x1="271.39" y1="416.52" x2="636.18" y2="416.52" xlink:href="#未命名的渐变_26"/><linearGradient id="未命名的渐变_39-73" x1="-1106.35" y1="335.95" x2="1020.52" y2="335.95" xlink:href="#未命名的渐变_39"/><linearGradient id="未命名的渐变_39-74" x1="283.23" y1="410.16" x2="634.43" y2="410.16" xlink:href="#未命名的渐变_39"/><linearGradient id="未命名的渐变_26-8" x1="373.1" y1="335.95" x2="544.56" y2="335.95" xlink:href="#未命名的渐变_26"/><linearGradient id="未命名的渐变_127" x1="305.31" y1="466.07" x2="1548.69" y2="365.26" gradientUnits="userSpaceOnUse"><stop offset="0" stop-color="#0753a0" stop-opacity="0"/><stop offset="1" stop-color="#0753a0"/></linearGradient><linearGradient id="未命名的渐变_39-75" x1="283.23" y1="414.03" x2="634.43" y2="414.03" xlink:href="#未命名的渐变_39"/><linearGradient id="未命名的渐变_127-2" x1="303.22" y1="440.35" x2="1546.6" y2="339.54" xlink:href="#未命名的渐变_127"/><linearGradient id="未命名的渐变_39-76" x1="283.23" y1="416.17" x2="634.43" y2="416.17" xlink:href="#未命名的渐变_39"/><linearGradient id="未命名的渐变_127-3" x1="303.39" y1="442.39" x2="1546.77" y2="341.58" xlink:href="#未命名的渐变_127"/><linearGradient id="未命名的渐变_39-77" x1="283.23" y1="411.87" x2="634.43" y2="411.87" xlink:href="#未命名的渐变_39"/><linearGradient id="未命名的渐变_127-4" x1="303.05" y1="438.29" x2="1546.44" y2="337.47" xlink:href="#未命名的渐变_127"/><linearGradient id="未命名的渐变_39-78" x1="283.23" y1="473.2" x2="634.43" y2="473.2" xlink:href="#未命名的渐变_39"/><linearGradient id="未命名的渐变_127-5" x1="306.35" y1="478.91" x2="1549.73" y2="378.1" xlink:href="#未命名的渐变_127"/><linearGradient id="未命名的渐变_39-79" x1="283.23" y1="405.2" x2="634.43" y2="405.2" xlink:href="#未命名的渐变_39"/><linearGradient id="未命名的渐变_127-6" x1="302.53" y1="431.88" x2="1545.92" y2="331.07" xlink:href="#未命名的渐变_127"/><linearGradient id="未命名的渐变_39-80" x1="283.23" y1="402.93" x2="634.43" y2="402.93" xlink:href="#未命名的渐变_39"/><linearGradient id="未命名的渐变_127-7" x1="302.36" y1="429.68" x2="1545.74" y2="328.86" xlink:href="#未命名的渐变_127"/><linearGradient id="未命名的渐变_39-81" x1="283.23" y1="400.61" x2="634.43" y2="400.61" xlink:href="#未命名的渐变_39"/><linearGradient id="未命名的渐变_127-8" x1="302.17" y1="427.43" x2="1545.56" y2="326.61" xlink:href="#未命名的渐变_127"/><linearGradient id="未命名的渐变_39-82" x1="283.23" y1="392.31" x2="336.45" y2="392.31" xlink:href="#未命名的渐变_39"/><linearGradient id="未命名的渐变_127-9" x1="283.42" y1="392.31" x2="283.42" y2="392.31" xlink:href="#未命名的渐变_127"/><linearGradient id="未命名的渐变_39-83" x1="283.23" y1="409.67" x2="634.43" y2="409.67" xlink:href="#未命名的渐变_39"/><linearGradient id="未命名的渐变_127-10" x1="302.88" y1="436.19" x2="1546.27" y2="335.37" xlink:href="#未命名的渐变_127"/><linearGradient id="未命名的渐变_39-84" x1="283.23" y1="398.27" x2="634.43" y2="398.27" xlink:href="#未命名的渐变_39"/><linearGradient id="未命名的渐变_127-11" x1="301.99" y1="425.14" x2="1545.37" y2="324.32" xlink:href="#未命名的渐变_127"/><linearGradient id="未命名的渐变_39-85" x1="283.23" y1="407.45" x2="634.43" y2="407.45" xlink:href="#未命名的渐变_39"/><linearGradient id="未命名的渐变_127-12" x1="302.71" y1="434.05" x2="1546.09" y2="333.24" xlink:href="#未命名的渐变_127"/><linearGradient id="未命名的渐变_39-86" x1="283.23" y1="472.01" x2="634.43" y2="472.01" xlink:href="#未命名的渐变_39"/><linearGradient id="未命名的渐变_127-13" x1="306.23" y1="477.41" x2="1549.61" y2="376.59" xlink:href="#未命名的渐变_127"/><linearGradient id="未命名的渐变_39-87" x1="283.23" y1="409.89" x2="634.43" y2="409.89" xlink:href="#未命名的渐变_39"/><linearGradient id="未命名的渐变_127-14" x1="300.67" y1="408.85" x2="1137.74" y2="340.98" xlink:href="#未命名的渐变_127"/><linearGradient id="未命名的渐变_39-88" x1="283.23" y1="407.7" x2="634.43" y2="407.7" xlink:href="#未命名的渐变_39"/><linearGradient id="未命名的渐变_127-15" x1="300.48" y1="406.61" x2="1245.1" y2="330.02" xlink:href="#未命名的渐变_127"/><linearGradient id="未命名的渐变_39-89" x1="283.23" y1="412.05" x2="634.43" y2="412.05" xlink:href="#未命名的渐变_39"/><linearGradient id="未命名的渐变_127-16" x1="300.85" y1="411.08" x2="950.95" y2="358.37" xlink:href="#未命名的渐变_127"/><linearGradient id="未命名的渐变_39-90" x1="283.23" y1="479.89" x2="634.43" y2="479.89" xlink:href="#未命名的渐变_39"/><linearGradient id="未命名的渐变_127-17" x1="307.08" y1="487.9" x2="1550.46" y2="387.08" xlink:href="#未命名的渐变_127"/><linearGradient id="未命名的渐变_39-91" x1="283.23" y1="479.87" x2="634.43" y2="479.87" xlink:href="#未命名的渐变_39"/><linearGradient id="未命名的渐变_127-18" x1="307.77" y1="496.42" x2="1551.15" y2="395.61" xlink:href="#未命名的渐变_127"/><linearGradient id="未命名的渐变_39-92" x1="283.23" y1="479.12" x2="634.43" y2="479.12" xlink:href="#未命名的渐变_39"/><linearGradient id="未命名的渐变_127-19" x1="306.99" y1="486.79" x2="1550.37" y2="385.97" xlink:href="#未命名的渐变_127"/><linearGradient id="未命名的渐变_39-93" x1="283.23" y1="403.28" x2="634.43" y2="403.28" xlink:href="#未命名的渐变_39"/><linearGradient id="未命名的渐变_127-20" x1="300.12" y1="402.09" x2="1215.76" y2="327.85" xlink:href="#未命名的渐变_127"/><linearGradient id="未命名的渐变_39-94" x1="283.23" y1="405.5" x2="634.43" y2="405.5" xlink:href="#未命名的渐变_39"/><linearGradient id="未命名的渐变_127-21" x1="300.3" y1="404.35" x2="1263.12" y2="326.29" xlink:href="#未命名的渐变_127"/><linearGradient id="未命名的渐变_39-95" x1="283.23" y1="478.26" x2="634.43" y2="478.26" xlink:href="#未命名的渐变_39"/><linearGradient id="未命名的渐变_127-22" x1="307.69" y1="495.51" x2="1551.08" y2="394.69" xlink:href="#未命名的渐变_127"/><linearGradient id="未命名的渐变_39-96" x1="283.23" y1="479.1" x2="634.43" y2="479.1" xlink:href="#未命名的渐变_39"/><linearGradient id="未命名的渐变_127-23" x1="307.73" y1="496" x2="1551.11" y2="395.18" xlink:href="#未命名的渐变_127"/><linearGradient id="未命名的渐变_39-97" x1="283.23" y1="468.08" x2="634.43" y2="468.08" xlink:href="#未命名的渐变_39"/><linearGradient id="未命名的渐变_127-24" x1="305.83" y1="472.57" x2="760.84" y2="435.68" xlink:href="#未命名的渐变_127"/><linearGradient id="未命名的渐变_39-98" x1="283.23" y1="475.41" x2="634.43" y2="475.41" xlink:href="#未命名的渐变_39"/><linearGradient id="未命名的渐变_127-25" x1="306.58" y1="481.76" x2="1549.96" y2="380.95" xlink:href="#未命名的渐变_127"/><linearGradient id="未命名的渐变_39-99" x1="283.23" y1="469.45" x2="634.43" y2="469.45" xlink:href="#未命名的渐变_39"/><linearGradient id="未命名的渐变_127-26" x1="305.97" y1="474.24" x2="1549.35" y2="373.42" xlink:href="#未命名的渐变_127"/><linearGradient id="未命名的渐变_39-100" x1="283.23" y1="470.75" x2="634.43" y2="470.75" xlink:href="#未命名的渐变_39"/><linearGradient id="未命名的渐变_127-27" x1="306.1" y1="475.85" x2="1549.48" y2="375.03" xlink:href="#未命名的渐变_127"/><linearGradient id="未命名的渐变_39-101" x1="283.23" y1="474.33" x2="634.43" y2="474.33" xlink:href="#未命名的渐变_39"/><linearGradient id="未命名的渐变_127-28" x1="306.47" y1="480.36" x2="1549.85" y2="379.55" xlink:href="#未命名的渐变_127"/><linearGradient id="未命名的渐变_39-102" x1="283.23" y1="476.43" x2="634.43" y2="476.43" xlink:href="#未命名的渐变_39"/><linearGradient id="未命名的渐变_127-29" x1="306.69" y1="483.1" x2="1550.07" y2="382.29" xlink:href="#未命名的渐变_127"/><linearGradient id="未命名的渐变_39-103" x1="283.23" y1="416.31" x2="351.1" y2="416.31" xlink:href="#未命名的渐变_39"/><linearGradient id="未命名的渐变_127-30" x1="301.21" y1="415.49" x2="358.68" y2="410.83" xlink:href="#未命名的渐变_127"/><linearGradient id="未命名的渐变_39-104" x1="283.23" y1="414.2" x2="634.43" y2="414.2" xlink:href="#未命名的渐变_39"/><linearGradient id="未命名的渐变_127-31" x1="301.03" y1="413.29" x2="691.79" y2="381.61" xlink:href="#未命名的渐变_127"/><linearGradient id="未命名的渐变_39-105" x1="283.23" y1="478.28" x2="634.43" y2="478.28" xlink:href="#未命名的渐变_39"/><linearGradient id="未命名的渐变_127-32" x1="306.89" y1="485.62" x2="1550.27" y2="384.8" xlink:href="#未命名的渐变_127"/><linearGradient id="未命名的渐变_39-106" x1="283.23" y1="477.38" x2="634.43" y2="477.38" xlink:href="#未命名的渐变_39"/><linearGradient id="未命名的渐变_127-33" x1="306.79" y1="484.39" x2="1550.17" y2="383.57" xlink:href="#未命名的渐变_127"/><linearGradient id="未命名的渐变_39-107" x1="283.23" y1="401.04" x2="634.43" y2="401.04" xlink:href="#未命名的渐变_39"/><linearGradient id="未命名的渐变_127-34" x1="299.93" y1="399.82" x2="1093.48" y2="335.48" xlink:href="#未命名的渐变_127"/><linearGradient id="未命名的渐变_39-108" x1="283.23" y1="470.74" x2="634.43" y2="470.74" xlink:href="#未命名的渐变_39"/><linearGradient id="未命名的渐变_127-35" x1="307.27" y1="490.32" x2="1550.65" y2="389.51" xlink:href="#未命名的渐变_127"/><linearGradient id="未命名的渐变_39-109" x1="283.23" y1="469.43" x2="634.43" y2="469.43" xlink:href="#未命名的渐变_39"/><linearGradient id="未命名的渐变_127-36" x1="307.19" y1="489.33" x2="1550.57" y2="388.52" xlink:href="#未命名的渐变_127"/><linearGradient id="未命名的渐变_39-110" x1="283.23" y1="471.99" x2="634.43" y2="471.99" xlink:href="#未命名的渐变_39"/><linearGradient id="未命名的渐变_127-37" x1="307.35" y1="491.25" x2="1550.73" y2="390.43" xlink:href="#未命名的渐变_127"/><linearGradient id="未命名的渐变_39-111" x1="283.23" y1="392.39" x2="634.43" y2="392.39" xlink:href="#未命名的渐变_39"/><linearGradient id="未命名的渐变_127-38" x1="301.52" y1="419.35" x2="1544.9" y2="318.54" xlink:href="#未命名的渐变_127"/><linearGradient id="未命名的渐变_39-112" x1="283.23" y1="482.31" x2="634.43" y2="482.31" xlink:href="#未命名的渐变_39"/><linearGradient id="未命名的渐变_127-39" x1="307.49" y1="493.06" x2="1550.88" y2="392.25" xlink:href="#未命名的渐变_127"/><linearGradient id="未命名的渐变_39-113" x1="283.23" y1="474.32" x2="634.43" y2="474.32" xlink:href="#未命名的渐变_39"/><linearGradient id="未命名的渐变_127-40" x1="307.48" y1="492.92" x2="1550.87" y2="392.1" xlink:href="#未命名的渐变_127"/><linearGradient id="未命名的渐变_39-114" x1="283.23" y1="473.18" x2="634.43" y2="473.18" xlink:href="#未命名的渐变_39"/><linearGradient id="未命名的渐变_127-41" x1="307.42" y1="492.11" x2="1550.8" y2="391.3" xlink:href="#未命名的渐变_127"/><linearGradient id="未命名的渐变_39-115" x1="283.23" y1="420.38" x2="634.43" y2="420.38" xlink:href="#未命名的渐变_39"/><linearGradient id="未命名的渐变_127-42" x1="303.71" y1="446.36" x2="1547.09" y2="345.55" xlink:href="#未命名的渐变_127"/><linearGradient id="未命名的渐变_39-116" x1="283.23" y1="422.44" x2="634.43" y2="422.44" xlink:href="#未命名的渐变_39"/><linearGradient id="未命名的渐变_127-43" x1="303.87" y1="448.3" x2="1087.11" y2="384.79" xlink:href="#未命名的渐变_127"/><linearGradient id="未命名的渐变_39-117" x1="590.78" y1="424.47" x2="651.82" y2="424.47" xlink:href="#未命名的渐变_39"/><linearGradient id="未命名的渐变_127-44" x1="587.64" y1="427.2" x2="654.96" y2="421.74" xlink:href="#未命名的渐变_127"/><linearGradient id="未命名的渐变_39-118" x1="283.23" y1="466.65" x2="634.43" y2="466.65" xlink:href="#未命名的渐变_39"/><linearGradient id="未命名的渐变_127-45" x1="307.02" y1="487.18" x2="1494.23" y2="390.92" xlink:href="#未命名的渐变_127"/><linearGradient id="未命名的渐变_39-119" x1="283.23" y1="468.07" x2="634.43" y2="468.07" xlink:href="#未命名的渐变_39"/><linearGradient id="未命名的渐变_127-46" x1="307.11" y1="488.28" x2="1550.49" y2="387.47" xlink:href="#未命名的渐变_127"/><linearGradient id="未命名的渐变_39-120" x1="283.23" y1="418.29" x2="634.43" y2="418.29" xlink:href="#未命名的渐变_39"/><linearGradient id="未命名的渐变_127-47" x1="303.55" y1="444.39" x2="1546.93" y2="343.58" xlink:href="#未命名的渐变_127"/><linearGradient id="未命名的渐变_39-121" x1="283.23" y1="476.41" x2="634.43" y2="476.41" xlink:href="#未命名的渐变_39"/><linearGradient id="未命名的渐变_127-48" x1="307.6" y1="494.34" x2="1550.98" y2="393.52" xlink:href="#未命名的渐变_127"/><linearGradient id="未命名的渐变_39-122" x1="283.23" y1="398.8" x2="634.43" y2="398.8" xlink:href="#未命名的渐变_39"/><linearGradient id="未命名的渐变_127-49" x1="299.75" y1="397.56" x2="906.35" y2="348.37" xlink:href="#未命名的渐变_127"/><linearGradient id="未命名的渐变_39-123" x1="283.23" y1="477.37" x2="634.43" y2="477.37" xlink:href="#未命名的渐变_39"/><linearGradient id="未命名的渐变_127-50" x1="307.65" y1="494.95" x2="1551.03" y2="394.14" xlink:href="#未命名的渐变_127"/><linearGradient id="未命名的渐变_39-124" x1="283.23" y1="475.39" x2="634.43" y2="475.39" xlink:href="#未命名的渐变_39"/><linearGradient id="未命名的渐变_127-51" x1="307.54" y1="493.66" x2="1550.93" y2="392.84" xlink:href="#未命名的渐变_127"/><linearGradient id="未命名的渐变_39-125" x1="283.23" y1="396.57" x2="634.43" y2="396.57" xlink:href="#未命名的渐变_39"/><linearGradient id="未命名的渐变_127-52" x1="299.57" y1="395.31" x2="659.07" y2="366.16" xlink:href="#未命名的渐变_127"/><linearGradient id="未命名的渐变_39-126" x1="283.23" y1="394.38" x2="634.43" y2="394.38" xlink:href="#未命名的渐变_39"/><linearGradient id="未命名的渐变_127-53" x1="299.39" y1="393.1" x2="410.03" y2="384.13" xlink:href="#未命名的渐变_127"/><linearGradient id="未命名的渐变_127-54" x1="304.47" y1="455.73" x2="1547.85" y2="354.91" xlink:href="#未命名的渐变_127"/><linearGradient id="未命名的渐变_39-127" x1="-98.63" y1="457.11" x2="705.22" y2="457.11" xlink:href="#未命名的渐变_39"/><linearGradient id="未命名的渐变_127-55" x1="303.92" y1="448.95" x2="1547.3" y2="348.13" xlink:href="#未命名的渐变_127"/><linearGradient id="未命名的渐变_39-128" x1="-98.63" y1="450.47" x2="705.22" y2="450.47" xlink:href="#未命名的渐变_39"/><linearGradient id="未命名的渐变_127-56" x1="311.76" y1="545.62" x2="1555.14" y2="444.81" xlink:href="#未命名的渐变_127"/><linearGradient id="未命名的渐变_39-129" x1="-98.63" y1="531.47" x2="705.22" y2="531.47" xlink:href="#未命名的渐变_39"/><linearGradient id="未命名的渐变_127-57" x1="304.65" y1="457.96" x2="1548.03" y2="357.15" xlink:href="#未命名的渐变_127"/><linearGradient id="未命名的渐变_39-130" x1="-98.63" y1="459.29" x2="705.22" y2="459.29" xlink:href="#未命名的渐变_39"/><linearGradient id="未命名的渐变_127-58" x1="303.73" y1="446.67" x2="1547.12" y2="345.86" xlink:href="#未命名的渐变_127"/><linearGradient id="未命名的渐变_39-131" x1="-98.63" y1="448.23" x2="705.22" y2="448.23" xlink:href="#未命名的渐变_39"/><linearGradient id="未命名的渐变_127-59" x1="304.29" y1="453.48" x2="1547.67" y2="352.66" xlink:href="#未命名的渐变_127"/><linearGradient id="未命名的渐变_39-132" x1="-98.63" y1="454.91" x2="705.22" y2="454.91" xlink:href="#未命名的渐变_39"/><linearGradient id="未命名的渐变_127-60" x1="304.1" y1="451.22" x2="1547.48" y2="350.4" xlink:href="#未命名的渐变_127"/><linearGradient id="未命名的渐变_39-133" x1="-98.63" y1="452.7" x2="705.22" y2="452.7" xlink:href="#未命名的渐变_39"/><linearGradient id="未命名的渐变_127-61" x1="311.75" y1="545.53" x2="1555.13" y2="444.71" xlink:href="#未命名的渐变_127"/><linearGradient id="未命名的渐变_39-134" x1="-98.63" y1="530.88" x2="705.22" y2="530.88" xlink:href="#未命名的渐变_39"/><linearGradient id="未命名的渐变_127-62" x1="310.31" y1="527.8" x2="1553.69" y2="426.99" xlink:href="#未命名的渐变_127"/><linearGradient id="未命名的渐变_39-135" x1="-98.63" y1="522.21" x2="705.22" y2="522.21" xlink:href="#未命名的渐变_39"/><linearGradient id="未命名的渐变_127-63" x1="310.99" y1="536.11" x2="1554.37" y2="435.3" xlink:href="#未命名的渐变_127"/><linearGradient id="未命名的渐变_39-136" x1="-98.63" y1="528.34" x2="705.22" y2="528.34" xlink:href="#未命名的渐变_39"/><linearGradient id="未命名的渐变_127-64" x1="310.9" y1="535.08" x2="1554.28" y2="434.27" xlink:href="#未命名的渐变_127"/><linearGradient id="未命名的渐变_39-137" x1="-98.63" y1="527.63" x2="705.22" y2="527.63" xlink:href="#未命名的渐变_39"/><linearGradient id="未命名的渐变_127-65" x1="310.72" y1="532.86" x2="1554.1" y2="432.05" xlink:href="#未命名的渐变_127"/><linearGradient id="未命名的渐变_39-138" x1="-98.63" y1="526.04" x2="705.22" y2="526.04" xlink:href="#未命名的渐变_39"/><linearGradient id="未命名的渐变_127-66" x1="304.83" y1="460.19" x2="1548.21" y2="359.37" xlink:href="#未命名的渐变_127"/><linearGradient id="未命名的渐变_39-139" x1="-98.63" y1="461.44" x2="705.22" y2="461.44" xlink:href="#未命名的渐变_39"/><linearGradient id="未命名的渐变_127-67" x1="311.75" y1="545.58" x2="1555.14" y2="444.77" xlink:href="#未命名的渐变_127"/><linearGradient id="未命名的渐变_39-140" x1="-98.63" y1="532" x2="705.22" y2="532" xlink:href="#未命名的渐变_39"/><linearGradient id="未命名的渐变_127-68" x1="311.73" y1="545.3" x2="1555.11" y2="444.49" xlink:href="#未命名的渐变_127"/><linearGradient id="未命名的渐变_39-141" x1="-98.63" y1="532.44" x2="705.22" y2="532.44" xlink:href="#未命名的渐变_39"/><linearGradient id="未命名的渐变_127-69" x1="311.7" y1="544.91" x2="1555.08" y2="444.09" xlink:href="#未命名的渐变_127"/><linearGradient id="未命名的渐变_39-142" x1="-98.63" y1="532.61" x2="705.22" y2="532.61" xlink:href="#未命名的渐变_39"/><linearGradient id="未命名的渐变_127-70" x1="310.81" y1="534" x2="1554.2" y2="433.19" xlink:href="#未命名的渐变_127"/><linearGradient id="未命名的渐变_39-143" x1="-98.63" y1="526.86" x2="705.22" y2="526.86" xlink:href="#未命名的渐变_39"/><linearGradient id="未命名的渐变_127-71" x1="310.53" y1="530.44" x2="1553.91" y2="429.62" xlink:href="#未命名的渐变_127"/><linearGradient id="未命名的渐变_39-144" x1="-98.63" y1="524.23" x2="705.22" y2="524.23" xlink:href="#未命名的渐变_39"/><linearGradient id="未命名的渐变_127-72" x1="310.08" y1="524.98" x2="1553.46" y2="424.16" xlink:href="#未命名的渐变_127"/><linearGradient id="未命名的渐变_39-145" x1="-98.63" y1="519.97" x2="705.22" y2="519.97" xlink:href="#未命名的渐变_39"/><linearGradient id="未命名的渐变_127-73" x1="305.01" y1="462.39" x2="1548.39" y2="361.58" xlink:href="#未命名的渐变_127"/><linearGradient id="未命名的渐变_39-146" x1="-98.63" y1="463.57" x2="705.22" y2="463.57" xlink:href="#未命名的渐变_39"/><linearGradient id="未命名的渐变_127-74" x1="309.96" y1="523.49" x2="1553.34" y2="422.68" xlink:href="#未命名的渐变_127"/><linearGradient id="未命名的渐变_39-147" x1="-98.63" y1="518.78" x2="705.22" y2="518.78" xlink:href="#未命名的渐变_39"/><linearGradient id="未命名的渐变_127-75" x1="310.42" y1="529.15" x2="1553.8" y2="428.33" xlink:href="#未命名的渐变_127"/><linearGradient id="未命名的渐变_39-148" x1="-98.63" y1="523.25" x2="705.22" y2="523.25" xlink:href="#未命名的渐变_39"/><linearGradient id="未命名的渐变_127-76" x1="310.2" y1="526.41" x2="1553.58" y2="425.6" xlink:href="#未命名的渐变_127"/><linearGradient id="未命名的渐变_39-149" x1="-98.63" y1="521.11" x2="705.22" y2="521.11" xlink:href="#未命名的渐变_39"/><linearGradient id="未命名的渐变_127-77" x1="310.63" y1="531.68" x2="1554.01" y2="430.86" xlink:href="#未命名的渐变_127"/><linearGradient id="未命名的渐变_39-150" x1="-98.63" y1="525.16" x2="705.22" y2="525.16" xlink:href="#未命名的渐变_39"/><linearGradient id="未命名的渐变_39-151" x1="-1970.16" y1="507.79" x2="1052.19" y2="507.79" xlink:href="#未命名的渐变_39"/><linearGradient id="未命名的渐变_127-78" x1="307.5" y1="493.11" x2="1550.88" y2="392.29" xlink:href="#未命名的渐变_127"/><linearGradient id="未命名的渐变_39-152" x1="-98.63" y1="491.39" x2="705.22" y2="491.39" xlink:href="#未命名的渐变_39"/><linearGradient id="未命名的渐变_127-79" x1="303.55" y1="444.4" x2="1546.93" y2="343.58" xlink:href="#未命名的渐变_127"/><linearGradient id="未命名的渐变_39-153" x1="-98.63" y1="445.97" x2="705.22" y2="445.97" xlink:href="#未命名的渐变_39"/><linearGradient id="未命名的渐变_127-80" x1="302.93" y1="436.73" x2="1546.31" y2="335.91" xlink:href="#未命名的渐变_127"/><linearGradient id="未命名的渐变_39-154" x1="-98.63" y1="438.32" x2="705.22" y2="438.32" xlink:href="#未命名的渐变_39"/><linearGradient id="未命名的渐变_127-81" x1="303.37" y1="442.14" x2="1163.38" y2="372.41" xlink:href="#未命名的渐变_127"/><linearGradient id="未命名的渐变_39-155" x1="-98.63" y1="443.73" x2="705.22" y2="443.73" xlink:href="#未命名的渐变_39"/><linearGradient id="未命名的渐变_127-82" x1="303.19" y1="439.93" x2="648.78" y2="411.91" xlink:href="#未命名的渐变_127"/><linearGradient id="未命名的渐变_39-156" x1="-98.63" y1="441.53" x2="705.22" y2="441.53" xlink:href="#未命名的渐变_39"/><linearGradient id="未命名的渐变_48" x1="-155.27" y1="553.05" x2="760.78" y2="553.05" gradientUnits="userSpaceOnUse"><stop offset="0" stop-color="#98c7ea"/><stop offset="0.52" stop-color="#fff"/><stop offset="1" stop-color="#98c7ea"/></linearGradient><linearGradient id="未命名的渐变_39-157" x1="-98.63" y1="514.39" x2="705.22" y2="514.39" xlink:href="#未命名的渐变_39"/><linearGradient id="未命名的渐变_48-2" x1="-155.27" y1="514.39" x2="760.78" y2="514.39" xlink:href="#未命名的渐变_48"/><linearGradient id="未命名的渐变_127-83" x1="458.11" y1="621.98" x2="645.5" y2="606.79" xlink:href="#未命名的渐变_127"/><linearGradient id="未命名的渐变_48-3" x1="-155.27" y1="593.31" x2="760.78" y2="593.31" xlink:href="#未命名的渐变_48"/><linearGradient id="未命名的渐变_127-84" x1="456.16" y1="597.99" x2="643.55" y2="582.8" xlink:href="#未命名的渐变_127"/><linearGradient id="未命名的渐变_48-4" x1="-155.27" y1="621.42" x2="760.78" y2="621.42" xlink:href="#未命名的渐变_48"/><linearGradient id="未命名的渐变_127-85" x1="458.24" y1="623.59" x2="645.63" y2="608.4" xlink:href="#未命名的渐变_127"/><linearGradient id="未命名的渐变_48-5" x1="-155.27" y1="621.45" x2="760.78" y2="621.45" xlink:href="#未命名的渐变_48"/><linearGradient id="未命名的渐变_127-86" x1="458.24" y1="623.59" x2="645.63" y2="608.4" xlink:href="#未命名的渐变_127"/><linearGradient id="未命名的渐变_39-158" x1="-440.67" y1="616.97" x2="1060.85" y2="616.97" xlink:href="#未命名的渐变_39"/><linearGradient id="未命名的渐变_39-159" x1="-440.67" y1="584.53" x2="1060.85" y2="584.53" xlink:href="#未命名的渐变_39"/><linearGradient id="未命名的渐变_127-87" x1="463.96" y1="667.67" x2="484.57" y2="666" xlink:href="#未命名的渐变_127"/><linearGradient id="未命名的渐变_39-160" x1="443.53" y1="668.49" x2="464.04" y2="668.49" xlink:href="#未命名的渐变_39"/><linearGradient id="未命名的渐变_48-6" x1="-155.27" y1="573.16" x2="760.78" y2="573.16" xlink:href="#未命名的渐变_48"/><linearGradient id="未命名的渐变_39-161" x1="-440.67" y1="573.16" x2="1060.85" y2="573.16" xlink:href="#未命名的渐变_39"/><linearGradient id="未命名的渐变_127-88" x1="458.11" y1="621.98" x2="645.5" y2="606.79" xlink:href="#未命名的渐变_127"/><linearGradient id="未命名的渐变_39-162" x1="-440.67" y1="616.96" x2="1060.85" y2="616.96" xlink:href="#未命名的渐变_39"/><linearGradient id="未命名的渐变_39-163" x1="-440.67" y1="661.61" x2="1060.85" y2="661.61" xlink:href="#未命名的渐变_39"/><linearGradient id="未命名的渐变_39-164" x1="-440.67" y1="644.04" x2="1060.85" y2="644.04" xlink:href="#未命名的渐变_39"/><linearGradient id="未命名的渐变_39-165" x1="-440.67" y1="667.2" x2="1060.85" y2="667.2" xlink:href="#未命名的渐变_39"/><linearGradient id="未命名的渐变_39-166" x1="-440.67" y1="665.5" x2="462.16" y2="665.5" xlink:href="#未命名的渐变_39"/><linearGradient id="未命名的渐变_39-167" x1="463.25" y1="664.04" x2="560.42" y2="664.04" xlink:href="#未命名的渐变_39"/><linearGradient id="未命名的渐变_48-7" x1="-155.27" y1="620.31" x2="760.78" y2="620.31" xlink:href="#未命名的渐变_48"/><linearGradient id="未命名的渐变_39-168" x1="-440.67" y1="620.31" x2="1060.85" y2="620.31" xlink:href="#未命名的渐变_39"/><linearGradient id="未命名的渐变_127-89" x1="458.24" y1="623.59" x2="645.63" y2="608.4" xlink:href="#未命名的渐变_127"/><linearGradient id="未命名的渐变_39-169" x1="-440.67" y1="621.45" x2="1060.85" y2="621.45" xlink:href="#未命名的渐变_39"/><linearGradient id="未命名的渐变_127-90" x1="464.97" y1="668.65" x2="724.54" y2="647.61" xlink:href="#未命名的渐变_127"/><linearGradient id="未命名的渐变_127-91" x1="464.9" y1="667.77" x2="724.47" y2="646.72" xlink:href="#未命名的渐变_127"/><linearGradient id="未命名的渐变_127-92" x1="464.93" y1="668.2" x2="724.5" y2="647.15" xlink:href="#未命名的渐变_127"/><linearGradient id="未命名的渐变_127-93" x1="464.93" y1="668.13" x2="724.5" y2="647.08" xlink:href="#未命名的渐变_127"/><linearGradient id="未命名的渐变_127-94" x1="464.67" y1="664.95" x2="724.24" y2="643.9" xlink:href="#未命名的渐变_127"/><linearGradient id="未命名的渐变_39-170" x1="-440.67" y1="641.44" x2="1060.85" y2="641.44" xlink:href="#未命名的渐变_39"/><linearGradient id="未命名的渐变_127-95" x1="463.37" y1="644.58" x2="731.02" y2="622.88" xlink:href="#未命名的渐变_127"/><linearGradient id="未命名的渐变_137" x1="536.72" y1="546.96" x2="608.5" y2="639" gradientUnits="userSpaceOnUse"><stop offset="0.01" stop-color="#51a6f9"/><stop offset="1" stop-color="#0070f3"/></linearGradient><linearGradient id="未命名的渐变_137-2" x1="555.87" y1="563.32" x2="555.87" y2="563.32" gradientTransform="translate(538.53 -227.89) rotate(43.36)" xlink:href="#未命名的渐变_137"/><linearGradient id="未命名的渐变_137-3" x1="536.79" y1="579.15" x2="553.3" y2="600.32" xlink:href="#未命名的渐变_137"/><linearGradient id="未命名的渐变_137-4" x1="536.79" y1="579.15" x2="553.3" y2="600.32" xlink:href="#未命名的渐变_137"/><linearGradient id="未命名的渐变_137-5" x1="532.8" y1="614.33" x2="532.81" y2="614.34" xlink:href="#未命名的渐变_137"/><linearGradient id="未命名的渐变_137-6" x1="532.8" y1="614.33" x2="532.8" y2="614.33" gradientTransform="translate(221.61 -136.96) rotate(18.43)" xlink:href="#未命名的渐变_137"/><linearGradient id="未命名的渐变_137-7" x1="522.59" y1="622.81" x2="531.45" y2="634.16" xlink:href="#未命名的渐变_137"/><linearGradient id="未命名的渐变_137-8" x1="522.59" y1="622.81" x2="531.43" y2="634.16" xlink:href="#未命名的渐变_137"/><linearGradient id="未命名的渐变_137-9" x1="605.03" y1="489.9" x2="610.7" y2="497.17" xlink:href="#未命名的渐变_137"/><linearGradient id="未命名的渐变_137-10" x1="594.27" y1="506.34" x2="731.24" y2="681.98" xlink:href="#未命名的渐变_137"/><linearGradient id="未命名的渐变_134" x1="652.69" y1="586.08" x2="689.93" y2="623.32" gradientUnits="userSpaceOnUse"><stop offset="0.01" stop-color="#0753a0"/><stop offset="1" stop-color="#0083ef"/></linearGradient><linearGradient id="未命名的渐变_137-11" x1="669.28" y1="496.98" x2="680.55" y2="511.43" xlink:href="#未命名的渐变_137"/></defs><title>基础配置2.5D</title><path class="cls-1" d="M477.48,532.11q-2.7.16-5.43.27Q474.77,532.27,477.48,532.11Z"/><path class="cls-1" d="M384.06,475.19l-2.53-.67Z"/><path class="cls-1" d="M286.1,405.25c-.19-.56-.37-1.12-.54-1.68C285.73,404.13,285.91,404.69,286.1,405.25Z"/><path class="cls-1" d="M633.64,397l-.06.29Z"/><path class="cls-1" d="M518.82,478.58l-1,.19Z"/><path class="cls-1" d="M633.2,399.24c0,.17-.08.35-.12.52C633.12,399.59,633.17,399.42,633.2,399.24Z"/><path class="cls-1" d="M523.2,477.67l-1.31.28Z"/><path class="cls-1" d="M632.68,401.47c-.06.24-.13.48-.2.71C632.54,401.94,632.62,401.71,632.68,401.47Z"/><path class="cls-1" d="M632.06,403.67c-.09.3-.19.59-.28.88C631.87,404.26,632,404,632.06,403.67Z"/><path class="cls-1" d="M285.4,403c-.16-.54-.31-1.08-.45-1.63C285.09,401.91,285.24,402.45,285.4,403Z"/><path class="cls-1" d="M287.79,409.73c-.26-.61-.51-1.21-.74-1.82C287.28,408.52,287.53,409.12,287.79,409.73Z"/><path class="cls-1" d="M631.36,405.85c-.12.35-.25.69-.38,1C631.11,406.54,631.24,406.2,631.36,405.85Z"/><path class="cls-1" d="M398.15,526.73l-2.43-.51Z"/><path class="cls-1" d="M552.35,469.53l-3.15,1.07Z"/><path class="cls-1" d="M394,525.86,392,525.4Z"/><path class="cls-1" d="M514.39,479.43l-.54.1Z"/><path class="cls-1" d="M402.33,527.55,399.5,527Z"/><path class="cls-1" d="M286.9,407.5c-.22-.58-.43-1.16-.63-1.75C286.46,406.33,286.68,406.91,286.9,407.5Z"/><path class="cls-1" d="M468.76,532.5l-3.53.09Z"/><path class="cls-1" d="M509.92,480.22l-.1,0Z"/><path class="cls-1" d="M406.55,528.3l-3.25-.58Z"/><path class="cls-1" d="M408.06,480.27l-.37-.06Z"/><path class="cls-1" d="M291,416.32c7.64,13.6,20.59,25.92,37.53,36.22a188.29,188.29,0,0,0,32.65,15.52A186.43,186.43,0,0,1,327,451.56C310.83,441.46,298.43,429.49,291,416.32Z"/><path class="cls-1" d="M622.73,422.5q-.69,1-1.42,2Q622,423.49,622.73,422.5Z"/><path class="cls-1" d="M540.21,473.38l-2.49.7Z"/><path class="cls-1" d="M283.61,394.11c-.07-.58-.14-1.17-.19-1.76C283.47,392.95,283.54,393.53,283.61,394.11Z"/><path class="cls-1" d="M624.08,420.5q-.62.94-1.27,1.87Q623.47,421.44,624.08,420.5Z"/><path class="cls-1" d="M556.27,468.13q-1.65.61-3.33,1.19Q554.62,468.74,556.27,468.13Z"/><path class="cls-1" d="M625.36,418.48q-.54.89-1.12,1.77C624.63,419.67,625,419.08,625.36,418.48Z"/><path class="cls-1" d="M284.8,400.73c-.13-.53-.26-1.05-.37-1.58C284.54,399.67,284.67,400.2,284.8,400.73Z"/><path class="cls-1" d="M544.32,472.16l-2.74.82Z"/><path class="cls-1" d="M590.66,451.56a183,183,0,0,1-30.4,15.06,184.8,184.8,0,0,0,28.83-14.07c13.49-8.2,24.44-17.68,32.2-28.07C613.84,434.45,603.42,443.59,590.66,451.56Z"/><path class="cls-1" d="M560.12,466.68q-1.73.67-3.49,1.32Q558.39,467.35,560.12,466.68Z"/><path class="cls-1" d="M284.3,398.47c-.1-.52-.21-1-.3-1.57C284.09,397.42,284.19,397.94,284.3,398.47Z"/><path class="cls-1" d="M629.69,410.16c-.19.44-.39.87-.59,1.3C629.3,411,629.5,410.59,629.69,410.16Z"/><path class="cls-1" d="M628.73,412.27c-.23.48-.47,1-.71,1.43C628.26,413.23,628.5,412.75,628.73,412.27Z"/><path class="cls-1" d="M527.53,476.69l-1.64.37Z"/><path class="cls-1" d="M536,474.55l-2.24.59Z"/><path class="cls-1" d="M630.56,408c-.15.39-.32.78-.48,1.17C630.25,408.8,630.41,408.41,630.56,408Z"/><path class="cls-1" d="M626.56,416.44c-.31.56-.64,1.11-1,1.66C625.92,417.55,626.25,417,626.56,416.44Z"/><path class="cls-1" d="M283.9,396.25c-.08-.54-.17-1.07-.24-1.61C283.73,395.18,283.82,395.71,283.9,396.25Z"/><path class="cls-1" d="M627.69,414.37c-.27.52-.55,1-.83,1.55C627.14,415.4,627.42,414.88,627.69,414.37Z"/><path class="cls-1" d="M531.82,475.65l-2,.48Z"/><path class="cls-1" d="M289.85,414.14q-.51-1-1-2Q289.34,413.15,289.85,414.14Z"/><path class="cls-1" d="M380.15,474.14l-2.79-.79Z"/><path class="cls-1" d="M376.27,473l-3-.91Z"/><path class="cls-1" d="M450,532.54a307.61,307.61,0,0,1-43-4.15,307.25,307.25,0,0,0,43,4.16q4.36.12,8.77.12c.85,0,1.69,0,2.54,0l-2.54,0Q454.41,532.66,450,532.54Z"/><path class="cls-1" d="M372.45,471.88l-3.26-1Z"/><path class="cls-1" d="M285.56,451.86c-.06-.19-.11-.38-.16-.57C285.45,451.47,285.5,451.67,285.56,451.86Z"/><path class="cls-1" d="M287.92,458.34l-.13-.31Z"/><path class="cls-1" d="M288.87,460.45l-.1-.21Z"/><path class="cls-1" d="M287,456.2l-.15-.41Z"/><path class="cls-1" d="M286.26,454l-.16-.5Z"/><path class="cls-1" d="M289.91,462.54l-.06-.12Z"/><path class="cls-1" d="M500.7,529.88q-3.66.49-7.38.9Q497,530.37,500.7,529.88Z"/><path class="cls-1" d="M458.83,579.41c-2.51,0-5,0-7.49-.1-48.67-1.12-92.21-13.14-122.78-31.73q-1.32-.8-2.61-1.62,1.29.82,2.61,1.62c30.57,18.59,74.12,30.6,122.78,31.73,2.48.06,5,.1,7.49.1,35.88,0,69.24-5.93,97-16.09h0C528.07,573.48,494.71,579.41,458.83,579.41Z"/><path class="cls-1" d="M284,445.19c0-.22-.06-.43-.1-.65C283.93,444.76,284,445,284,445.19Z"/><path class="cls-1" d="M284.95,449.65c-.05-.21-.1-.42-.15-.64C284.85,449.23,284.9,449.44,284.95,449.65Z"/><path class="cls-1" d="M485,531.58c-1.29.11-2.57.21-3.87.3C482.43,531.79,483.71,531.69,485,531.58Z"/><path class="cls-1" d="M491.54,531c-1.31.14-2.63.26-4,.38C488.91,531.24,490.23,531.12,491.54,531Z"/><path class="cls-1" d="M283.66,442.93c0-.17,0-.35-.06-.52C283.63,442.58,283.64,442.75,283.66,442.93Z"/><path class="cls-1" d="M283.42,440.65s0-.07,0-.1S283.42,440.61,283.42,440.65Z"/><path class="cls-1" d="M291,416.31q-.57-1-1.11-2.05Q290.44,415.29,291,416.31Z"/><path class="cls-1" d="M291,464.61h0Z"/><path class="cls-1" d="M288.77,411.94q-.44-.95-.86-1.9C288.19,410.68,288.48,411.31,288.77,411.94Z"/><path class="cls-1" d="M400,478.81l-1.24-.24Z"/><path class="cls-1" d="M284.43,447.43c0-.22-.09-.45-.13-.68C284.34,447,284.38,447.21,284.43,447.43Z"/><path class="cls-1" d="M396,478l-1.6-.34Z"/><path class="cls-1" d="M377.93,521.81l-.84-.24Z"/><path class="cls-1" d="M404,479.57l-.82-.15Z"/><path class="cls-1" d="M389.93,524.93l-1.73-.42Z"/><path class="cls-1" d="M548.37,470.88l-3,.94Z"/><path class="cls-1" d="M385.88,523.95l-1.4-.36Z"/><path class="cls-1" d="M381.88,522.91l-1.11-.3Z"/><path class="cls-1" d="M366.39,518.2l-.08,0Z"/><path class="cls-1" d="M370.19,519.46l-.33-.11Z"/><path class="cls-1" d="M392,477.11l-1.93-.44Z"/><path class="cls-1" d="M368.65,470.67q-1.74-.58-3.46-1.17Q366.91,470.09,368.65,470.67Z"/><path class="cls-1" d="M388,476.18l-2.25-.55Z"/><path class="cls-1" d="M364.91,469.4q-1.83-.64-3.64-1.3Q363.07,468.76,364.91,469.4Z"/><path class="cls-1" d="M374,520.66l-.58-.18Z"/><path class="cls-2" d="M368.69,380.76l1.65,1c22.16,12.95,53.6,21,88.49,21,35.76,0,67.91-8.5,90.14-22q1.9-1.16,3.7-2.36C570,366.86,580.34,352.07,580.34,336a37.59,37.59,0,0,0-.8-7.57c-.23-1.13-.52-2.26-.85-3.37-9.49-31.7-59.53-55.89-119.86-55.89S348.47,293.31,339,325c-.33,1.11-.62,2.24-.85,3.37a37.59,37.59,0,0,0-.8,7.57C337.32,353.19,349.2,368.91,368.69,380.76Zm30.54-48.55a21.36,21.36,0,0,1,3-7.2c8.21-12.85,30.44-22.06,56.6-22.06s48.39,9.21,56.6,22.06a21.36,21.36,0,0,1,3,7.2,18.58,18.58,0,0,1,.39,3.74c0,7.7-4.8,14.77-12.83,20.38-.85.6-1.73,1.18-2.66,1.74-11,6.68-26.85,10.87-44.51,10.87a99.73,99.73,0,0,1-30-4.42,67.28,67.28,0,0,1-14.5-6.45c-9.62-5.85-15.49-13.61-15.49-22.13A18.58,18.58,0,0,1,399.22,332.21Z"/><path class="cls-3" d="M634.43,335.55c0,.08,0,.15,0,.23s0,.12,0,.18Z"/><path class="cls-4" d="M283.23,335.55v.4c0-.06,0-.12,0-.18S283.23,335.62,283.23,335.55Z"/><path class="cls-5" d="M283.23,335.55v.4c0-.06,0-.12,0-.18S283.23,335.62,283.23,335.55Z"/><path class="cls-6" d="M295.74,371.8q-.5-.69-1-1.38Q295.24,371.11,295.74,371.8Z"/><path class="cls-7" d="M288.48,359.47q-.38-.83-.73-1.66Q288.11,358.65,288.48,359.47Z"/><path class="cls-8" d="M287.57,357.36q-.35-.85-.67-1.71Q287.22,356.51,287.57,357.36Z"/><path class="cls-9" d="M286.74,355.23q-.32-.88-.62-1.76Q286.41,354.35,286.74,355.23Z"/><path class="cls-10" d="M286,353.08c-.2-.6-.38-1.2-.56-1.81Q285.7,352.18,286,353.08Z"/><path class="cls-11" d="M289.49,361.57q-.4-.8-.78-1.61Q289.09,360.77,289.49,361.57Z"/><path class="cls-12" d="M291.74,365.72q-.45-.76-.87-1.52Q291.3,365,291.74,365.72Z"/><path class="cls-13" d="M290.57,363.65q-.42-.78-.82-1.56Q290.15,362.88,290.57,363.65Z"/><path class="cls-14" d="M283.6,342.18q-.12-1.05-.2-2.12Q283.47,341.13,283.6,342.18Z"/><path class="cls-15" d="M293,367.77q-.47-.73-.91-1.48Q292.53,367,293,367.77Z"/><path class="cls-16" d="M285.34,350.92c-.18-.62-.34-1.24-.5-1.86Q285.07,350,285.34,350.92Z"/><path class="cls-17" d="M283.37,339.56l0,.27Z"/><path class="cls-18" d="M283.27,337.79q0,1.1.12,2.2c0-.26,0-.52,0-.78Q283.29,338.51,283.27,337.79Z"/><path class="cls-19" d="M283.9,344.38c-.11-.68-.2-1.36-.28-2C283.69,343,283.79,343.7,283.9,344.38Z"/><path class="cls-20" d="M284.77,348.75c-.15-.64-.3-1.28-.43-1.92C284.47,347.47,284.61,348.11,284.77,348.75Z"/><path class="cls-21" d="M284.29,346.57c-.13-.66-.25-1.32-.36-2C284,345.25,284.16,345.91,284.29,346.57Z"/><path class="cls-22" d="M311.94,388.88l-1.17-1Z"/><path class="cls-23" d="M316.34,392.4l-1.15-.89Z"/><path class="cls-24" d="M314.1,390.65l-1.16-.95Z"/><path class="cls-25" d="M326,399.11l-.87-.56Z"/><path class="cls-26" d="M309.84,387.08l-1.16-1Z"/><path class="cls-27" d="M323.47,397.47l-1-.7Z"/><path class="cls-28" d="M321,395.81l-1.11-.79Z"/><path class="cls-29" d="M318.65,394.12l-1.14-.84Z"/><path class="cls-30" d="M300.45,377.7l-1.07-1.25Z"/><path class="cls-31" d="M307.81,385.25l-1.14-1.08Z"/><path class="cls-32" d="M298.8,375.76l-1-1.3C298.1,374.89,298.45,375.33,298.8,375.76Z"/><path class="cls-33" d="M297.23,373.79c-.34-.45-.68-.89-1-1.34C296.55,372.9,296.89,373.35,297.23,373.79Z"/><path class="cls-34" d="M294.33,369.8q-.48-.71-.95-1.43Q293.84,369.08,294.33,369.8Z"/><path class="cls-35" d="M305.86,383.4l-1.13-1.13Z"/><path class="cls-36" d="M302.18,379.63l-1.09-1.21Z"/><path class="cls-37" d="M304,381.53l-1.12-1.17Z"/><path class="cls-38" d="M283.34,339.2c0-.47-.06-.94-.08-1.42,0,.61.06,1.2.11,1.78l0,.27c0,.58.11,1.16.18,1.72a54.11,54.11,0,0,1-.34-5.78c0,.06,0,.12,0,.18,0,.61,0,1.22,0,1.84S283.31,338.74,283.34,339.2Z"/><path class="cls-39" d="M283.34,339.2c0-.47-.06-.94-.08-1.42,0,.61.06,1.2.11,1.78l0,.27c0,.58.11,1.16.18,1.72a54.11,54.11,0,0,1-.34-5.78c0,.06,0,.12,0,.18,0,.61,0,1.22,0,1.84S283.31,338.74,283.34,339.2Z"/><path class="cls-40" d="M283.34,339.2c0-.47-.06-.94-.08-1.42,0,.61.06,1.2.11,1.78l0,.27c0,.58.11,1.16.18,1.72a54.11,54.11,0,0,1-.34-5.78c0,.06,0,.12,0,.18,0,.61,0,1.22,0,1.84S283.31,338.74,283.34,339.2Z"/><path class="cls-41" d="M283.23,336c0,.63,0,1.24,0,1.84C283.25,337.18,283.23,336.56,283.23,336Z"/><path class="cls-42" d="M283.23,336c0,.63,0,1.24,0,1.84C283.25,337.18,283.23,336.56,283.23,336Z"/><path class="cls-43" d="M283.23,336c0,.63,0,1.24,0,1.84C283.25,337.18,283.23,336.56,283.23,336Z"/><path class="cls-42" d="M283.23,336c0,.63,0,1.24,0,1.84C283.25,337.18,283.23,336.56,283.23,336Z"/><path class="cls-41" d="M283.23,336c0,.63,0,1.24,0,1.84C283.25,337.18,283.23,336.56,283.23,336Z"/><path class="cls-44" d="M283.93,344.59l0-.21Z"/><path class="cls-45" d="M283.93,344.59l0-.21Z"/><path class="cls-46" d="M299.38,376.45l-.58-.69Z"/><path class="cls-47" d="M299.38,376.45l-.58-.69Z"/><path class="cls-48" d="M325.12,398.54l-1.64-1.07Z"/><path class="cls-49" d="M325.12,398.54l-1.64-1.07Z"/><path class="cls-50" d="M297.76,374.46l-.53-.67Z"/><path class="cls-51" d="M297.76,374.46l-.53-.67Z"/><path class="cls-52" d="M301.09,378.42l-.63-.71Z"/><path class="cls-53" d="M301.09,378.42l-.63-.71Z"/><path class="cls-54" d="M328.56,400.71q-1.3-.79-2.58-1.6Q327.26,399.92,328.56,400.71Z"/><path class="cls-55" d="M328.56,400.71q-1.3-.79-2.58-1.6Q327.26,399.92,328.56,400.71Z"/><path class="cls-56" d="M296.22,372.45l-.48-.65Z"/><path class="cls-57" d="M296.22,372.45l-.48-.65Z"/><path class="cls-58" d="M290.87,364.2l-.3-.55Z"/><path class="cls-59" d="M290.87,364.2l-.3-.55Z"/><path class="cls-60" d="M292.08,366.29l-.34-.57Z"/><path class="cls-61" d="M292.08,366.29l-.34-.57Z"/><path class="cls-62" d="M294.76,370.42l-.43-.62Z"/><path class="cls-63" d="M294.76,370.42l-.43-.62Z"/><path class="cls-64" d="M293.38,368.37l-.39-.6Z"/><path class="cls-65" d="M293.38,368.37l-.39-.6Z"/><path class="cls-66" d="M304.73,382.27l-.74-.75Z"/><path class="cls-67" d="M304.73,382.27l-.74-.75Z"/><path class="cls-68" d="M315.2,391.51l-1.09-.86Z"/><path class="cls-69" d="M315.2,391.51l-1.09-.86Z"/><path class="cls-70" d="M312.94,389.71l-1-.83Z"/><path class="cls-71" d="M312.94,389.71l-1-.83Z"/><path class="cls-72" d="M302.87,380.36l-.69-.73Z"/><path class="cls-73" d="M302.87,380.36l-.69-.73Z"/><path class="cls-74" d="M310.77,387.88l-.93-.8Z"/><path class="cls-75" d="M310.77,387.88l-.93-.8Z"/><path class="cls-76" d="M308.68,386l-.87-.79Z"/><path class="cls-77" d="M308.68,386l-.87-.79Z"/><path class="cls-78" d="M322.44,396.77l-1.41-1Z"/><path class="cls-79" d="M322.44,396.77l-1.41-1Z"/><path class="cls-80" d="M319.92,395l-1.27-.9Z"/><path class="cls-81" d="M319.92,395l-1.27-.9Z"/><path class="cls-82" d="M317.52,393.28l-1.17-.88Z"/><path class="cls-83" d="M317.52,393.28l-1.17-.88Z"/><path class="cls-84" d="M289.75,362.09l-.26-.52Z"/><path class="cls-85" d="M289.75,362.09l-.26-.52Z"/><path class="cls-86" d="M306.67,384.17l-.81-.77Z"/><path class="cls-87" d="M306.67,384.17l-.81-.77Z"/><path class="cls-88" d="M284.34,346.83l-.05-.26Z"/><path class="cls-89" d="M284.34,346.83l-.05-.26Z"/><path class="cls-90" d="M284.84,349.06l-.07-.31Z"/><path class="cls-91" d="M284.84,349.06l-.07-.31Z"/><path class="cls-92" d="M283.39,340.07v0Z"/><path class="cls-93" d="M283.39,340.07v0Z"/><path class="cls-94" d="M286.12,353.47l-.13-.39Z"/><path class="cls-95" d="M286.12,353.47l-.13-.39Z"/><path class="cls-96" d="M283.61,342.34l0-.15Z"/><path class="cls-97" d="M283.61,342.34l0-.15Z"/><path class="cls-98" d="M285.44,351.27l-.1-.35Z"/><path class="cls-99" d="M285.44,351.27l-.1-.35Z"/><path class="cls-100" d="M288.71,360l-.23-.49Z"/><path class="cls-101" d="M288.71,360l-.23-.49Z"/><path class="cls-102" d="M287.76,357.81l-.19-.46Z"/><path class="cls-103" d="M287.76,357.81l-.19-.46Z"/><path class="cls-104" d="M286.89,355.65l-.16-.42Z"/><path class="cls-105" d="M286.89,355.65l-.16-.42Z"/><path class="cls-106" d="M328.56,400.3c-25.89-15.74-42.47-36.2-45-58.75-.07-.56-.13-1.13-.18-1.72l0-.27c0-.12,0-.24,0-.36,0,.26,0,.52,0,.78v.09q.08,1.06.2,2.12l0,.15c.08.68.18,1.37.28,2l0,.21c.11.66.23,1.32.36,2l.05.26c.13.64.28,1.28.43,1.92l.07.31c.15.62.32,1.24.5,1.86l.1.35c.18.61.36,1.21.56,1.81l.13.39q.29.88.62,1.76l.16.42q.32.86.67,1.71l.19.46q.35.83.73,1.66l.23.49q.38.81.78,1.61l.26.52q.4.78.82,1.56l.3.55q.42.76.87,1.52l.34.57q.45.74.91,1.48l.39.6q.46.72.95,1.43l.43.62q.48.69,1,1.38l.48.65c.33.45.67.9,1,1.34l.53.67,1,1.3.58.69,1.07,1.25.63.71,1.09,1.21.69.73,1.12,1.17.74.75,1.13,1.13.81.77,1.14,1.08.87.79,1.16,1,.93.8,1.17,1,1,.83,1.16.95,1.09.86,1.15.89,1.17.88,1.14.84,1.27.9,1.11.79,1.41,1,1,.7,1.64,1.07.87.56q1.27.81,2.58,1.6c32.13,19.54,78.59,31.82,130.27,31.82a124.57,124.57,0,0,1-12.44-.65C399.72,430.08,358.09,418.26,328.56,400.3Z"/><path class="cls-107" d="M283.27,337.79c0,.47,0,.95.08,1.42,0,.12,0,.24,0,.36C283.33,339,283.29,338.39,283.27,337.79Z"/><path class="cls-108" d="M283.27,337.79c0,.47,0,.95.08,1.42,0,.12,0,.24,0,.36C283.33,339,283.29,338.39,283.27,337.79Z"/><path class="cls-109" d="M283.27,337.79c0,.47,0,.95.08,1.42,0,.12,0,.24,0,.36C283.33,339,283.29,338.39,283.27,337.79Z"/><path class="cls-110" d="M283.27,337.79c0,.47,0,.95.08,1.42,0,.12,0,.24,0,.36C283.33,339,283.29,338.39,283.27,337.79Z"/><path class="cls-111" d="M283.39,339.84c.05.58.11,1.16.18,1.72C283.5,341,283.44,340.42,283.39,339.84Z"/><path class="cls-112" d="M283.39,339.84c.05.58.11,1.16.18,1.72C283.5,341,283.44,340.42,283.39,339.84Z"/><path class="cls-113" d="M283.39,339.84c.05.58.11,1.16.18,1.72C283.5,341,283.44,340.42,283.39,339.84Z"/><path class="cls-114" d="M283.39,339.84c.05.58.11,1.16.18,1.72C283.5,341,283.44,340.42,283.39,339.84Z"/><path class="cls-115" d="M589.1,400.3l-.34.2.34.21c28.17-17.13,45.33-39.84,45.33-64.76,0-.06,0-.12,0-.18C634.32,360.6,617.18,383.23,589.1,400.3Z"/><path class="cls-116" d="M589.1,400.3l-.34.2.34.21c28.17-17.13,45.33-39.84,45.33-64.76,0-.06,0-.12,0-.18C634.32,360.6,617.18,383.23,589.1,400.3Z"/><path class="cls-117" d="M589.1,400.3l-.34.2.34.21c28.17-17.13,45.33-39.84,45.33-64.76,0-.06,0-.12,0-.18C634.32,360.6,617.18,383.23,589.1,400.3Z"/><path class="cls-118" d="M458.83,432.13q-6.28,0-12.44-.25a124.57,124.57,0,0,0,12.44.65c51.68,0,98.13-12.28,130.27-31.82l-.34-.21C556.64,419.93,510.33,432.13,458.83,432.13Z"/><path class="cls-119" d="M633.28,325c-9.88-48.19-84.2-85.64-174.45-85.64S294.26,276.82,284.38,325a50.34,50.34,0,0,0-.81,16.54c-.07-.56-.13-1.13-.18-1.72l0-.27c0-.12,0-.24,0-.36,0,.26,0,.52,0,.78v.09q.08,1.06.2,2.12l0,.15c.08.68.18,1.37.28,2l0,.21c.11.66.23,1.32.36,2l.05.26c.13.64.28,1.28.43,1.92l.07.31c.15.62.32,1.24.5,1.86l.1.35c.18.61.36,1.21.56,1.81l.13.39q.29.88.62,1.76l.16.42q.32.86.67,1.71l.19.46q.35.83.73,1.66l.23.49q.38.81.78,1.61l.26.52q.4.78.82,1.56l.3.55q.42.76.87,1.52l.34.57q.45.74.91,1.48l.39.6q.46.72.95,1.43l.43.62q.48.69,1,1.38l.48.65c.33.45.67.9,1,1.34l.53.67,1,1.3.58.69,1.07,1.25.63.71,1.09,1.21.69.73,1.12,1.17.74.75,1.13,1.13.81.77,1.14,1.08.87.79,1.16,1,.93.8,1.17,1,1,.83,1.16.95,1.09.86,1.15.89,1.17.88,1.14.84,1.27.9,1.11.79,1.41,1,1,.7,1.64,1.07.87.56q1.27.81,2.58,1.6c32.13,19.54,78.59,31.82,130.27,31.82S557,420.25,589.1,400.71l-.34-.21.34-.2c28.08-17.08,45.22-39.7,45.33-64.53A54.43,54.43,0,0,0,633.28,325ZM368.69,380.76c-19.49-11.85-31.37-27.57-31.37-44.81a37.59,37.59,0,0,1,.8-7.57c.23-1.13.52-2.26.85-3.37,9.49-31.7,59.53-55.89,119.86-55.89S569.19,293.31,578.69,325c.33,1.11.62,2.24.85,3.37a37.59,37.59,0,0,1,.8,7.57c0,16.12-10.38,30.91-27.67,42.45q-1.8,1.2-3.7,2.36c-22.23,13.52-54.38,22-90.14,22-34.88,0-66.33-8.09-88.49-21Z"/><path class="cls-120" d="M589.1,400.71c-32.13,19.54-78.59,31.82-130.27,31.82s-98.13-12.28-130.27-31.82q-1.3-.79-2.58-1.6l-.87-.56-1.64-1.07-1-.7-1.41-1-1.11-.79-1.27-.9-1.14-.84-1.17-.88-1.15-.89-1.09-.86-1.16-.95-1-.83-1.17-1-.93-.8-1.16-1-.87-.79-1.14-1.08-.81-.77-1.13-1.13-.74-.75-1.12-1.17-.69-.73-1.09-1.21-.63-.71-1.07-1.25-.58-.69c-.35-.43-.7-.86-1-1.3l-.53-.67c-.35-.45-.68-.89-1-1.34l-.48-.65q-.5-.69-1-1.38l-.43-.62q-.48-.71-.95-1.43l-.39-.6q-.47-.73-.91-1.48l-.34-.57q-.45-.76-.87-1.52l-.3-.55q-.42-.78-.82-1.56l-.26-.52q-.4-.8-.78-1.61l-.23-.49q-.38-.83-.73-1.66l-.19-.46q-.35-.85-.67-1.71l-.16-.42q-.32-.88-.62-1.76l-.13-.39q-.29-.9-.56-1.81l-.1-.35q-.26-.93-.5-1.86l-.07-.31c-.15-.64-.3-1.28-.43-1.92l-.05-.26c-.13-.66-.25-1.32-.36-2l0-.21c-.11-.68-.2-1.36-.28-2l0-.15q-.12-1.05-.2-2.12V340q-.08-1.09-.12-2.2c0-.6,0-1.21,0-1.84V387.8q0,2.24.19,4.46s0,.07,0,.1c0,.59.12,1.17.19,1.76,0,.17,0,.35.06.52.07.54.15,1.08.24,1.61,0,.22.06.43.1.65.09.52.19,1,.3,1.57,0,.22.08.45.13.67.11.53.24,1.06.37,1.58.05.21.1.43.15.64.14.54.29,1.09.45,1.63.06.19.1.38.16.58.17.56.35,1.12.54,1.68l.16.5c.2.58.41,1.17.63,1.75l.15.41c.24.61.48,1.22.74,1.82l.13.32q.41,1,.86,1.9l.1.22q.47,1,1,2l.06.12q.53,1,1.11,2.05v0c7.41,13.17,19.8,25.14,36,35.24a186.43,186.43,0,0,0,34.22,16.51l.06,0q1.8.66,3.64,1.3l.28.1q1.72.6,3.46,1.17l.53.18,3.26,1,.79.25,3,.91,1.08.32,2.79.79,1.38.38,2.53.67,1.7.44,2.25.55,2,.49,1.93.44,2.41.54,1.6.34,2.78.58,1.24.24,3.2.61.82.15,3.66.64.37.06a316.3,316.3,0,0,0,101.76,0l.1,0q2-.33,3.93-.69l.54-.1,3.47-.66,1-.19,3.06-.64,1.31-.28,2.69-.6,1.64-.37,2.32-.56,2-.48,2-.51,2.24-.59,1.68-.46,2.49-.7,1.38-.4,2.74-.82,1.09-.34,3-.94.83-.28,3.15-1.07.59-.21q1.68-.59,3.33-1.19l.36-.13q1.76-.65,3.49-1.32l.14-.06a183,183,0,0,0,30.4-15.06c12.76-8,23.17-17.11,30.64-27.09h0q.73-1,1.42-2l.09-.13q.65-.93,1.27-1.87l.16-.25q.57-.88,1.12-1.77l.23-.38c.33-.55.66-1.11,1-1.66l.29-.52c.28-.51.57-1,.83-1.55l.34-.67c.24-.47.48-.95.71-1.43l.38-.82c.2-.43.4-.87.59-1.3s.27-.64.4-1,.32-.78.48-1.17.28-.75.42-1.13.26-.69.38-1,.28-.87.42-1.3.19-.59.28-.88c.15-.49.28-1,.42-1.49.06-.24.14-.48.2-.71.15-.57.28-1.14.41-1.71,0-.17.08-.34.12-.52.14-.65.26-1.3.38-2l.06-.29a54.23,54.23,0,0,0,.79-9.21v.1s0-.06,0-.1V336C634.43,360.87,617.27,383.58,589.1,400.71Z"/><path class="cls-121" d="M518.43,332.21a21.36,21.36,0,0,0-3-7.2C507.22,312.16,485,303,458.83,303s-48.39,9.21-56.6,22.06a21.36,21.36,0,0,0-3,7.2,18.58,18.58,0,0,0-.39,3.74c0,8.51,5.86,16.27,15.49,22.13a67.28,67.28,0,0,0,14.5,6.45,99.73,99.73,0,0,0,30,4.42c17.66,0,33.53-4.2,44.51-10.87.92-.56,1.8-1.15,2.66-1.74,8-5.61,12.83-12.69,12.83-20.38A18.58,18.58,0,0,0,518.43,332.21Z"/><path class="cls-122" d="M283.41,440.55s0,.07,0,.1c0,.59.12,1.17.19,1.76,0,.17,0,.35.06.52.07.54.15,1.08.24,1.61,0,.22.06.43.1.65.09.52.19,1,.3,1.57,0,.23.08.45.13.68.11.53.24,1.06.37,1.59.05.21.1.42.15.64.14.54.29,1.09.45,1.63.05.19.1.38.16.57.17.56.35,1.12.54,1.68l.16.5c.2.59.41,1.17.63,1.75l.15.41c.24.61.48,1.22.74,1.82l.13.31q.41,1,.86,1.9l.1.21q.47,1,1,2l.06.12q.53,1,1.11,2.06h0c7.41,13.17,19.8,25.14,36,35.24a190.9,190.9,0,0,0,39.32,18.32l.08,0q1.72.59,3.47,1.15l.33.11,3.27,1,.58.18,3.05.9.84.24,2.83.79,1.11.3,2.59.68,1.4.36,2.32.57,1.73.42,2,.46,2.07.46,1.71.36,2.43.51,1.35.27,2.82.55,1,.18,3.25.58.51.09a307.61,307.61,0,0,0,43,4.15q4.36.12,8.78.12l2.54,0,3.86,0,3.53-.09,3.29-.12q2.73-.11,5.43-.27c1.22-.07,2.44-.14,3.66-.23s2.58-.2,3.87-.3l2.58-.22c1.32-.12,2.64-.24,4-.38l1.78-.2q3.72-.41,7.38-.9c6.42-.87,12.72-1.91,18.85-3.15a285.67,285.67,0,0,0,30.18-7.07,277,277,0,0,0,29.77-8.61l1.1-2.43L629,480.68l5.42-3.13V387.89a54.15,54.15,0,0,1-.79,9.11l-.06.29c-.12.65-.24,1.3-.38,2,0,.17-.08.35-.12.52-.13.57-.26,1.14-.41,1.71-.06.24-.13.48-.2.71-.14.5-.27,1-.42,1.49-.09.3-.19.59-.28.88s-.27.87-.42,1.3-.25.69-.38,1-.27.75-.42,1.13-.32.78-.48,1.17-.26.64-.4,1-.39.87-.59,1.3l-.38.82c-.23.48-.47,1-.71,1.43l-.34.67c-.27.52-.55,1-.83,1.55l-.29.52c-.31.56-.64,1.11-1,1.66l-.23.38c-.36.59-.74,1.18-1.12,1.77l-.16.25q-.62.94-1.27,1.87l-.09.13q-.69,1-1.42,2h0c-7.77,10.39-18.72,19.87-32.2,28.07a184.8,184.8,0,0,1-28.83,14.07l-.14.06q-1.73.67-3.49,1.32l-.36.13q-1.65.61-3.33,1.19l-.59.21-3.15,1.07-.83.28-3,.94-1.09.34-2.74.82-1.38.4-2.49.7-1.68.46-2.24.59-2,.51-2,.48-2.32.56-1.64.37-2.69.6-1.31.28-3.06.64-1,.19-3.47.66-.54.1q-2,.36-3.93.69l-.1,0a315.6,315.6,0,0,1-101.76,0l-.37-.06-3.66-.64-.82-.15-3.2-.61-1.24-.24L396,478l-1.6-.34-2.41-.54-1.93-.44-2-.49-2.25-.55-1.7-.44-2.53-.67-1.38-.38-2.79-.79-1.08-.32-3-.91-.79-.25-3.26-1-.53-.18q-1.74-.57-3.46-1.17l-.28-.1q-1.83-.64-3.64-1.3l-.06,0a188.29,188.29,0,0,1-32.65-15.52c-16.94-10.3-29.89-22.62-37.53-36.22v0q-.57-1-1.11-2.05l-.06-.12q-.51-1-1-2l-.1-.22c-.3-.63-.58-1.26-.86-1.9l-.13-.32c-.26-.61-.51-1.21-.74-1.82l-.15-.41c-.22-.58-.43-1.16-.63-1.75l-.16-.5c-.19-.56-.37-1.12-.54-1.68-.06-.19-.11-.38-.16-.58-.16-.54-.31-1.08-.45-1.63-.05-.21-.1-.43-.15-.64-.13-.53-.26-1.05-.37-1.58,0-.22-.09-.45-.13-.67-.1-.52-.21-1-.3-1.57,0-.22-.06-.43-.1-.65-.08-.54-.17-1.07-.24-1.61,0-.17,0-.35-.06-.52-.07-.58-.14-1.17-.19-1.76,0,0,0-.07,0-.1-.12-1.48-.19-3-.19-4.47v48.29s0,.06,0,.09v-.08Q283.23,438.33,283.41,440.55Z"/><path class="cls-123" d="M628,413.7l-.34.67Z"/><path class="cls-124" d="M628,413.7l-.34.67Z"/><path class="cls-125" d="M626.85,415.91l-.29.52Z"/><path class="cls-126" d="M626.85,415.91l-.29.52Z"/><path class="cls-127" d="M629.1,411.46l-.38.82Z"/><path class="cls-128" d="M629.1,411.46l-.38.82Z"/><path class="cls-129" d="M377.35,473.36l-1.08-.32Z"/><path class="cls-130" d="M377.35,473.36l-1.08-.32Z"/><path class="cls-131" d="M631.78,404.56c-.14.43-.27.87-.42,1.3C631.5,405.42,631.64,405,631.78,404.56Z"/><path class="cls-132" d="M631.78,404.56c-.14.43-.27.87-.42,1.3C631.5,405.42,631.64,405,631.78,404.56Z"/><path class="cls-133" d="M632.48,402.18c-.14.5-.27,1-.42,1.49C632.21,403.18,632.34,402.68,632.48,402.18Z"/><path class="cls-134" d="M632.48,402.18c-.14.5-.27,1-.42,1.49C632.21,403.18,632.34,402.68,632.48,402.18Z"/><path class="cls-135" d="M633.08,399.76c-.13.57-.26,1.14-.41,1.71C632.82,400.9,633,400.33,633.08,399.76Z"/><path class="cls-136" d="M633.08,399.76c-.13.57-.26,1.14-.41,1.71C632.82,400.9,633,400.33,633.08,399.76Z"/><path class="cls-137" d="M283.41,392.26s0,.07,0,.1S283.42,392.29,283.41,392.26Z"/><path class="cls-138" d="M283.41,392.26s0,.07,0,.1S283.42,392.29,283.41,392.26Z"/><path class="cls-139" d="M630.09,409.19c-.13.32-.26.64-.4,1C629.83,409.84,630,409.51,630.09,409.19Z"/><path class="cls-140" d="M630.09,409.19c-.13.32-.26.64-.4,1C629.83,409.84,630,409.51,630.09,409.19Z"/><path class="cls-141" d="M633.58,397.29c-.12.65-.24,1.3-.38,2C633.34,398.6,633.47,397.94,633.58,397.29Z"/><path class="cls-142" d="M633.58,397.29c-.12.65-.24,1.3-.38,2C633.34,398.6,633.47,397.94,633.58,397.29Z"/><path class="cls-143" d="M631,406.89c-.14.38-.27.75-.42,1.13C630.71,407.64,630.84,407.26,631,406.89Z"/><path class="cls-144" d="M631,406.89c-.14.38-.27.75-.42,1.13C630.71,407.64,630.84,407.26,631,406.89Z"/><path class="cls-145" d="M373.23,472.13l-.79-.25Z"/><path class="cls-146" d="M373.23,472.13l-.79-.25Z"/><path class="cls-147" d="M287.92,410l-.13-.32Z"/><path class="cls-148" d="M287.92,410l-.13-.32Z"/><path class="cls-149" d="M287,407.91l-.15-.41Z"/><path class="cls-150" d="M287,407.91l-.15-.41Z"/><path class="cls-151" d="M288.87,412.16l-.1-.22Z"/><path class="cls-152" d="M288.87,412.16l-.1-.22Z"/><path class="cls-153" d="M407.68,480.21l-3.66-.64Z"/><path class="cls-154" d="M407.68,480.21l-3.66-.64Z"/><path class="cls-155" d="M513.85,479.53q-2,.35-3.93.69Q511.89,479.89,513.85,479.53Z"/><path class="cls-156" d="M513.85,479.53q-2,.35-3.93.69Q511.89,479.89,513.85,479.53Z"/><path class="cls-157" d="M403.21,479.42l-3.2-.61Z"/><path class="cls-158" d="M403.21,479.42l-3.2-.61Z"/><path class="cls-159" d="M285.56,403.57c-.06-.19-.11-.38-.16-.58C285.45,403.18,285.5,403.37,285.56,403.57Z"/><path class="cls-160" d="M285.56,403.57c-.06-.19-.11-.38-.16-.58C285.45,403.18,285.5,403.37,285.56,403.57Z"/><path class="cls-161" d="M286.26,405.75l-.16-.5Z"/><path class="cls-162" d="M286.26,405.75l-.16-.5Z"/><path class="cls-163" d="M521.89,477.95l-3.06.64Z"/><path class="cls-164" d="M521.89,477.95l-3.06.64Z"/><path class="cls-165" d="M517.86,478.77l-3.47.66Z"/><path class="cls-166" d="M517.86,478.77l-3.47.66Z"/><path class="cls-167" d="M361.27,468.09l-.06,0Z"/><path class="cls-168" d="M361.27,468.09l-.06,0Z"/><path class="cls-169" d="M385.76,475.63l-1.7-.44Z"/><path class="cls-170" d="M385.76,475.63l-1.7-.44Z"/><path class="cls-171" d="M365.19,469.5l-.28-.1Z"/><path class="cls-172" d="M365.19,469.5l-.28-.1Z"/><path class="cls-173" d="M369.18,470.84l-.53-.18Z"/><path class="cls-174" d="M369.18,470.84l-.53-.18Z"/><path class="cls-175" d="M381.53,474.53l-1.38-.38Z"/><path class="cls-176" d="M381.53,474.53l-1.38-.38Z"/><path class="cls-177" d="M390,476.67l-2-.49Z"/><path class="cls-178" d="M390,476.67l-2-.49Z"/><path class="cls-179" d="M291,416.32v0Z"/><path class="cls-180" d="M291,416.32v0Z"/><path class="cls-181" d="M289.91,414.25l-.06-.12Z"/><path class="cls-182" d="M289.91,414.25l-.06-.12Z"/><path class="cls-183" d="M398.77,478.57,396,478Z"/><path class="cls-184" d="M398.77,478.57,396,478Z"/><path class="cls-185" d="M394.38,477.65l-2.41-.54Z"/><path class="cls-186" d="M394.38,477.65l-2.41-.54Z"/><path class="cls-187" d="M285,401.36c-.05-.21-.1-.43-.15-.64C284.85,400.94,284.9,401.15,285,401.36Z"/><path class="cls-188" d="M285,401.36c-.05-.21-.1-.43-.15-.64C284.85,400.94,284.9,401.15,285,401.36Z"/><path class="cls-189" d="M549.2,470.6l-.83.28Z"/><path class="cls-190" d="M549.2,470.6l-.83.28Z"/><path class="cls-191" d="M552.94,469.33l-.59.21Z"/><path class="cls-192" d="M552.94,469.33l-.59.21Z"/><path class="cls-193" d="M545.41,471.82l-1.09.34Z"/><path class="cls-194" d="M545.41,471.82l-1.09.34Z"/><path class="cls-195" d="M633.64,397a54.15,54.15,0,0,0,.79-9.11v-.1A54.23,54.23,0,0,1,633.64,397Z"/><path class="cls-196" d="M633.64,397a54.15,54.15,0,0,0,.79-9.11v-.1A54.23,54.23,0,0,1,633.64,397Z"/><path class="cls-197" d="M408.06,480.27a315.6,315.6,0,0,0,101.76,0,316.3,316.3,0,0,1-101.76,0Z"/><path class="cls-198" d="M408.06,480.27a315.6,315.6,0,0,0,101.76,0,316.3,316.3,0,0,1-101.76,0Z"/><path class="cls-199" d="M537.71,474.09l-1.68.46Z"/><path class="cls-200" d="M537.71,474.09l-1.68.46Z"/><path class="cls-201" d="M541.58,473l-1.38.4Z"/><path class="cls-202" d="M541.58,473l-1.38.4Z"/><path class="cls-203" d="M624.24,420.25l-.16.25Z"/><path class="cls-204" d="M624.24,420.25l-.16.25Z"/><path class="cls-205" d="M622.82,422.37l-.09.13Z"/><path class="cls-206" d="M622.82,422.37l-.09.13Z"/><path class="cls-207" d="M621.31,424.47h0Z"/><path class="cls-208" d="M621.31,424.47h0Z"/><path class="cls-209" d="M560.26,466.62l-.14.06Z"/><path class="cls-210" d="M560.26,466.62l-.14.06Z"/><path class="cls-211" d="M556.63,468l-.36.13Z"/><path class="cls-212" d="M556.63,468l-.36.13Z"/><path class="cls-213" d="M625.59,418.1l-.23.38Z"/><path class="cls-214" d="M625.59,418.1l-.23.38Z"/><path class="cls-215" d="M529.86,476.13l-2.32.56Z"/><path class="cls-216" d="M529.86,476.13l-2.32.56Z"/><path class="cls-217" d="M284.43,399.14c0-.22-.09-.45-.13-.67C284.34,398.69,284.38,398.92,284.43,399.14Z"/><path class="cls-218" d="M284.43,399.14c0-.22-.09-.45-.13-.67C284.34,398.69,284.38,398.92,284.43,399.14Z"/><path class="cls-219" d="M525.89,477.07l-2.69.6Z"/><path class="cls-220" d="M525.89,477.07l-2.69.6Z"/><path class="cls-221" d="M533.8,475.14l-2,.51Z"/><path class="cls-222" d="M533.8,475.14l-2,.51Z"/><path class="cls-223" d="M284,396.9c0-.22-.06-.43-.1-.65C283.93,396.47,284,396.68,284,396.9Z"/><path class="cls-224" d="M284,396.9c0-.22-.06-.43-.1-.65C283.93,396.47,284,396.68,284,396.9Z"/><path class="cls-225" d="M283.66,394.64c0-.17,0-.35-.06-.52C283.63,394.29,283.64,394.46,283.66,394.64Z"/><path class="cls-226" d="M283.66,394.64c0-.17,0-.35-.06-.52C283.63,394.29,283.64,394.46,283.66,394.64Z"/><path class="cls-227" d="M287.79,458c-.26-.61-.51-1.21-.74-1.82C287.28,456.81,287.53,457.42,287.79,458Z"/><path class="cls-228" d="M287.79,458c-.26-.61-.51-1.21-.74-1.82C287.28,456.81,287.53,457.42,287.79,458Z"/><path class="cls-229" d="M285.4,451.28c-.16-.54-.31-1.08-.45-1.63C285.09,450.2,285.24,450.74,285.4,451.28Z"/><path class="cls-230" d="M285.4,451.28c-.16-.54-.31-1.08-.45-1.63C285.09,450.2,285.24,450.74,285.4,451.28Z"/><path class="cls-231" d="M487.58,531.36l-2.58.22Z"/><path class="cls-232" d="M487.58,531.36l-2.58.22Z"/><path class="cls-233" d="M288.78,460.24q-.44-.95-.86-1.9C288.19,459,288.48,459.61,288.78,460.24Z"/><path class="cls-234" d="M288.78,460.24q-.44-.95-.86-1.9C288.19,459,288.48,459.61,288.78,460.24Z"/><path class="cls-235" d="M284.8,449c-.13-.53-.26-1.06-.37-1.59C284.54,448,284.67,448.49,284.8,449Z"/><path class="cls-236" d="M284.8,449c-.13-.53-.26-1.06-.37-1.59C284.54,448,284.67,448.49,284.8,449Z"/><path class="cls-237" d="M286.9,455.79c-.22-.58-.43-1.16-.63-1.75C286.46,454.62,286.68,455.2,286.9,455.79Z"/><path class="cls-238" d="M286.9,455.79c-.22-.58-.43-1.16-.63-1.75C286.46,454.62,286.68,455.2,286.9,455.79Z"/><path class="cls-239" d="M286.1,453.54c-.19-.56-.37-1.12-.54-1.68C285.73,452.42,285.91,453,286.1,453.54Z"/><path class="cls-240" d="M286.1,453.54c-.19-.56-.37-1.12-.54-1.68C285.73,452.42,285.91,453,286.1,453.54Z"/><path class="cls-241" d="M493.32,530.78l-1.78.2Z"/><path class="cls-242" d="M493.32,530.78l-1.78.2Z"/><path class="cls-243" d="M380.76,522.6l-2.83-.79Z"/><path class="cls-244" d="M380.76,522.6l-2.83-.79Z"/><path class="cls-245" d="M407.06,528.39l-.51-.09Z"/><path class="cls-246" d="M407.06,528.39l-.51-.09Z"/><path class="cls-247" d="M403.29,527.72l-1-.18Z"/><path class="cls-248" d="M403.29,527.72l-1-.18Z"/><path class="cls-249" d="M395.72,526.22l-1.71-.36Z"/><path class="cls-250" d="M395.72,526.22l-1.71-.36Z"/><path class="cls-251" d="M289.85,462.43q-.51-1-1-2Q289.34,461.44,289.85,462.43Z"/><path class="cls-252" d="M289.85,462.43q-.51-1-1-2Q289.34,461.44,289.85,462.43Z"/><path class="cls-253" d="M481.13,531.88c-1.21.08-2.44.15-3.66.23C478.7,532,479.92,532,481.13,531.88Z"/><path class="cls-254" d="M481.13,531.88c-1.21.08-2.44.15-3.66.23C478.7,532,479.92,532,481.13,531.88Z"/><path class="cls-255" d="M472,532.38l-3.29.12Z"/><path class="cls-256" d="M472,532.38l-3.29.12Z"/><path class="cls-257" d="M465.23,532.59l-3.86,0Z"/><path class="cls-258" d="M465.23,532.59l-3.86,0Z"/><path class="cls-259" d="M399.5,527l-1.35-.27Z"/><path class="cls-260" d="M399.5,527l-1.35-.27Z"/><path class="cls-261" d="M388.2,524.52l-2.32-.57Z"/><path class="cls-262" d="M388.2,524.52l-2.32-.57Z"/><path class="cls-263" d="M373.45,520.48l-3.27-1Z"/><path class="cls-264" d="M373.45,520.48l-3.27-1Z"/><path class="cls-265" d="M291,464.6q-.58-1-1.11-2.06Q290.44,463.58,291,464.6Z"/><path class="cls-266" d="M291,464.6q-.58-1-1.11-2.06Q290.44,463.58,291,464.6Z"/><path class="cls-267" d="M369.86,519.35q-1.75-.57-3.47-1.15Q368.11,518.79,369.86,519.35Z"/><path class="cls-268" d="M369.86,519.35q-1.75-.57-3.47-1.15Q368.11,518.79,369.86,519.35Z"/><path class="cls-269" d="M384.47,523.59l-2.59-.68Z"/><path class="cls-270" d="M384.47,523.59l-2.59-.68Z"/><path class="cls-271" d="M377.09,521.57l-3.05-.9Z"/><path class="cls-272" d="M377.09,521.57l-3.05-.9Z"/><path class="cls-273" d="M392,525.4l-2-.46Z"/><path class="cls-274" d="M392,525.4l-2-.46Z"/><path class="cls-275" d="M549.73,519.66a285.67,285.67,0,0,1-30.18,7.07c-6.12,1.24-12.42,2.28-18.85,3.15q-3.66.49-7.38.9l-1.78.2c-1.31.14-2.63.26-4,.38l-2.58.22c-1.29.11-2.57.21-3.87.3s-2.44.15-3.66.23q-2.71.16-5.43.27l-3.29.12-3.53.09-3.86,0c-.85,0-1.69,0-2.54,0q-4.41,0-8.77-.12a307.25,307.25,0,0,1-43-4.16l-.51-.09-3.25-.58-1-.18L399.5,527l-1.35-.27-2.43-.51-1.71-.36-2.07-.46-2-.46-1.73-.42-2.32-.57-1.4-.36-2.59-.68-1.11-.3-2.83-.79-.84-.24-3.05-.9-.58-.18-3.27-1-.33-.11q-1.75-.57-3.47-1.15l-.08,0a192.76,192.76,0,0,1-37.75-17.33c-16.94-10.3-29.89-22.62-37.53-36.22h0q-.57-1-1.11-2.06l-.06-.12q-.51-1-1-2l-.1-.21c-.3-.63-.58-1.27-.86-1.9l-.13-.31c-.26-.61-.51-1.21-.74-1.82l-.15-.41c-.22-.58-.43-1.16-.63-1.75l-.16-.5c-.19-.56-.37-1.12-.54-1.68-.06-.19-.11-.38-.16-.57-.16-.54-.31-1.08-.45-1.63-.05-.21-.1-.42-.15-.64-.13-.53-.26-1.06-.37-1.59,0-.22-.09-.45-.13-.68-.1-.52-.21-1-.3-1.57,0-.22-.06-.43-.1-.65-.08-.54-.17-1.07-.24-1.61,0-.17,0-.35-.06-.52-.07-.59-.14-1.17-.19-1.76,0,0,0-.07,0-.1q-.18-2.17-.19-4.37v46.65c0,24.14,16.11,46.21,42.72,63.14q1.29.82,2.61,1.62c30.57,18.59,74.12,30.6,122.78,31.73,2.48.06,5,.1,7.49.1,35.88,0,69.24-5.93,97-16.09l23.4-51.74.24-.52A277,277,0,0,1,549.73,519.66Z"/><path class="cls-276" d="M291,464.61c7.64,13.6,20.59,25.92,37.53,36.22a192.76,192.76,0,0,0,37.75,17.33A190.9,190.9,0,0,1,327,499.85C310.83,489.75,298.43,477.78,291,464.61Z"/><path class="cls-277" d="M291,464.61c7.64,13.6,20.59,25.92,37.53,36.22a192.76,192.76,0,0,0,37.75,17.33A190.9,190.9,0,0,1,327,499.85C310.83,489.75,298.43,477.78,291,464.61Z"/><path class="cls-278" d="M284.3,446.76c-.1-.52-.21-1-.3-1.57C284.09,445.71,284.19,446.23,284.3,446.76Z"/><path class="cls-279" d="M284.3,446.76c-.1-.52-.21-1-.3-1.57C284.09,445.71,284.19,446.23,284.3,446.76Z"/><path class="cls-280" d="M283.23,436.09v.08q0,2.2.19,4.37Q283.23,438.33,283.23,436.09Z"/><path class="cls-281" d="M283.23,436.09v.08q0,2.2.19,4.37Q283.23,438.33,283.23,436.09Z"/><path class="cls-282" d="M283.9,444.54c-.08-.54-.17-1.07-.24-1.61C283.73,443.47,283.82,444,283.9,444.54Z"/><path class="cls-283" d="M283.9,444.54c-.08-.54-.17-1.07-.24-1.61C283.73,443.47,283.82,444,283.9,444.54Z"/><path class="cls-284" d="M283.61,442.41c-.07-.59-.14-1.17-.19-1.76C283.47,441.24,283.54,441.82,283.61,442.41Z"/><path class="cls-285" d="M283.61,442.41c-.07-.59-.14-1.17-.19-1.76C283.47,441.24,283.54,441.82,283.61,442.41Z"/><path class="cls-286" d="M328.56,591.48c21.71,13.2,50,23.08,81.95,28.11h0a309.81,309.81,0,0,0,42,3.64h0l-.2-7.28-1-35.1,0-1.55c2.48.06,5,.1,7.49.1,35.88,0,69.24-5.93,97-16.09h0c-27.8,10.16-61.16,16.09-97,16.09-2.51,0-5,0-7.49-.1-48.67-1.12-92.21-13.14-122.78-31.73q-1.32-.8-2.61-1.62c-26.6-16.92-42.7-39-42.72-63.09v43.86s0,.09,0,.14v-.14C283.23,551.64,300.39,574.35,328.56,591.48Z"/><path class="cls-287" d="M326,546c-26.62-16.93-42.72-39-42.72-63.14v0C283.25,507,299.35,529,326,546Z"/><path class="cls-288" d="M326,546c-26.62-16.93-42.72-39-42.72-63.14v0C283.25,507,299.35,529,326,546Z"/><path class="cls-289" d="M507.14,619.6h0c8.86-1.39,17.43-3.16,25.66-5.26h0C524.58,616.44,516,618.2,507.14,619.6Z"/><path class="cls-290" d="M507.14,619.59h0c8.86-1.39,17.43-3.16,25.66-5.26h0L555,565.16l.83-1.83c-27.8,10.16-61.16,16.09-97,16.09-2.51,0-5,0-7.49-.1l0,1.55,1,35.1.2,7.28c2.09,0,4.18.07,6.28.07A311.83,311.83,0,0,0,507.14,619.59Z"/><path class="cls-291" d="M507.14,619.59h0c8.86-1.39,17.43-3.16,25.66-5.26h0L555,565.16l.83-1.83c-27.8,10.16-61.16,16.09-97,16.09-2.51,0-5,0-7.49-.1l0,1.55,1,35.1.2,7.28c2.09,0,4.18.07,6.28.07A311.83,311.83,0,0,0,507.14,619.59Z"/><path class="cls-292" d="M420.7,621a313.75,313.75,0,0,0,31.84,2.22h0A313.75,313.75,0,0,1,420.7,621Z"/><path class="cls-292" d="M620.61,750.07A65.59,65.59,0,0,0,633.2,723.9L610.45,737,558.6,669.25l0,.1,52.16,68.19-38.1-27.71-38.68-50.57-.84.21q-9.54,2.45-19.67,4.28l-1.58.29h0l-1.56.27q-3.84.65-7.59,1.17l-.11,0-3.74.5c-9.89,1.27-20.1,2.08-30.56,2.39-8.89.28-14.47.11-14.47.11h0c-44.65-.69-85.09-10.57-115.39-26.3h0c-29.41,15.26-49.24,36-54,59.33a54.34,54.34,0,0,0-1.15,10.94c0,24.92,17.16,47.63,45.33,64.76,32.13,19.54,78.59,31.82,130.27,31.82,38.42,0,73.94-6.79,102.85-18.3l49.16,32.86L729.6,754.39,667,721.45Z"/><path class="cls-293" d="M452.55,623.24h0a309.81,309.81,0,0,1-42-3.64h0q5,.79,10.19,1.42a313.75,313.75,0,0,0,31.84,2.22Z"/><path class="cls-292" d="M452.55,623.24h0a309.81,309.81,0,0,1-42-3.64h0q5,.79,10.19,1.42a313.75,313.75,0,0,0,31.84,2.22Z"/><path class="cls-294" d="M458.83,623.31a311.83,311.83,0,0,0,48.31-3.71h0a311.83,311.83,0,0,1-48.31,3.71c-2.1,0-4.2,0-6.28-.07h0C454.64,623.28,456.73,623.31,458.83,623.31Z"/><path class="cls-292" d="M458.83,623.31a311.83,311.83,0,0,0,48.31-3.71h0a311.83,311.83,0,0,1-48.31,3.71c-2.1,0-4.2,0-6.28-.07h0C454.64,623.28,456.73,623.31,458.83,623.31Z"/><path class="cls-295" d="M452.55,623.24c2.09,0,4.18.07,6.28.07a311.83,311.83,0,0,0,48.31-3.71h0a311.83,311.83,0,0,1-48.31,3.71c-2.1,0-4.2,0-6.28-.07h0Z"/><path class="cls-296" d="M452.55,623.24c2.09,0,4.18.07,6.28.07a311.83,311.83,0,0,0,48.31-3.71h0a311.83,311.83,0,0,1-48.31,3.71c-2.1,0-4.2,0-6.28-.07h0Z"/><path class="cls-292" d="M452.55,623.24c2.09,0,4.18.07,6.28.07a311.83,311.83,0,0,0,48.31-3.71h0a311.83,311.83,0,0,1-48.31,3.71c-2.1,0-4.2,0-6.28-.07h0Z"/><path class="cls-297" d="M532.8,614.33c-8.23,2.11-16.8,3.87-25.65,5.26h0c8.85-1.39,17.42-3.15,25.64-5.26Z"/><path class="cls-298" d="M410.51,619.6c-32-5-60.24-14.91-82-28.11-28.12-17.1-45.27-39.76-45.33-64.62V572c0,24.44,16.54,46.75,43.77,63.76,3.61,2.26,7.42,4.42,11.4,6.48,19.14-9.93,42.33-17.52,68.08-21.94Q408.48,619.91,410.51,619.6Z"/><polygon class="cls-292" points="453.79 668.49 453.79 668.49 453.79 668.49 453.79 668.49"/><polygon class="cls-299" points="453.79 668.49 453.79 668.49 453.79 668.49 453.79 668.49"/><polygon class="cls-300" points="453.79 668.49 453.79 668.49 453.79 668.49 453.79 668.49"/><path class="cls-301" d="M328.56,591.48c21.71,13.2,50,23.09,82,28.11h0c-32-5-60.24-14.91-81.95-28.11-28.17-17.13-45.33-39.84-45.33-64.76v.14C283.29,551.73,300.44,574.38,328.56,591.48Z"/><path class="cls-302" d="M328.56,591.48c21.71,13.2,50,23.09,82,28.11h0c-32-5-60.24-14.91-81.95-28.11-28.17-17.13-45.33-39.84-45.33-64.76v.14C283.29,551.73,300.44,574.38,328.56,591.48Z"/><path class="cls-303" d="M532.8,614.33c-8.23,2.11-16.8,3.87-25.66,5.26h0c8.86-1.39,17.43-3.16,25.65-5.26Z"/><path class="cls-304" d="M532.8,614.33c-8.23,2.11-16.8,3.87-25.66,5.26h0c8.86-1.39,17.43-3.16,25.65-5.26Z"/><path class="cls-292" d="M533.09,659.47c-2.72.66-11.55,2.77-19.67,4.28Q523.54,661.93,533.09,659.47Z"/><path class="cls-305" d="M533.09,659.47c-2.72.66-11.55,2.77-19.67,4.28Q523.54,661.93,533.09,659.47Z"/><path class="cls-292" d="M453.79,668.49h0l-1.2-43.92,0-1.33c2.09,0,4.18.07,6.28.07a311.83,311.83,0,0,0,48.31-3.71h0a311.83,311.83,0,0,1-48.31,3.71c-2.1,0-4.2,0-6.28-.07h0A313.75,313.75,0,0,1,420.7,621q-5.15-.63-10.19-1.42h0q-2,.32-4,.66c-25.74,4.42-48.94,12-68.08,21.94h0C368.7,657.93,409.14,667.8,453.79,668.49Zm0,0h0Z"/><path class="cls-306" d="M453.79,668.49h0l-1.2-43.92,0-1.33c2.09,0,4.18.07,6.28.07a311.83,311.83,0,0,0,48.31-3.71h0a311.83,311.83,0,0,1-48.31,3.71c-2.1,0-4.2,0-6.28-.07h0A313.75,313.75,0,0,1,420.7,621q-5.15-.63-10.19-1.42h0q-2,.32-4,.66c-25.74,4.42-48.94,12-68.08,21.94h0C368.7,657.93,409.14,667.8,453.79,668.49Zm0,0h0Z"/><path class="cls-292" d="M498.83,666c-11.79,1.49-22.52,2.13-30.56,2.39C478.73,668.09,488.94,667.28,498.83,666Z"/><path class="cls-307" d="M498.83,666c-11.79,1.49-22.52,2.13-30.56,2.39C478.73,668.09,488.94,667.28,498.83,666Z"/><path class="cls-292" d="M502.68,665.49l-.11,0Z"/><path class="cls-308" d="M502.68,665.49l-.11,0Z"/><path class="cls-292" d="M511.84,664h0Z"/><path class="cls-309" d="M511.84,664h0Z"/><path class="cls-310" d="M410.51,619.6h0q5,.79,10.19,1.42-5.15-.63-10.19-1.42Z"/><path class="cls-292" d="M410.51,619.6h0q5,.79,10.19,1.42-5.15-.63-10.19-1.42Z"/><path class="cls-311" d="M410.51,619.6h0q5,.79,10.19,1.42-5.15-.63-10.19-1.42Z"/><path class="cls-312" d="M507.15,619.6a311.83,311.83,0,0,1-48.31,3.71c-2.1,0-4.2,0-6.28-.07h0c2.09,0,4.18.07,6.28.07a311.83,311.83,0,0,0,48.31-3.71h0Z"/><path class="cls-292" d="M507.15,619.6a311.83,311.83,0,0,1-48.31,3.71c-2.1,0-4.2,0-6.28-.07h0c2.09,0,4.18.07,6.28.07a311.83,311.83,0,0,0,48.31-3.71h0Z"/><path class="cls-313" d="M507.15,619.6a311.83,311.83,0,0,1-48.31,3.71c-2.1,0-4.2,0-6.28-.07h0c2.09,0,4.18.07,6.28.07a311.83,311.83,0,0,0,48.31-3.71h0Z"/><path class="cls-292" d="M502.56,665.51l-3.74.5Z"/><path class="cls-314" d="M502.56,665.51l-3.74.5Z"/><path class="cls-292" d="M513.42,663.75l-1.58.29Z"/><path class="cls-315" d="M513.42,663.75l-1.58.29Z"/><path class="cls-292" d="M510.27,664.32l1.56-.27q-4.53.79-9.16,1.45Q506.42,665,510.27,664.32Z"/><path class="cls-316" d="M510.27,664.32l1.56-.27q-4.53.79-9.16,1.45Q506.42,665,510.27,664.32Z"/><path class="cls-292" d="M453.8,668.49h0s5.58.18,14.47-.11q-4.69.14-9.44.14Q456.31,668.53,453.8,668.49Z"/><path class="cls-317" d="M453.8,668.49h0s5.58.18,14.47-.11q-4.69.14-9.44.14Q456.31,668.53,453.8,668.49Z"/><path class="cls-292" d="M533.09,659.47l.84-.21h0Z"/><path class="cls-318" d="M533.09,659.47l.84-.21h0Z"/><path class="cls-319" d="M533.92,659.26l-2-2.68-11.42-14.93,8.07-17.85,3.61-8,.67-1.49c-8.22,2.1-16.78,3.87-25.64,5.26h0a311.83,311.83,0,0,1-48.31,3.71c-2.1,0-4.2,0-6.28-.07l0,1.33,1.2,43.92q2.51,0,5,0,4.75,0,9.44-.14c8-.26,18.77-.89,30.56-2.39l3.74-.5.11,0q4.63-.66,9.16-1.45h0l1.58-.29c8.12-1.52,16.95-3.62,19.67-4.28l.84-.21Z"/><path class="cls-320" d="M533.92,659.26l-2-2.68-11.42-14.93,8.07-17.85,3.61-8,.67-1.49c-8.22,2.1-16.78,3.87-25.64,5.26h0a311.83,311.83,0,0,1-48.31,3.71c-2.1,0-4.2,0-6.28-.07l0,1.33,1.2,43.92q2.51,0,5,0,4.75,0,9.44-.14c8-.26,18.77-.89,30.56-2.39l3.74-.5.11,0q4.63-.66,9.16-1.45h0l1.58-.29c8.12-1.52,16.95-3.62,19.67-4.28l.84-.21Z"/><polygon class="cls-321" points="533.93 659.26 533.93 659.26 533.93 659.26 533.92 659.26 533.93 659.27 533.93 659.26 533.93 659.26"/><circle class="cls-321" cx="533.93" cy="659.26" transform="translate(-302.61 800.39) rotate(-60.57)"/><polygon class="cls-321" points="531.88 656.58 531.88 656.58 531.88 656.58 533.93 659.26 533.93 659.26 531.89 656.59 531.88 656.58"/><polygon class="cls-321" points="531.88 656.58 531.88 656.58 533.92 659.26 533.93 659.26 531.88 656.58 531.88 656.58"/><polygon class="cls-321" points="558.55 669.36 541.7 657.1 539.4 655.43 520.47 641.66 531.88 656.58 531.89 656.59 533.93 659.26 533.93 659.26 533.93 659.27 572.61 709.84 610.71 737.54 558.55 669.36"/><polygon class="cls-321" points="531.88 656.58 531.88 656.58 520.47 641.66 520.46 641.65 531.88 656.58"/><polygon class="cls-321" points="520.46 641.65 520.45 641.65 531.88 656.58 531.88 656.58 520.46 641.65"/><path class="cls-322" d="M612.08,531.52l-.9-.65L582.46,510l-1.53-1.11-.34-.24-1.1,2.43-.24.52-23.4,51.74h0l-.83,1.84L532.8,614.33h0l-.68,1.5-3.61,8-8.07,17.85h0l18.93,13.77,2.29,1.67,16.85,12.26,0-.1L564.14,657l4.37-9.65,3.86-8.54-.41-.19,22.18-49.05.84-1.86,23.35-51.65Z"/><circle class="cls-323" cx="555.87" cy="563.32" transform="translate(-235.04 535.45) rotate(-43.36)"/><polygon class="cls-324" points="532.8 614.33 532.8 614.33 532.8 614.33 532.8 614.33 555.04 565.16 555.87 563.32 555.87 563.32 555.04 565.16 532.8 614.33"/><polygon class="cls-325" points="532.8 614.33 532.8 614.33 532.8 614.33 555.04 565.16 555.87 563.32 555.87 563.32 555.04 565.16 532.8 614.33"/><polygon class="cls-326" points="532.8 614.33 532.8 614.34 532.8 614.34 532.81 614.33 532.8 614.33 532.8 614.33 532.8 614.33"/><circle class="cls-327" cx="532.8" cy="614.33" transform="translate(-166.93 200.01) rotate(-18.43)"/><polygon class="cls-328" points="528.52 623.8 520.46 641.65 520.46 641.65 520.47 641.66 520.46 641.65 528.53 623.81 532.14 615.83 532.82 614.34 532.8 614.34 532.13 615.83 528.52 623.8"/><polygon class="cls-329" points="532.13 615.83 528.52 623.8 520.45 641.65 520.46 641.65 520.46 641.65 528.52 623.8 532.13 615.83 532.8 614.34 532.8 614.34 532.13 615.83"/><polygon class="cls-330" points="629 481.12 634.43 477.98 634.43 477.55 629 480.68 580.6 508.62 580.94 508.87 629 481.12"/><path class="cls-331" d="M730.53,471.11l-37.59-27.34-58.5,33.78h0V478L629,481.12l-48.06,27.75,1.53,1.11,28.72,20.89.9.65L595,587.71l-.84,1.86L572,638.62l.41.19-3.86,8.54L564.14,657l-5.54,12.25L610.45,737,633.2,723.9l89.58-51.72,60.15-133Zm-26.2,177L631.73,690l-7-9.11-8.82-11.53-3.38-4.42-14.54-19,10.7-23.66,6.14-13.59.34-.74,19.23-42.53,2.46-5.45L709.49,518l33.71,44.07Z"/><path class="cls-2" d="M615.2,607.92l-.34.74-6.14,13.59L598,645.91l14.54,19,3.38,4.42,8.82,11.53,7,9.11,72.6-41.91,38.87-86L709.49,518l-72.6,41.91-2.46,5.45Zm24.89,13.71c.69-17.43,14.91-39.44,31.76-49.17a34.44,34.44,0,0,1,10.85-4.22c11.28-2.08,19,4.7,18.43,18.15-.69,17.43-14.91,39.44-31.79,49.18-14.89,8.6-26.84,4.71-28.95-8.33A28.2,28.2,0,0,1,640.09,621.62Z"/><path class="cls-332" d="M682.7,568.23a34.44,34.44,0,0,0-10.85,4.22c-16.85,9.73-31.07,31.74-31.76,49.17a28.2,28.2,0,0,0,.31,5.61c2.1,13,14.06,16.93,28.95,8.33,16.87-9.74,31.1-31.76,31.79-49.18C701.67,572.93,694,566.16,682.7,568.23Z"/><line class="cls-333" x1="618.33" y1="536.06" x2="730.53" y2="471.11"/></svg>