<svg t="1615865598224" class="icon" viewBox="0 0 1024 1024" version="1.1" xmlns="http://www.w3.org/2000/svg" p-id="11191" width="128" height="128"><path d="M512 512m-121.904762 0a121.904762 121.904762 0 1 0 243.809524 0 121.904762 121.904762 0 1 0-243.809524 0Z" fill="#5584FF" p-id="11192"></path><path d="M65.015873 495.746032h217.396825a64.609524 64.609524 0 0 0 60.952381-43.479365 180.419048 180.419048 0 0 1 108.901588-108.901588 64.609524 64.609524 0 0 0 43.479365-60.952381V65.015873a65.015873 65.015873 0 0 0-130.031746 0v175.136508A306.387302 306.387302 0 0 0 240.152381 365.714286H65.015873a65.015873 65.015873 0 0 0 0 130.031746zM452.266667 680.634921a180.419048 180.419048 0 0 1-108.901588-108.901588A64.609524 64.609524 0 0 0 282.412698 528.253968H65.015873a65.015873 65.015873 0 0 0 0 130.031746h175.136508A306.387302 306.387302 0 0 0 365.714286 783.847619v175.136508a65.015873 65.015873 0 0 0 130.031746 0v-216.990476a65.015873 65.015873 0 0 0-43.479365-61.35873zM571.733333 343.365079a180.419048 180.419048 0 0 1 108.901588 108.901588 65.015873 65.015873 0 0 0 61.35873 43.479365h216.990476a65.015873 65.015873 0 1 0 0-130.031746h-175.136508a306.387302 306.387302 0 0 0-125.561905-125.561905V65.015873a65.015873 65.015873 0 0 0-130.031746 0v217.396825a64.609524 64.609524 0 0 0 43.479365 60.952381zM958.984127 528.253968h-216.990476a65.015873 65.015873 0 0 0-61.35873 43.479365 180.419048 180.419048 0 0 1-108.901588 108.901588A65.015873 65.015873 0 0 0 528.253968 741.993651v216.990476a65.015873 65.015873 0 0 0 130.031746 0v-175.136508a306.387302 306.387302 0 0 0 125.561905-125.561905h175.136508a65.015873 65.015873 0 1 0 0-130.031746z" fill="#5584FF" p-id="11193"></path></svg>