<svg t="1615860364778" class="icon" viewBox="0 0 1024 1024" version="1.1" xmlns="http://www.w3.org/2000/svg" p-id="3447" width="128" height="128"><path d="M54.272 512c0 252.928 204.8 457.728 457.728 457.728s457.728-204.8 457.728-457.728-204.8-457.728-457.728-457.728-457.728 204.8-457.728 457.728z" fill="#e05644" p-id="3448"></path><path d="M512 0C230.4 0 0 230.4 0 512s230.4 512 512 512 512-230.4 512-512S793.6 0 512 0z m0 969.728c-252.928 0-457.728-204.8-457.728-457.728s204.8-457.728 457.728-457.728 457.728 204.8 457.728 457.728-204.8 457.728-457.728 457.728z" fill="#EAEAEA" p-id="3449"></path><path d="M379.904 418.304h264.192v69.12H379.904z" fill="#FFFFFF" p-id="3450"></path><path d="M772.608 590.848V312.32c0-18.944-14.336-34.304-32.768-34.304H282.624c-18.432 0-32.768 15.36-32.768 34.304v278.528c0 18.944 14.336 34.304 32.768 34.304h196.608v200.192c0 9.728 7.168 17.408 16.384 17.408h32.256c9.216 0 16.384-7.68 16.384-17.408v-200.192h196.608c18.432 0 32.768-15.36 32.768-34.304h-1.024z m-65.536-35.328H315.392V346.624h391.68v208.896z" fill="#FFFFFF" p-id="3451"></path></svg>