<svg width="228" height="235" xmlns="http://www.w3.org/2000/svg" xmlns:xlink="http://www.w3.org/1999/xlink"><use xlink:href="#a" y="1" width="228" height="234"/><path d="M37.1 206.6L79 239l118.5-63.5-60.5-49.4-117.7 68.1z" fill="#0f82f8"/><defs><linearGradient id="b" gradientUnits="userSpaceOnUse" x1="51.896" y1="91.836" x2="184.684" y2="89.747"><stop offset="0" stop-color="#0f82f8"/><stop offset="1" stop-color="#0f82f8"/></linearGradient></defs><path d="M126.5 69.7l54.9 41.2c-.8-.6-2-.5-3.5.3L123 70c1.5-.8 2.7-1 3.5-.3z" fill="url(#b)"/><defs><linearGradient id="c" gradientUnits="userSpaceOnUse" x1="52.64" y1="91.941" x2="184.049" y2="89.877"><stop offset="0" stop-color="#0f82f8"/><stop offset="1" stop-color="#0f82f8"/></linearGradient></defs><path d="M177.8 111.2L123 70l1-.4 55 41.2a6 6 0 0 0-1 .4" fill="url(#c)"/><defs><linearGradient id="d" gradientUnits="userSpaceOnUse" x1="52.968" y1="91.658" x2="184.146" y2="89.594"><stop offset="0" stop-color="#0f82f8"/><stop offset="1" stop-color="#0f82f8"/></linearGradient></defs><path d="M178.7 110.8l-54.9-41.2.5-.2 55 41.2c-.3 0-.4 0-.6.2" fill="url(#d)"/><defs><linearGradient id="e" gradientUnits="userSpaceOnUse" x1="53.118" y1="91.548" x2="184.227" y2="89.488"><stop offset="0" stop-color="#0f82f8"/><stop offset="1" stop-color="#0f82f8"/></linearGradient></defs><path d="M179.2 110.6l-54.9-41.2h.4l55 41.2h-.5" fill="url(#e)"/><defs><linearGradient id="f" gradientUnits="userSpaceOnUse" x1="53.223" y1="91.5" x2="184.296" y2="89.44"><stop offset="0" stop-color="#0f82f8"/><stop offset="1" stop-color="#0f82f8"/></linearGradient></defs><path d="M179.6 110.6l-55-41.2h.4l54.9 41.2h-.3" fill="url(#f)"/><defs><linearGradient id="g" gradientUnits="userSpaceOnUse" x1="53.304" y1="91.484" x2="184.356" y2="89.428"><stop offset="0" stop-color="#0f82f8"/><stop offset="1" stop-color="#0f82f8"/></linearGradient></defs><path d="M179.9 110.5L125 69.3h.3l54.9 41.2h-.3" fill="url(#g)"/><defs><linearGradient id="h" gradientUnits="userSpaceOnUse" x1="53.373" y1="91.5" x2="184.413" y2="89.44"><stop offset="0" stop-color="#0f82f8"/><stop offset="1" stop-color="#0f82f8"/></linearGradient></defs><path d="M180.2 110.5l-55-41.2h.3l54.9 41.2z" fill="url(#h)"/><defs><linearGradient id="i" gradientUnits="userSpaceOnUse" x1="53.438" y1="91.532" x2="184.466" y2="89.476"><stop offset="0" stop-color="#0f82f8"/><stop offset="1" stop-color="#0f82f8"/></linearGradient></defs><path d="M180.4 110.6l-54.9-41.2h.2l55 41.2z" fill="url(#i)"/><defs><linearGradient id="j" gradientUnits="userSpaceOnUse" x1="53.494" y1="91.585" x2="184.514" y2="89.529"><stop offset="0" stop-color="#0f82f8"/><stop offset="1" stop-color="#0f82f8"/></linearGradient></defs><path d="M180.6 110.6l-54.9-41.2h.2l55 41.2h-.3" fill="url(#j)"/><defs><linearGradient id="k" gradientUnits="userSpaceOnUse" x1="53.547" y1="91.658" x2="184.559" y2="89.602"><stop offset="0" stop-color="#0f82f8"/><stop offset="1" stop-color="#0f82f8"/></linearGradient></defs><path d="M180.8 110.7L126 69.5h.2l55 41.2h-.3" fill="url(#k)"/><defs><linearGradient id="l" gradientUnits="userSpaceOnUse" x1="53.6" y1="91.751" x2="184.603" y2="89.695"><stop offset="0" stop-color="#0f82f8"/><stop offset="1" stop-color="#0f82f8"/></linearGradient></defs><path d="M181 110.7l-54.9-41.2.2.1 55 41.2a1.9 1.9 0 0 0-.3 0" fill="url(#l)"/><defs><linearGradient id="m" gradientUnits="userSpaceOnUse" x1="53.66" y1="91.844" x2="184.636" y2="89.788"><stop offset="0" stop-color="#0f82f8"/><stop offset="1" stop-color="#0f82f8"/></linearGradient></defs><path d="M181.2 110.8l-54.9-41.2h.1l55 41.2z" fill="url(#m)"/><defs><linearGradient id="n" gradientUnits="userSpaceOnUse" x1="30.66" y1="178.761" x2="162.056" y2="176.697"><stop offset="0" stop-color="#0089ff"/><stop offset="1" stop-color="#0070f3"/></linearGradient></defs><path d="M78.3 200.3L23.5 159c-.6-.4-1-1.3-1-2.4l54.9 41.2c0 1 .3 2 1 2.4z" fill="url(#n)"/><defs><linearGradient id="o" gradientUnits="userSpaceOnUse" x1="30.66" y1="178.761" x2="162.056" y2="176.697"><stop offset="0" stop-color="#0089ff"/><stop offset="1" stop-color="#0070f3"/></linearGradient></defs><path d="M78.3 200.3L23.5 159c-.6-.4-1-1.3-1-2.4l54.9 41.2c0 1 .3 2 1 2.4" fill="url(#o)"/><defs><linearGradient id="p" gradientUnits="userSpaceOnUse" x1="30.466" y1="165.3" x2="162.113" y2="163.232"><stop offset="0" stop-color="#0089ff"/><stop offset="1" stop-color="#0070f3"/></linearGradient></defs><path d="M77.4 197.8l-55-41.2 1-24.5 55 41.2z" fill="url(#p)"/><defs><linearGradient id="q" gradientUnits="userSpaceOnUse" x1="46.42" y1="135.226" x2="152.311" y2="102.913"><stop offset="0" stop-color="#4da6f9"/><stop offset="1" stop-color="#0f82f8"/></linearGradient></defs><path d="M83.2 165.9l-55-41.2L123 70l54.9 41.2z" fill="url(#q)"/><defs><linearGradient id="r" gradientUnits="userSpaceOnUse" x1="51.102" y1="151.475" x2="56.275" y2="143.988"><stop offset="0" stop-color="#0084fd"/><stop offset=".52" stop-color="#63bbf9"/><stop offset="1" stop-color="#47a0f9"/></linearGradient></defs><path d="M78.4 173.3l-54.9-41.2c.1-2.6 2.3-6 4.8-7.5l54.9 41.2c-2.6 1.5-4.7 4.8-4.8 7.5z" fill="url(#r)"/><defs><linearGradient id="s" gradientUnits="userSpaceOnUse" x1="51.56" y1="151.394" x2="57.408" y2="142.928"><stop offset="0" stop-color="#0084fd"/><stop offset=".52" stop-color="#63bbf9"/><stop offset="1" stop-color="#47a0f9"/></linearGradient></defs><path d="M78.4 173.3l-54.9-41.2.1-1 54.9 41.2-.1 1" fill="url(#s)"/><defs><linearGradient id="t" gradientUnits="userSpaceOnUse" x1="51.191" y1="151.313" x2="57.185" y2="142.644"><stop offset="0" stop-color="#0084fd"/><stop offset=".52" stop-color="#63bbf9"/><stop offset="1" stop-color="#47a0f9"/></linearGradient></defs><path d="M78.5 172.3L23.7 131l.1-.6 54.8 41.2-.1.6" fill="url(#t)"/><defs><linearGradient id="u" gradientUnits="userSpaceOnUse" x1="50.989" y1="151.313" x2="57.023" y2="142.584"><stop offset="0" stop-color="#0084fd"/><stop offset=".52" stop-color="#63bbf9"/><stop offset="1" stop-color="#47a0f9"/></linearGradient></defs><path d="M78.7 171.7l-55-41.2q0-.2.3-.5l54.9 41.2-.2.5" fill="url(#u)"/><defs><linearGradient id="v" gradientUnits="userSpaceOnUse" x1="50.835" y1="151.334" x2="56.886" y2="142.58"><stop offset="0" stop-color="#0084fd"/><stop offset=".52" stop-color="#63bbf9"/><stop offset="1" stop-color="#47a0f9"/></linearGradient></defs><path d="M78.8 171.3L24 130l.2-.3 55 41.2q0 .2-.3.4" fill="url(#v)"/><defs><linearGradient id="w" gradientUnits="userSpaceOnUse" x1="50.71" y1="151.366" x2="56.773" y2="142.596"><stop offset="0" stop-color="#0084fd"/><stop offset=".52" stop-color="#63bbf9"/><stop offset="1" stop-color="#47a0f9"/></linearGradient></defs><path d="M79 170.8l-55-41.2q0-.2.3-.4l54.9 41.2-.2.4" fill="url(#w)"/><defs><linearGradient id="x" gradientUnits="userSpaceOnUse" x1="50.601" y1="151.406" x2="56.671" y2="142.628"><stop offset="0" stop-color="#0084fd"/><stop offset=".52" stop-color="#63bbf9"/><stop offset="1" stop-color="#47a0f9"/></linearGradient></defs><path d="M79.1 170.5l-54.9-41.2q0-.2.2-.3l55 41.2q0 .2-.3.3" fill="url(#x)"/><defs><linearGradient id="y" gradientUnits="userSpaceOnUse" x1="50.507" y1="151.451" x2="56.578" y2="142.669"><stop offset="0" stop-color="#0084fd"/><stop offset=".52" stop-color="#63bbf9"/><stop offset="1" stop-color="#47a0f9"/></linearGradient></defs><path d="M79.3 170.1L24.4 129q0-.2.2-.3l54.9 41.2q0 .2-.2.3" fill="url(#y)"/><defs><linearGradient id="z" gradientUnits="userSpaceOnUse" x1="50.427" y1="151.504" x2="56.497" y2="142.721"><stop offset="0" stop-color="#0084fd"/><stop offset=".52" stop-color="#63bbf9"/><stop offset="1" stop-color="#47a0f9"/></linearGradient></defs><path d="M79.5 169.8l-54.9-41.2q0-.2.2-.3l54.9 41.2-.2.3" fill="url(#z)"/><defs><linearGradient id="A" gradientUnits="userSpaceOnUse" x1="50.358" y1="151.564" x2="56.429" y2="142.782"><stop offset="0" stop-color="#0084fd"/><stop offset=".52" stop-color="#63bbf9"/><stop offset="1" stop-color="#47a0f9"/></linearGradient></defs><path d="M79.7 169.5l-55-41.2.3-.3 54.9 41.2z" fill="url(#A)"/><defs><linearGradient id="B" gradientUnits="userSpaceOnUse" x1="50.301" y1="151.629" x2="56.368" y2="142.851"><stop offset="0" stop-color="#0084fd"/><stop offset=".52" stop-color="#63bbf9"/><stop offset="1" stop-color="#47a0f9"/></linearGradient></defs><path d="M79.9 169.1L25 128l.2-.3 54.9 41.2-.2.3" fill="url(#B)"/><defs><linearGradient id="C" gradientUnits="userSpaceOnUse" x1="50.248" y1="151.706" x2="56.315" y2="142.928"><stop offset="0" stop-color="#0084fd"/><stop offset=".52" stop-color="#63bbf9"/><stop offset="1" stop-color="#47a0f9"/></linearGradient></defs><path d="M80 168.8l-54.8-41.2.2-.3 54.9 41.2-.2.3" fill="url(#C)"/><defs><linearGradient id="D" gradientUnits="userSpaceOnUse" x1="50.212" y1="151.787" x2="56.271" y2="143.017"><stop offset="0" stop-color="#0084fd"/><stop offset=".52" stop-color="#63bbf9"/><stop offset="1" stop-color="#47a0f9"/></linearGradient></defs><path d="M80.3 168.5l-54.9-41.2.2-.3 55 41.2-.3.3" fill="url(#D)"/><defs><linearGradient id="E" gradientUnits="userSpaceOnUse" x1="50.184" y1="151.876" x2="56.238" y2="143.118"><stop offset="0" stop-color="#0084fd"/><stop offset=".52" stop-color="#63bbf9"/><stop offset="1" stop-color="#47a0f9"/></linearGradient></defs><path d="M80.5 168.2L25.6 127l.3-.3 55 41.2-.4.3" fill="url(#E)"/><defs><linearGradient id="F" gradientUnits="userSpaceOnUse" x1="50.176" y1="151.973" x2="56.214" y2="143.235"><stop offset="0" stop-color="#0084fd"/><stop offset=".52" stop-color="#63bbf9"/><stop offset="1" stop-color="#47a0f9"/></linearGradient></defs><path d="M80.8 167.9L26 126.7l.3-.3 55 41.2-.4.3" fill="url(#F)"/><defs><linearGradient id="G" gradientUnits="userSpaceOnUse" x1="50.188" y1="152.082" x2="56.202" y2="143.381"><stop offset="0" stop-color="#0084fd"/><stop offset=".52" stop-color="#63bbf9"/><stop offset="1" stop-color="#47a0f9"/></linearGradient></defs><path d="M81.1 167.5l-54.9-41.2.4-.4 55 41.2-.5.4" fill="url(#G)"/><defs><linearGradient id="H" gradientUnits="userSpaceOnUse" x1="50.244" y1="152.208" x2="56.21" y2="143.575"><stop offset="0" stop-color="#0084fd"/><stop offset=".52" stop-color="#63bbf9"/><stop offset="1" stop-color="#47a0f9"/></linearGradient></defs><path d="M81.5 167.2l-55-41.2.6-.4L82 166.8l-.5.4" fill="url(#H)"/><defs><linearGradient id="I" gradientUnits="userSpaceOnUse" x1="50.58" y1="152.305" x2="56.307" y2="144.016"><stop offset="0" stop-color="#0084fd"/><stop offset=".52" stop-color="#63bbf9"/><stop offset="1" stop-color="#47a0f9"/></linearGradient></defs><path d="M82 166.8l-55-41.2a8.3 8.3 0 0 1 1.3-1L83.2 166l-1.2.9" fill="url(#I)"/><defs><linearGradient id="J" gradientUnits="userSpaceOnUse" x1="80.764" y1="169.149" x2="179.528" y2="141.863"><stop offset="0" stop-color="#4ca3f9"/><stop offset="1" stop-color="#0070f3"/></linearGradient></defs><path d="M79.6 200.5a1.9 1.9 0 0 1-1.4-.6 2.7 2.7 0 0 1-.6-2l1-24.5c.1-2.6 2.2-6 4.7-7.3l94.6-54.6a4.4 4.4 0 0 1 2.1-.7 1.9 1.9 0 0 1 1.4.6c.5.6.7 1.3.6 2l-1 24.5c0 2.6-2.2 5.9-4.7 7.3l-94.6 54.6a4.4 4.4 0 0 1-2 .7z" fill="url(#J)"/><path d="M180 111c.6 0 1 .1 1.4.4.4.5.6 1.2.6 2l-1 24.4c-.1 2.5-2.2 5.8-4.6 7.1l-94.6 54.6a4.2 4.2 0 0 1-2 .6 1.7 1.7 0 0 1-1.3-.5 2.5 2.5 0 0 1-.6-1.9l1-24.5c0-2.5 2.2-5.8 4.6-7l94.6-54.7a4.2 4.2 0 0 1 2-.6m0-.4a4.5 4.5 0 0 0-2.2.7l-94.6 54.6c-2.6 1.5-4.7 5-4.8 7.5l-1 24.5c0 1.8.8 2.8 2.2 2.8a4.6 4.6 0 0 0 2.2-.7l94.6-54.6c2.6-1.5 4.7-4.9 4.8-7.5l1-24.5c0-1.8-.8-2.8-2.2-2.8z" fill="#fff"/><path d="M113.7 161.7c.7-.4 1.3-.1 1.3.6l-.3 7a3 3 0 0 1-1.4 2L86.5 187c-.7.4-1.3 0-1.3-.6l.3-7a3 3 0 0 1 1.4-2.1z" fill="#fff"/><defs><linearGradient id="K" gradientUnits="userSpaceOnUse" x1="51.896" y1="59.28" x2="184.684" y2="57.196"><stop offset="0" stop-color="#0f82f8"/><stop offset="1" stop-color="#0f82f8"/></linearGradient></defs><path d="M126.5 37.2l54.9 41.2c-.8-.6-2-.5-3.5.3L123 37.5c1.5-.8 2.7-1 3.5-.3z" fill="url(#K)"/><defs><linearGradient id="L" gradientUnits="userSpaceOnUse" x1="52.64" y1="59.389" x2="184.049" y2="57.325"><stop offset="0" stop-color="#0f82f8"/><stop offset="1" stop-color="#0f82f8"/></linearGradient></defs><path d="M177.8 78.7L123 37.5l1-.4 55 41.2a6 6 0 0 0-1 .4" fill="url(#L)"/><defs><linearGradient id="M" gradientUnits="userSpaceOnUse" x1="52.968" y1="59.102" x2="184.146" y2="57.042"><stop offset="0" stop-color="#0f82f8"/><stop offset="1" stop-color="#0f82f8"/></linearGradient></defs><path d="M178.7 78.2L123.8 37c.2 0 .3 0 .5-.2l55 41.2c-.3 0-.4 0-.6.2" fill="url(#M)"/><defs><linearGradient id="N" gradientUnits="userSpaceOnUse" x1="53.118" y1="58.993" x2="184.227" y2="56.933"><stop offset="0" stop-color="#0f82f8"/><stop offset="1" stop-color="#0f82f8"/></linearGradient></defs><path d="M179.2 78L124.3 37h.4l55 41.2h-.5" fill="url(#N)"/><defs><linearGradient id="O" gradientUnits="userSpaceOnUse" x1="53.223" y1="58.944" x2="184.296" y2="56.888"><stop offset="0" stop-color="#0f82f8"/><stop offset="1" stop-color="#0f82f8"/></linearGradient></defs><path d="M179.6 78l-55-41.2h.4L179.9 78h-.3" fill="url(#O)"/><defs><linearGradient id="P" gradientUnits="userSpaceOnUse" x1="53.304" y1="58.932" x2="184.356" y2="56.872"><stop offset="0" stop-color="#0f82f8"/><stop offset="1" stop-color="#0f82f8"/></linearGradient></defs><path d="M179.9 78L125 36.8h.3L180.2 78h-.3" fill="url(#P)"/><defs><linearGradient id="Q" gradientUnits="userSpaceOnUse" x1="53.373" y1="58.944" x2="184.413" y2="56.888"><stop offset="0" stop-color="#0f82f8"/><stop offset="1" stop-color="#0f82f8"/></linearGradient></defs><path d="M180.2 78l-55-41.2h.3L180.4 78z" fill="url(#Q)"/><defs><linearGradient id="R" gradientUnits="userSpaceOnUse" x1="53.438" y1="58.981" x2="184.466" y2="56.921"><stop offset="0" stop-color="#0f82f8"/><stop offset="1" stop-color="#0f82f8"/></linearGradient></defs><path d="M180.4 78l-54.9-41.2h.2l55 41.2h-.3" fill="url(#R)"/><defs><linearGradient id="S" gradientUnits="userSpaceOnUse" x1="53.494" y1="59.033" x2="184.514" y2="56.973"><stop offset="0" stop-color="#0f82f8"/><stop offset="1" stop-color="#0f82f8"/></linearGradient></defs><path d="M180.6 78l-54.9-41.2h.2L181 78h-.3" fill="url(#S)"/><defs><linearGradient id="T" gradientUnits="userSpaceOnUse" x1="53.547" y1="59.106" x2="184.559" y2="57.046"><stop offset="0" stop-color="#0f82f8"/><stop offset="1" stop-color="#0f82f8"/></linearGradient></defs><path d="M180.8 78.1L126 37h.2l55 41.2h-.3" fill="url(#T)"/><defs><linearGradient id="U" gradientUnits="userSpaceOnUse" x1="53.6" y1="59.199" x2="184.603" y2="57.139"><stop offset="0" stop-color="#0f82f8"/><stop offset="1" stop-color="#0f82f8"/></linearGradient></defs><path d="M181 78.2L126.1 37h.2l55 41.3a2 2 0 0 0-.3-.1" fill="url(#U)"/><defs><linearGradient id="V" gradientUnits="userSpaceOnUse" x1="53.66" y1="59.292" x2="184.636" y2="57.236"><stop offset="0" stop-color="#0f82f8"/><stop offset="1" stop-color="#0f82f8"/></linearGradient></defs><path d="M181.2 78.3L126.3 37h.1l55 41.2h-.2" fill="url(#V)"/><defs><linearGradient id="W" gradientUnits="userSpaceOnUse" x1="30.66" y1="146.206" x2="162.056" y2="144.142"><stop offset="0" stop-color="#0089ff"/><stop offset="1" stop-color="#0070f3"/></linearGradient></defs><path d="M78.3 167.7l-54.8-41.2c-.6-.4-1-1.3-1-2.4l54.9 41.2c0 1.1.3 2 1 2.4z" fill="url(#W)"/><defs><linearGradient id="X" gradientUnits="userSpaceOnUse" x1="30.66" y1="146.206" x2="162.056" y2="144.142"><stop offset="0" stop-color="#0089ff"/><stop offset="1" stop-color="#0070f3"/></linearGradient></defs><path d="M78.3 167.7l-54.8-41.2c-.6-.4-1-1.3-1-2.4l54.9 41.2c0 1.1.3 2 1 2.4" fill="url(#X)"/><defs><linearGradient id="Y" gradientUnits="userSpaceOnUse" x1="30.466" y1="132.749" x2="162.113" y2="130.681"><stop offset="0" stop-color="#0089ff"/><stop offset="1" stop-color="#0070f3"/></linearGradient></defs><path d="M77.4 165.3l-55-41.2 1-24.5 55 41.2z" fill="url(#Y)"/><defs><linearGradient id="Z" gradientUnits="userSpaceOnUse" x1="46.42" y1="102.674" x2="152.311" y2="70.357"><stop offset="0" stop-color="#4da6f9"/><stop offset="1" stop-color="#0f82f8"/></linearGradient></defs><path d="M83.2 133.3l-55-41.2L123 37.5l54.9 41.2z" fill="url(#Z)"/><defs><linearGradient id="aa" gradientUnits="userSpaceOnUse" x1="51.102" y1="118.92" x2="56.275" y2="111.436"><stop offset="0" stop-color="#0084fd"/><stop offset=".52" stop-color="#63bbf9"/><stop offset="1" stop-color="#47a0f9"/></linearGradient></defs><path d="M78.4 140.8L23.5 99.6c.1-2.6 2.3-6 4.8-7.5l54.9 41.2c-2.6 1.5-4.7 4.8-4.8 7.5z" fill="url(#aa)"/><defs><linearGradient id="ab" gradientUnits="userSpaceOnUse" x1="51.56" y1="118.839" x2="57.408" y2="110.376"><stop offset="0" stop-color="#0084fd"/><stop offset=".52" stop-color="#63bbf9"/><stop offset="1" stop-color="#47a0f9"/></linearGradient></defs><path d="M78.4 140.8L23.5 99.6l.1-1 54.9 41.2-.1 1" fill="url(#ab)"/><defs><linearGradient id="ac" gradientUnits="userSpaceOnUse" x1="51.191" y1="118.762" x2="57.185" y2="110.089"><stop offset="0" stop-color="#0084fd"/><stop offset=".52" stop-color="#63bbf9"/><stop offset="1" stop-color="#47a0f9"/></linearGradient></defs><path d="M78.5 139.7L23.7 98.5l.1-.6 54.8 41.2-.1.6" fill="url(#ac)"/><defs><linearGradient id="ad" gradientUnits="userSpaceOnUse" x1="50.989" y1="118.762" x2="57.023" y2="110.032"><stop offset="0" stop-color="#0084fd"/><stop offset=".52" stop-color="#63bbf9"/><stop offset="1" stop-color="#47a0f9"/></linearGradient></defs><path d="M78.7 139.1L23.8 98l.2-.5 54.9 41.2-.2.5" fill="url(#ad)"/><defs><linearGradient id="ae" gradientUnits="userSpaceOnUse" x1="50.835" y1="118.782" x2="56.886" y2="110.024"><stop offset="0" stop-color="#0084fd"/><stop offset=".52" stop-color="#63bbf9"/><stop offset="1" stop-color="#47a0f9"/></linearGradient></defs><path d="M78.8 138.7L24 97.5l.2-.4 54.9 41.2-.2.4" fill="url(#ae)"/><defs><linearGradient id="af" gradientUnits="userSpaceOnUse" x1="50.71" y1="118.814" x2="56.773" y2="110.04"><stop offset="0" stop-color="#0084fd"/><stop offset=".52" stop-color="#63bbf9"/><stop offset="1" stop-color="#47a0f9"/></linearGradient></defs><path d="M79 138.3L24 97l.2-.4 54.9 41.2-.2.4" fill="url(#af)"/><defs><linearGradient id="ag" gradientUnits="userSpaceOnUse" x1="50.601" y1="118.851" x2="56.671" y2="110.072"><stop offset="0" stop-color="#0084fd"/><stop offset=".52" stop-color="#63bbf9"/><stop offset="1" stop-color="#47a0f9"/></linearGradient></defs><path d="M79.1 138L24.3 96.6q0-.2.2-.3l54.9 41.2q0 .2-.2.3" fill="url(#ag)"/><defs><linearGradient id="ah" gradientUnits="userSpaceOnUse" x1="50.507" y1="118.899" x2="56.578" y2="110.117"><stop offset="0" stop-color="#0084fd"/><stop offset=".52" stop-color="#63bbf9"/><stop offset="1" stop-color="#47a0f9"/></linearGradient></defs><path d="M79.3 137.6L24.4 96.4q0-.2.2-.3l54.9 41.2q0 .2-.2.3" fill="url(#ah)"/><defs><linearGradient id="ai" gradientUnits="userSpaceOnUse" x1="50.427" y1="118.952" x2="56.497" y2="110.165"><stop offset="0" stop-color="#0084fd"/><stop offset=".52" stop-color="#63bbf9"/><stop offset="1" stop-color="#47a0f9"/></linearGradient></defs><path d="M79.5 137.2L24.6 96q0-.2.2-.3l54.9 41.2-.2.3" fill="url(#ai)"/><defs><linearGradient id="aj" gradientUnits="userSpaceOnUse" x1="50.358" y1="119.013" x2="56.429" y2="110.226"><stop offset="0" stop-color="#0084fd"/><stop offset=".52" stop-color="#63bbf9"/><stop offset="1" stop-color="#47a0f9"/></linearGradient></defs><path d="M79.7 137l-55-41.3.3-.3 54.9 41.2z" fill="url(#aj)"/><defs><linearGradient id="ak" gradientUnits="userSpaceOnUse" x1="50.301" y1="119.077" x2="56.368" y2="110.295"><stop offset="0" stop-color="#0084fd"/><stop offset=".52" stop-color="#63bbf9"/><stop offset="1" stop-color="#47a0f9"/></linearGradient></defs><path d="M79.9 136.6L25 95.4l.2-.3 54.9 41.2-.2.3" fill="url(#ak)"/><defs><linearGradient id="al" gradientUnits="userSpaceOnUse" x1="50.248" y1="119.15" x2="56.315" y2="110.376"><stop offset="0" stop-color="#0084fd"/><stop offset=".52" stop-color="#63bbf9"/><stop offset="1" stop-color="#47a0f9"/></linearGradient></defs><path d="M80 136.3L25.3 95l.2-.3 54.9 41.2-.2.3" fill="url(#al)"/><defs><linearGradient id="am" gradientUnits="userSpaceOnUse" x1="50.212" y1="119.231" x2="56.271" y2="110.465"><stop offset="0" stop-color="#0084fd"/><stop offset=".52" stop-color="#63bbf9"/><stop offset="1" stop-color="#47a0f9"/></linearGradient></defs><path d="M80.3 136L25.4 94.8l.2-.3 54.9 41.2-.2.3" fill="url(#am)"/><defs><linearGradient id="an" gradientUnits="userSpaceOnUse" x1="50.184" y1="119.32" x2="56.238" y2="110.566"><stop offset="0" stop-color="#0084fd"/><stop offset=".52" stop-color="#63bbf9"/><stop offset="1" stop-color="#47a0f9"/></linearGradient></defs><path d="M80.5 135.6L25.8 94.4l.3-.3 54.9 41.2-.3.3" fill="url(#an)"/><defs><linearGradient id="ao" gradientUnits="userSpaceOnUse" x1="50.176" y1="119.421" x2="56.214" y2="110.684"><stop offset="0" stop-color="#0084fd"/><stop offset=".52" stop-color="#63bbf9"/><stop offset="1" stop-color="#47a0f9"/></linearGradient></defs><path d="M80.8 135.3L26 94.1l.3-.3L81.2 135l-.3.3" fill="url(#ao)"/><defs><linearGradient id="ap" gradientUnits="userSpaceOnUse" x1="50.188" y1="119.531" x2="56.202" y2="110.829"><stop offset="0" stop-color="#0084fd"/><stop offset=".52" stop-color="#63bbf9"/><stop offset="1" stop-color="#47a0f9"/></linearGradient></defs><path d="M81.1 135L26.3 93.8l.4-.4 54.9 41.2-.4.4" fill="url(#ap)"/><defs><linearGradient id="aq" gradientUnits="userSpaceOnUse" x1="50.244" y1="119.652" x2="56.21" y2="111.023"><stop offset="0" stop-color="#0084fd"/><stop offset=".52" stop-color="#63bbf9"/><stop offset="1" stop-color="#47a0f9"/></linearGradient></defs><path d="M81.5 134.6L26.6 93.4l.5-.4L82 134.2l-.5.4" fill="url(#aq)"/><defs><linearGradient id="ar" gradientUnits="userSpaceOnUse" x1="50.58" y1="119.749" x2="56.307" y2="111.461"><stop offset="0" stop-color="#0084fd"/><stop offset=".52" stop-color="#63bbf9"/><stop offset="1" stop-color="#47a0f9"/></linearGradient></defs><path d="M82 134.2L27 93a8.2 8.2 0 0 1 1.2-.9l54.9 41.2-1.2.9" fill="url(#ar)"/><defs><linearGradient id="as" gradientUnits="userSpaceOnUse" x1="80.764" y1="136.598" x2="179.528" y2="109.312"><stop offset="0" stop-color="#4ca3f9"/><stop offset="1" stop-color="#0070f3"/></linearGradient></defs><path d="M79.6 167.9a1.9 1.9 0 0 1-1.4-.6 2.7 2.7 0 0 1-.6-2l1-24.5c.1-2.6 2.2-5.9 4.7-7.3L178 78.9a4.4 4.4 0 0 1 2.1-.7c.5 0 1 .2 1.4.6a2.7 2.7 0 0 1 .6 2l-1 24.5c0 2.6-2.2 5.9-4.7 7.3l-94.6 54.6a4.4 4.4 0 0 1-2 .7z" fill="url(#as)"/><path d="M180 78.4c.6 0 1 .2 1.4.5a2.5 2.5 0 0 1 .6 1.9l-1 24.5c-.1 2.5-2.2 5.8-4.6 7L81.8 167a4.2 4.2 0 0 1-2 .6 1.7 1.7 0 0 1-1.3-.5 2.5 2.5 0 0 1-.6-2l1-24.4c0-2.5 2.2-5.8 4.6-7.1L178 79a4.2 4.2 0 0 1 2-.6m0-.4a4.6 4.6 0 0 0-2.2.7l-94.6 54.6c-2.6 1.5-4.7 4.9-4.8 7.5l-1 24.5c0 1.8.8 2.8 2.2 2.8a4.6 4.6 0 0 0 2.2-.7l94.6-54.6c2.6-1.5 4.7-5 4.8-7.5l1-24.5c0-1.8-.8-2.8-2.2-2.8z" fill="#fff"/><path d="M113.7 129.1c.7-.4 1.3 0 1.3.6l-.3 7a3 3 0 0 1-1.4 2.1l-26.8 15.5c-.7.4-1.3.1-1.3-.6l.3-7a3 3 0 0 1 1.4-2.1z" fill="#fff"/><g><defs><linearGradient id="at" gradientUnits="userSpaceOnUse" x1="51.896" y1="25.251" x2="184.684" y2="23.167"><stop offset="0" stop-color="#0f82f8"/><stop offset="1" stop-color="#0f82f8"/></linearGradient></defs><path d="M126.5 3.1l54.9 41.2c-.8-.6-2-.5-3.5.3L123 3.4c1.5-.8 2.7-.9 3.5-.3z" fill="url(#at)"/><defs><linearGradient id="au" gradientUnits="userSpaceOnUse" x1="52.64" y1="25.36" x2="184.049" y2="23.296"><stop offset="0" stop-color="#0f82f8"/><stop offset="1" stop-color="#0f82f8"/></linearGradient></defs><path d="M177.8 44.6L123 3.4l1-.4 54.9 41.2a6 6 0 0 0-1 .4" fill="url(#au)"/><defs><linearGradient id="av" gradientUnits="userSpaceOnUse" x1="52.968" y1="25.073" x2="184.146" y2="23.013"><stop offset="0" stop-color="#0f82f8"/><stop offset="1" stop-color="#0f82f8"/></linearGradient></defs><path d="M178.7 44.2L124 3l.5-.2L179.3 44c-.2 0-.3 0-.5.2" fill="url(#av)"/><defs><linearGradient id="aw" gradientUnits="userSpaceOnUse" x1="53.118" y1="24.964" x2="184.227" y2="22.908"><stop offset="0" stop-color="#0f82f8"/><stop offset="1" stop-color="#0f82f8"/></linearGradient></defs><path d="M179.2 44L124.4 2.9h.4L179.7 44h-.4" fill="url(#aw)"/><defs><linearGradient id="ax" gradientUnits="userSpaceOnUse" x1="53.223" y1="24.919" x2="184.296" y2="22.859"><stop offset="0" stop-color="#0f82f8"/><stop offset="1" stop-color="#0f82f8"/></linearGradient></defs><path d="M179.6 44l-55-41.2h.4L179.9 44h-.3" fill="url(#ax)"/><defs><linearGradient id="ay" gradientUnits="userSpaceOnUse" x1="53.304" y1="24.903" x2="184.356" y2="22.843"><stop offset="0" stop-color="#0f82f8"/><stop offset="1" stop-color="#0f82f8"/></linearGradient></defs><path d="M179.9 44L125 2.7h.3l54.9 41.2h-.3" fill="url(#ay)"/><defs><linearGradient id="az" gradientUnits="userSpaceOnUse" x1="53.373" y1="24.915" x2="184.413" y2="22.859"><stop offset="0" stop-color="#0f82f8"/><stop offset="1" stop-color="#0f82f8"/></linearGradient></defs><path d="M180.2 44l-55-41.3h.3L180.4 44h-.2" fill="url(#az)"/><defs><linearGradient id="aA" gradientUnits="userSpaceOnUse" x1="53.438" y1="24.952" x2="184.466" y2="22.892"><stop offset="0" stop-color="#0f82f8"/><stop offset="1" stop-color="#0f82f8"/></linearGradient></defs><path d="M180.4 44L125.6 2.8h.2L180.7 44z" fill="url(#aA)"/><defs><linearGradient id="aB" gradientUnits="userSpaceOnUse" x1="53.494" y1="25.004" x2="184.514" y2="22.948"><stop offset="0" stop-color="#0f82f8"/><stop offset="1" stop-color="#0f82f8"/></linearGradient></defs><path d="M180.6 44L125.7 2.8h.2L181 44h-.3" fill="url(#aB)"/><defs><linearGradient id="aC" gradientUnits="userSpaceOnUse" x1="53.547" y1="25.077" x2="184.559" y2="23.021"><stop offset="0" stop-color="#0f82f8"/><stop offset="1" stop-color="#0f82f8"/></linearGradient></defs><path d="M180.8 44L126 2.9h.2L181.1 44h-.2" fill="url(#aC)"/><defs><linearGradient id="aD" gradientUnits="userSpaceOnUse" x1="53.6" y1="25.17" x2="184.603" y2="23.11"><stop offset="0" stop-color="#0f82f8"/><stop offset="1" stop-color="#0f82f8"/></linearGradient></defs><path d="M181 44.2L126.1 3h.2l55 41.3a1.9 1.9 0 0 0-.3-.1" fill="url(#aD)"/><defs><linearGradient id="aE" gradientUnits="userSpaceOnUse" x1="53.66" y1="25.263" x2="184.636" y2="23.207"><stop offset="0" stop-color="#0f82f8"/><stop offset="1" stop-color="#0f82f8"/></linearGradient></defs><path d="M181.2 44.3L126.4 3h.1l54.9 41.2h-.1" fill="url(#aE)"/></g><g><defs><linearGradient id="aF" gradientUnits="userSpaceOnUse" x1="30.66" y1="112.181" x2="162.056" y2="110.117"><stop offset="0" stop-color="#0089ff"/><stop offset="1" stop-color="#0070f3"/></linearGradient></defs><path d="M78.3 133.7L23.5 92.5c-.6-.4-1-1.3-1-2.4l54.9 41.2c0 1.1.3 2 1 2.4z" fill="url(#aF)"/><defs><linearGradient id="aG" gradientUnits="userSpaceOnUse" x1="30.66" y1="112.181" x2="162.056" y2="110.117"><stop offset="0" stop-color="#0089ff"/><stop offset="1" stop-color="#0070f3"/></linearGradient></defs><path d="M78.3 133.7L23.5 92.5c-.6-.4-1-1.3-1-2.4l54.9 41.2c0 1.1.3 2 1 2.4" fill="url(#aG)"/></g><defs><linearGradient id="aH" gradientUnits="userSpaceOnUse" x1="30.466" y1="98.72" x2="162.113" y2="96.652"><stop offset="0" stop-color="#0089ff"/><stop offset="1" stop-color="#0070f3"/></linearGradient></defs><path d="M77.4 131.3L22.4 90l1-24.5 55 41.2z" fill="url(#aH)"/><defs><linearGradient id="aI" gradientUnits="userSpaceOnUse" x1="46.42" y1="68.645" x2="152.311" y2="36.328"><stop offset="0" stop-color="#4da6f9"/><stop offset="1" stop-color="#0f82f8"/></linearGradient></defs><path d="M83.2 99.3L28.2 58 123 3.5l54.9 41.2z" fill="url(#aI)"/><g><defs><linearGradient id="aJ" gradientUnits="userSpaceOnUse" x1="51.102" y1="84.895" x2="56.275" y2="77.407"><stop offset="0" stop-color="#0084fd"/><stop offset=".52" stop-color="#63bbf9"/><stop offset="1" stop-color="#47a0f9"/></linearGradient></defs><path d="M78.4 106.8L23.5 65.5c.1-2.6 2.3-6 4.8-7.5l54.9 41.2c-2.6 1.5-4.7 4.8-4.8 7.5z" fill="url(#aJ)"/><defs><linearGradient id="aK" gradientUnits="userSpaceOnUse" x1="51.56" y1="84.81" x2="57.408" y2="76.347"><stop offset="0" stop-color="#0084fd"/><stop offset=".52" stop-color="#63bbf9"/><stop offset="1" stop-color="#47a0f9"/></linearGradient></defs><path d="M78.4 106.8L23.5 65.5l.1-1 54.9 41.2-.1 1" fill="url(#aK)"/><defs><linearGradient id="aL" gradientUnits="userSpaceOnUse" x1="51.191" y1="84.733" x2="57.185" y2="76.06"><stop offset="0" stop-color="#0084fd"/><stop offset=".52" stop-color="#63bbf9"/><stop offset="1" stop-color="#47a0f9"/></linearGradient></defs><path d="M78.5 105.7L23.7 64.5l.1-.6 54.8 41.2-.1.6" fill="url(#aL)"/><defs><linearGradient id="aM" gradientUnits="userSpaceOnUse" x1="50.989" y1="84.733" x2="57.023" y2="76.003"><stop offset="0" stop-color="#0084fd"/><stop offset=".52" stop-color="#63bbf9"/><stop offset="1" stop-color="#47a0f9"/></linearGradient></defs><path d="M78.7 105.1L23.8 64l.2-.5 54.9 41.2-.2.5" fill="url(#aM)"/><defs><linearGradient id="aN" gradientUnits="userSpaceOnUse" x1="50.835" y1="84.753" x2="56.886" y2="75.999"><stop offset="0" stop-color="#0084fd"/><stop offset=".52" stop-color="#63bbf9"/><stop offset="1" stop-color="#47a0f9"/></linearGradient></defs><path d="M78.8 104.7L24 63.5l.2-.4 54.9 41.2-.2.4" fill="url(#aN)"/><defs><linearGradient id="aO" gradientUnits="userSpaceOnUse" x1="50.71" y1="84.785" x2="56.773" y2="76.011"><stop offset="0" stop-color="#0084fd"/><stop offset=".52" stop-color="#63bbf9"/><stop offset="1" stop-color="#47a0f9"/></linearGradient></defs><path d="M79 104.3L24 63l.2-.4 54.9 41.2-.2.4" fill="url(#aO)"/><defs><linearGradient id="aP" gradientUnits="userSpaceOnUse" x1="50.601" y1="84.822" x2="56.671" y2="76.044"><stop offset="0" stop-color="#0084fd"/><stop offset=".52" stop-color="#63bbf9"/><stop offset="1" stop-color="#47a0f9"/></linearGradient></defs><path d="M79.1 103.9L24.3 62.7q0-.2.2-.3l54.9 41.2q0 .2-.2.3" fill="url(#aP)"/><defs><linearGradient id="aQ" gradientUnits="userSpaceOnUse" x1="50.507" y1="84.87" x2="56.578" y2="76.088"><stop offset="0" stop-color="#0084fd"/><stop offset=".52" stop-color="#63bbf9"/><stop offset="1" stop-color="#47a0f9"/></linearGradient></defs><path d="M79.3 103.5L24.4 62.3q0-.2.2-.3l54.9 41.2q0 .2-.2.3" fill="url(#aQ)"/><defs><linearGradient id="aR" gradientUnits="userSpaceOnUse" x1="50.427" y1="84.923" x2="56.497" y2="76.141"><stop offset="0" stop-color="#0084fd"/><stop offset=".52" stop-color="#63bbf9"/><stop offset="1" stop-color="#47a0f9"/></linearGradient></defs><path d="M79.5 103.2L24.6 62q0-.2.2-.3l54.9 41.2-.2.3" fill="url(#aR)"/><defs><linearGradient id="aS" gradientUnits="userSpaceOnUse" x1="50.358" y1="84.984" x2="56.429" y2="76.197"><stop offset="0" stop-color="#0084fd"/><stop offset=".52" stop-color="#63bbf9"/><stop offset="1" stop-color="#47a0f9"/></linearGradient></defs><path d="M79.7 102.9l-55-41.2.3-.3 54.9 41.2-.2.3" fill="url(#aS)"/><defs><linearGradient id="aT" gradientUnits="userSpaceOnUse" x1="50.301" y1="85.049" x2="56.368" y2="76.27"><stop offset="0" stop-color="#0084fd"/><stop offset=".52" stop-color="#63bbf9"/><stop offset="1" stop-color="#47a0f9"/></linearGradient></defs><path d="M79.9 102.6L25 61.4l.2-.3 54.9 41.2-.2.3" fill="url(#aT)"/><defs><linearGradient id="aU" gradientUnits="userSpaceOnUse" x1="50.248" y1="85.121" x2="56.315" y2="76.347"><stop offset="0" stop-color="#0084fd"/><stop offset=".52" stop-color="#63bbf9"/><stop offset="1" stop-color="#47a0f9"/></linearGradient></defs><path d="M80 102.3L25.3 61l.2-.3 54.9 41.2-.2.3" fill="url(#aU)"/><defs><linearGradient id="aV" gradientUnits="userSpaceOnUse" x1="50.212" y1="85.202" x2="56.271" y2="76.436"><stop offset="0" stop-color="#0084fd"/><stop offset=".52" stop-color="#63bbf9"/><stop offset="1" stop-color="#47a0f9"/></linearGradient></defs><path d="M80.3 102L25.4 60.6l.2-.3 54.9 41.2-.2.3" fill="url(#aV)"/><defs><linearGradient id="aW" gradientUnits="userSpaceOnUse" x1="50.184" y1="85.295" x2="56.238" y2="76.537"><stop offset="0" stop-color="#0084fd"/><stop offset=".52" stop-color="#63bbf9"/><stop offset="1" stop-color="#47a0f9"/></linearGradient></defs><path d="M80.5 101.6L25.8 60.4l.3-.3 54.9 41.2-.3.3" fill="url(#aW)"/><defs><linearGradient id="aX" gradientUnits="userSpaceOnUse" x1="50.176" y1="85.393" x2="56.214" y2="76.655"><stop offset="0" stop-color="#0084fd"/><stop offset=".52" stop-color="#63bbf9"/><stop offset="1" stop-color="#47a0f9"/></linearGradient></defs><path d="M80.8 101.3L26 60l.3-.3 55 41.2-.4.3" fill="url(#aX)"/><defs><linearGradient id="aY" gradientUnits="userSpaceOnUse" x1="50.188" y1="85.502" x2="56.202" y2="76.8"><stop offset="0" stop-color="#0084fd"/><stop offset=".52" stop-color="#63bbf9"/><stop offset="1" stop-color="#47a0f9"/></linearGradient></defs><path d="M81.1 101L26.2 59.8l.4-.4 55 41.2-.5.4" fill="url(#aY)"/><defs><linearGradient id="aZ" gradientUnits="userSpaceOnUse" x1="50.244" y1="85.623" x2="56.21" y2="76.995"><stop offset="0" stop-color="#0084fd"/><stop offset=".52" stop-color="#63bbf9"/><stop offset="1" stop-color="#47a0f9"/></linearGradient></defs><path d="M81.5 100.6L26.6 59.4l.5-.4L82 100.2l-.5.4" fill="url(#aZ)"/><defs><linearGradient id="ba" gradientUnits="userSpaceOnUse" x1="50.58" y1="85.72" x2="56.307" y2="77.432"><stop offset="0" stop-color="#0084fd"/><stop offset=".52" stop-color="#63bbf9"/><stop offset="1" stop-color="#47a0f9"/></linearGradient></defs><path d="M82 100.2L27 59a8.3 8.3 0 0 1 1.2-.9l54.9 41.2a8.2 8.2 0 0 0-1.2.9" fill="url(#ba)"/></g><defs><linearGradient id="bb" gradientUnits="userSpaceOnUse" x1="80.764" y1="102.569" x2="179.528" y2="75.283"><stop offset="0" stop-color="#4ca3f9"/><stop offset="1" stop-color="#0070f3"/></linearGradient></defs><path d="M79.6 133.9a1.9 1.9 0 0 1-1.4-.6 2.7 2.7 0 0 1-.6-2l1-24.5c.1-2.6 2.2-6 4.7-7.3L178 44.9a4.4 4.4 0 0 1 2.1-.7 1.9 1.9 0 0 1 1.4.6 2.7 2.7 0 0 1 .6 2l-1 24.5c0 2.6-2.2 5.9-4.7 7.3l-94.6 54.6a4.4 4.4 0 0 1-2.1.7z" fill="url(#bb)"/><path d="M180 44.4c.6 0 1 .2 1.4.5a2.5 2.5 0 0 1 .6 1.9l-1 24.5c-.1 2.5-2.2 5.8-4.6 7L81.8 133a4.2 4.2 0 0 1-2 .6 1.7 1.7 0 0 1-1.3-.5 2.5 2.5 0 0 1-.6-2l1-24.4c0-2.5 2.2-5.8 4.6-7.1L178 45a4.2 4.2 0 0 1 2-.6m0-.4a4.6 4.6 0 0 0-2.2.7L83.2 99.3c-2.6 1.5-4.7 4.9-4.8 7.5l-1 24.5c0 1.8.8 2.8 2.2 2.8a4.6 4.6 0 0 0 2.2-.7l94.6-54.6c2.6-1.5 4.7-4.9 4.8-7.5l1-24.5c0-1.8-.8-2.8-2.2-2.8z" fill="#fff"/><path d="M113.7 95c.7-.3 1.3 0 1.3.7l-.3 7a3 3 0 0 1-1.4 2l-26.8 15.6c-.7.4-1.3 0-1.3-.6l.3-7a3 3 0 0 1 1.4-2.1z" fill="#fff"/><defs><linearGradient id="bc" gradientUnits="userSpaceOnUse" x1="129.46" y1="118.507" x2="178.573" y2="146.489"><stop offset="0" stop-color="#4dc2f3"/><stop offset="1" stop-color="#0070f3"/></linearGradient></defs><path d="M179 104.7c1.6 1.8 2.8 4.3 3.4 7.4l9.2-5.3-.5 11.7-9.2 5.3a52 52 0 0 1-4.2 11.8l6.3 3-8.3 13-6.3-3a61.6 61.6 0 0 1-9.4 9.2l-.4 9.5-11.3 6.5.4-9.5c-3.3 1.2-6.4 1.6-9 1.4l-6.8 10.5-7.6-3.6 6.8-10.5c-1.7-1.8-2.9-4.3-3.5-7.4l-9.2 5.3.5-11.7 9.2-5.3a52.2 52.2 0 0 1 4.2-11.8l-6.3-3 8.3-12.9 6.3 3a61.3 61.3 0 0 1 9.4-9.3l.4-9.5 11.3-6.5-.4 9.5c3.3-1.2 6.4-1.6 9-1.4l6.8-10.5 7.6 3.6z" fill="url(#bc)"/><path d="M190 143.5l-8.8-6.3 6 2.8 8.6 6.3zm-27.6 35.9l-8.7-6.3.4-9 8.7 6.3zm31.9-58l-8.7-6.3 8.7-5 8.7 6.3z" fill="#0753a0"/><path d="M140.6 178.1l-8.7-6.3 6.4-9.9 8.7 6.3z" fill="#0070f3"/><path d="M184 111.1l-8.8-6.3 6.4-9.9 8.7 6.3z" fill="#3b9ffd"/><path d="M190.3 101.2l-8.7-6.3 7.2 3.4 8.7 6.3z" fill="#0070f3"/><g fill="#0753a0"><path d="M147 168.3l-8.7-6.3c-1.6-1.7-2.7-4-3.2-7l8.7 6.4c.5 2.9 1.6 5.2 3.2 6.9z"/><path d="M147 168.3l-8.7-6.3c-1.6-1.7-2.7-4-3.2-7l8.7 6.4c.5 2.9 1.7 5.2 3.2 6.9"/></g><path d="M175.4 112.4l-8.7-6.4c3-1.1 6-1.5 8.5-1.3l8.7 6.4c-2.5-.3-5.4.2-8.5 1.3z" fill="#0776d1"/><g><g fill="#0776d1"><path d="M175.4 112.4l-8.7-6.4a25.2 25.2 0 0 1 2.5-.8l8.7 6.3a25.2 25.2 0 0 0-2.5.8"/><path d="M177.9 111.6l-8.7-6.3 2-.4 8.7 6.3-2 .4"/><path d="M179.9 111.2l-8.7-6.3q.9 0 1.7-.2l8.7 6.3-1.7.2m1.7-.2l-8.7-6.3h1.5l8.7 6.3h-1.5m1.4 0l-8.7-6.3h.9l8.7 6.3h-.9"/></g></g><path d="M144.2 150.4l-8.7-6.3a49 49 0 0 1 4-11l8.7 6.3a49 49 0 0 0-4 11z" fill="#0776d1"/><g><g fill="#0776d1"><path d="M144.2 150.4l-8.7-6.3v-.2l8.7 6.3v.2M144.2 150.2l-8.7-6.3.8-3.1 8.8 6.4-.8 3M145 147l-8.6-6.2.8-2.5 8.7 6.3-.8 2.5"/><path d="M145.9 144.6l-8.7-6.3.9-2.2 8.7 6.3-1 2.2m1-2.2l-8.7-6.4.9-2 8.7 6.3-.9 2"/><path d="M147.7 140.3L139 134l.5-1 8.7 6.3-.5 1"/></g></g><path d="M135.5 155.4l-8.7-6.3 8.7-5 8.7 6.3z" fill="#0070f3"/><path d="M135 166.4l-8.6-6.3.4-11 8.7 6.3z" fill="#0089ff"/><path d="M156 127.3l-8.8-6.3a57.7 57.7 0 0 1 8.8-8.7l8.7 6.3a57.7 57.7 0 0 0-8.8 8.7z" fill="#0776d1"/><g><g fill="#0776d1"><path d="M156 127.3l-8.8-6.3 1-1.2 8.7 6.3-1 1.2M157 126l-8.7-6.2q.8-1 1.7-1.8l8.7 6.3-1.7 1.8m1.6-1.9l-8.7-6.3 2-2 8.7 6.3-2 2m2-2l-8.7-6.3 2.6-2.4 8.7 6.3-2.6 2.4"/><path d="M163.2 119.8l-8.7-6.3 1.6-1.3 8.7 6.3-1.6 1.3"/></g></g><path d="M165.1 109.6l-8.7-6.3 10.6-6.1 8.7 6.3z" fill="#0089ff"/><path d="M164.8 118.5l-8.7-6.3.4-9 8.7 6.3z" fill="#3b9ffd"/><path d="M150 124.5l-8.6-6.3 5.9 2.8 8.7 6.3z" fill="#0070f3"/><defs><linearGradient id="bd" gradientUnits="userSpaceOnUse" x1="144.633" y1="127.512" x2="190.759" y2="153.794"><stop offset="0" stop-color="#4dc2f3"/><stop offset="1" stop-color="#0070f3"/></linearGradient></defs><path d="M191.1 114.5c1.6 1.7 2.7 4 3.2 7l8.7-5-.4 11-8.7 5a49 49 0 0 1-4 11l5.9 2.7-7.8 12-5.9-2.8a58 58 0 0 1-8.8 8.7l-.4 9-10.6 6.1.4-9c-3.1 1.1-6 1.5-8.5 1.3l-6.4 10-7.2-3.5 6.4-9.9c-1.6-1.7-2.7-4-3.2-6.9l-8.7 5 .4-11 8.7-5a49 49 0 0 1 4-11l-5.9-2.8 7.8-12 5.9 2.8a57.6 57.6 0 0 1 8.8-8.7l.4-9 10.6-6-.4 9c3.1-1.2 6-1.6 8.5-1.4l6.4-9.9 7.2 3.4z" fill="url(#bd)"/><path d="M142.3 136.5l-8.7-6.3 7.8-12 8.7 6.3z" fill="#0089ff"/><path d="M187.9 130.3c0-10.4-8.2-13.7-18.3-7.4-10.1 6.3-18.3 19.8-18.3 30.2s8.2 13.7 18.3 7.4c10-6.3 18.3-19.8 18.3-30.2z" fill="#fff"/><defs><linearGradient id="be" gradientUnits="userSpaceOnUse" x1="162.174" y1="136.691" x2="175.169" y2="145.514"><stop offset=".01" stop-color="#0753a0"/><stop offset="1" stop-color="#0083ef"/></linearGradient></defs><path d="M179 135.8c0-5.4-4.2-7-9.5-3.8-5.2 3.3-9.5 10.3-9.5 15.6s4.2 7 9.5 3.8c5.2-3.3 9.5-10.3 9.5-15.6z" fill="url(#be)"/></svg>